{"glyphs":{"0":{"ha":651,"x_min":0,"x_max":0,"o":"m 325 -6 b 506 86 404 -6 464 25 b 568 351 547 147 568 236 b 506 613 568 465 547 553 b 328 704 465 674 406 704 b 147 613 249 704 189 674 b 83 349 104 551 83 463 b 145 85 83 234 104 146 b 325 -6 186 25 246 -6 z m 325 675 b 485 591 394 675 448 647 b 540 349 522 535 540 454 b 485 108 540 244 522 164 b 328 25 449 53 396 25 b 167 108 258 25 205 53 b 111 351 130 164 111 245 b 166 591 111 455 129 535 b 325 675 203 647 256 675 z "},"1":{"ha":411,"x_min":0,"x_max":0,"o":"m 204 672 l 204 672 l 204 0 l 233 0 l 233 706 l 228 711 l 36 650 l 36 626 l 43 624 z "},"2":{"ha":583,"x_min":0,"x_max":0,"o":"m 75 -1 l 128 0 l 429 0 l 542 -1 l 546 24 l 543 31 l 435 29 l 115 29 l 113 32 l 283 260 b 406 434 336 329 377 387 b 449 565 434 481 449 525 b 405 666 449 606 434 640 b 290 706 376 692 338 706 b 176 675 250 706 212 695 b 86 592 141 655 111 627 l 93 567 l 97 567 b 186 649 124 602 154 629 b 289 678 219 668 253 678 b 385 643 331 678 364 666 b 418 561 407 620 418 593 b 378 442 418 525 405 485 b 264 279 351 398 313 344 l 72 25 l 72 1 z "},"3":{"ha":507,"x_min":0,"x_max":0,"o":"m 61 603 l 67 603 b 221 678 117 653 168 678 b 314 645 260 678 291 667 b 349 560 337 623 349 595 b 332 492 349 536 343 513 b 290 438 321 472 307 453 b 235 403 274 423 255 411 b 179 390 216 394 197 390 l 128 390 l 126 368 l 129 364 l 186 364 b 334 319 250 361 299 346 b 386 203 369 291 386 253 b 326 74 386 149 366 106 b 168 26 287 42 234 26 b 116 28 152 26 135 27 b 63 35 97 30 79 32 l 60 32 l 63 7 b 116 0 79 4 97 2 b 168 -3 135 -2 152 -3 b 268 13 204 -3 238 2 b 346 55 299 23 325 37 b 396 119 367 73 384 94 b 414 203 408 144 414 172 b 373 319 414 250 400 289 b 254 381 346 349 306 369 l 254 385 b 346 462 293 403 324 429 b 379 565 368 495 379 529 b 335 669 379 609 365 643 b 222 707 306 694 269 707 b 138 688 193 707 164 701 b 56 629 111 676 83 656 z "},"4":{"ha":581,"x_min":0,"x_max":0,"o":"m 357 650 l 357 650 l 357 258 l 81 258 l 353 650 z m 510 229 l 510 229 l 514 253 l 510 258 l 385 258 l 385 703 l 357 703 l 47 257 l 47 233 l 51 229 l 104 231 l 357 231 l 357 0 l 386 0 l 385 231 l 424 231 z "},"5":{"ha":496,"x_min":0,"x_max":0,"o":"m 422 675 l 425 701 l 422 704 l 343 703 l 181 703 l 121 704 l 111 693 l 104 414 l 110 407 l 199 386 b 346 324 265 370 314 350 b 393 222 377 298 393 264 b 376 140 393 192 387 164 b 327 77 364 115 348 94 b 251 37 306 60 281 47 b 153 22 222 27 189 22 b 110 25 140 22 126 23 b 61 32 95 27 79 29 l 58 28 l 63 4 b 110 -3 78 0 94 -2 b 151 -6 125 -5 139 -6 b 262 10 192 -6 229 0 b 347 56 295 21 323 36 b 401 128 370 76 388 100 b 421 222 414 157 421 188 b 369 343 421 272 404 313 b 210 414 335 374 282 397 l 131 432 l 138 675 l 367 675 l 418 672 z "},"6":{"ha":561,"x_min":0,"x_max":0,"o":"m 275 -7 b 432 49 344 -7 396 12 b 486 210 468 87 486 140 b 437 353 486 272 470 319 b 300 403 404 386 358 403 b 200 384 265 403 231 397 b 113 332 169 372 139 354 l 111 335 b 219 547 126 416 162 487 b 451 689 276 606 353 654 l 451 694 l 436 710 l 432 710 b 167 528 317 668 229 607 b 75 247 106 448 75 355 b 127 58 75 165 92 102 b 275 -7 162 15 211 -7 z m 106 296 b 196 353 133 320 163 339 b 297 375 228 368 262 375 b 415 333 347 375 386 361 b 457 208 443 304 457 263 b 410 68 457 147 441 100 b 276 19 379 36 335 19 b 147 78 220 19 177 39 b 103 247 118 118 103 174 b 103 272 103 256 103 264 b 106 296 104 281 105 288 z "},"7":{"ha":497,"x_min":0,"x_max":0,"o":"m 117 674 l 117 674 l 417 674 l 119 3 l 121 -3 l 147 -11 l 189 94 l 447 678 l 446 704 l 404 703 l 125 703 l 47 704 l 43 679 l 49 672 z "},"8":{"ha":551,"x_min":0,"x_max":0,"o":"m 68 172 b 121 44 68 119 86 77 b 265 -6 156 11 204 -6 b 416 45 328 -6 378 11 b 472 182 453 79 472 125 b 458 253 472 210 467 233 b 419 303 448 272 435 289 b 365 338 404 317 386 328 b 304 365 345 348 325 357 l 304 368 b 359 394 324 375 342 384 b 404 431 376 405 391 417 b 435 480 417 444 428 461 b 447 546 443 499 447 521 b 403 663 447 596 433 635 b 282 706 374 691 334 706 b 151 661 229 706 186 691 b 100 536 117 631 100 590 b 111 475 100 513 104 493 b 141 429 119 457 128 442 b 183 395 153 416 168 405 b 233 368 199 385 216 376 l 233 365 b 175 338 214 358 194 349 b 122 298 156 326 138 313 b 83 244 105 283 92 265 b 68 172 73 224 68 200 z m 128 536 b 170 641 128 581 142 616 b 282 679 198 666 236 679 b 383 644 325 679 358 667 b 421 546 408 620 421 588 b 408 482 421 521 416 500 b 373 436 399 464 387 449 b 324 403 359 423 342 412 b 269 381 306 395 288 387 b 216 405 251 388 233 396 b 171 436 199 414 184 424 b 140 478 158 448 147 462 b 128 536 132 495 128 514 z m 265 353 b 331 324 288 344 309 334 b 388 291 352 315 371 303 b 429 245 405 278 419 263 b 444 179 439 227 444 205 b 397 65 444 132 428 94 b 265 22 365 37 321 22 b 141 63 213 22 171 36 b 96 172 111 91 96 127 b 111 242 96 199 101 222 b 151 292 121 261 135 278 b 206 327 168 306 186 317 b 265 353 226 337 246 345 z "},"9":{"ha":536,"x_min":0,"x_max":0,"o":"m 247 301 b 348 321 283 301 317 308 b 435 372 379 334 408 351 l 438 369 b 329 158 422 288 386 218 b 97 17 273 99 195 52 l 97 10 l 111 -6 l 117 -6 b 381 176 231 36 320 97 b 474 457 443 256 474 350 b 422 646 474 539 456 602 b 272 711 387 689 337 711 b 117 656 205 711 153 693 b 63 496 81 619 63 565 b 111 351 63 433 79 385 b 247 301 144 318 189 301 z m 272 685 b 401 626 329 685 372 665 b 446 457 431 586 446 530 b 445 433 446 450 446 442 b 443 410 445 425 444 417 b 352 351 415 385 385 365 b 250 329 319 336 285 329 b 133 372 200 329 161 343 b 90 496 104 400 90 441 b 138 636 90 557 106 604 b 272 685 169 669 214 685 z "},"\u0000":{"ha":0,"x_min":0,"x_max":0,"o":""},"\r":{"ha":250,"x_min":0,"x_max":0,"o":""}," ":{"ha":250,"x_min":0,"x_max":0,"o":""},"!":{"ha":343,"x_min":0,"x_max":0,"o":"m 165 47 b 138 18 147 47 138 38 b 165 -10 138 0 147 -10 b 193 18 184 -10 193 0 b 165 47 193 38 184 47 z m 185 217 l 194 789 l 190 793 l 171 793 l 167 789 l 157 224 l 163 217 z "},"\"":{"ha":308,"x_min":0,"x_max":0,"o":"m 93 676 l 110 876 l 106 882 l 82 879 l 65 679 l 69 674 z m 228 676 l 244 876 l 240 882 l 217 879 l 200 679 l 204 674 z "},"#":{"ha":667,"x_min":0,"x_max":0,"o":"m 13 201 l 168 201 l 119 -6 l 124 -11 l 146 -11 l 196 201 l 408 201 l 358 -6 l 363 -11 l 385 -11 l 436 201 l 613 201 l 615 225 l 611 229 l 443 229 l 501 471 l 679 471 l 682 494 l 678 499 l 510 499 l 561 706 l 558 713 l 536 713 l 482 499 l 269 499 l 321 706 l 318 713 l 296 713 l 242 499 l 78 499 l 75 475 l 79 471 l 235 471 l 175 229 l 11 229 l 8 206 z m 203 229 l 263 471 l 475 471 l 415 229 z "},"$":{"ha":579,"x_min":0,"x_max":0,"o":"m 472 179 b 459 242 472 203 468 224 b 424 290 450 260 438 276 b 371 328 409 304 391 317 b 307 361 350 340 329 351 l 306 363 l 332 676 l 333 676 b 436 646 367 674 401 663 l 443 647 l 449 671 b 385 692 425 681 404 688 b 336 701 365 697 349 700 l 335 701 l 346 840 l 342 846 l 321 846 l 308 703 l 307 703 b 226 690 277 703 250 698 b 161 653 201 681 180 669 b 118 598 143 637 128 619 b 103 529 108 577 103 554 b 118 463 103 504 108 482 b 158 414 128 444 142 428 b 215 376 175 400 194 388 b 279 344 235 365 257 355 l 253 19 l 251 19 b 167 35 223 20 194 25 b 93 72 139 44 114 56 l 88 71 l 86 46 b 162 12 108 32 134 21 b 249 -4 190 3 219 -2 l 250 -4 l 240 -129 l 244 -135 l 264 -135 l 275 -4 l 276 -4 b 354 14 304 -2 330 4 b 417 53 378 24 399 37 b 458 110 434 70 448 88 b 472 179 467 131 472 154 z m 128 526 b 174 629 128 564 143 599 b 224 662 186 640 202 651 b 304 678 245 672 272 678 l 306 678 l 306 676 l 282 374 l 281 375 b 225 401 262 383 244 392 b 176 433 206 411 190 421 b 141 474 161 445 150 459 b 128 526 132 488 128 506 z m 279 21 l 278 21 l 304 332 l 307 332 b 360 303 325 323 343 313 b 404 271 376 294 391 283 b 435 230 417 259 428 245 b 447 176 443 215 447 197 b 435 122 447 158 443 140 b 403 74 428 105 417 88 b 279 21 370 42 329 25 z "},"%":{"ha":963,"x_min":0,"x_max":0,"o":"m 747 743 l 747 746 l 743 757 l 728 765 l 206 -61 l 204 -62 l 210 -76 l 224 -83 z m 243 339 b 361 390 294 339 333 356 b 390 449 375 407 385 426 b 399 531 396 471 399 498 b 390 616 399 563 396 591 b 361 678 385 641 375 661 b 244 728 334 711 295 728 b 125 676 193 728 153 711 b 96 615 111 660 101 639 b 88 529 90 590 88 562 b 126 384 88 463 100 414 b 243 339 152 354 191 339 z m 243 700 b 340 657 286 700 318 686 b 372 529 362 630 372 588 b 340 406 372 473 361 431 b 244 367 318 380 286 367 b 147 406 201 367 168 380 b 114 531 125 431 114 473 b 243 700 114 644 157 700 z m 722 356 b 603 304 670 356 631 338 b 574 242 589 288 579 267 b 565 157 568 218 565 189 b 604 12 565 90 578 42 b 719 -33 630 -18 669 -33 b 839 18 771 -33 811 -16 b 868 76 853 35 863 54 b 876 158 874 99 876 126 b 868 244 876 191 874 219 b 839 306 863 268 853 289 b 722 356 812 339 773 356 z m 722 -6 b 624 33 679 -6 646 7 b 592 158 603 59 592 101 b 719 328 592 271 634 328 b 818 285 763 328 796 313 b 850 157 839 258 850 215 b 817 33 850 100 839 59 b 722 -6 796 7 764 -6 z "},"&":{"ha":783,"x_min":0,"x_max":0,"o":"m 124 178 b 189 40 124 119 145 74 b 261 3 209 24 233 11 b 351 -10 289 -6 319 -10 b 475 18 399 -10 440 0 b 556 90 509 35 536 59 l 681 -22 l 685 -25 l 686 -24 b 695 -19 689 -23 692 -21 b 703 -12 698 -16 701 -14 l 703 -11 l 703 -7 l 569 115 b 594 238 586 151 594 192 b 586 317 594 265 592 292 b 560 400 581 343 572 370 l 560 401 l 744 401 l 750 422 l 744 428 l 442 428 l 436 407 l 443 401 l 526 401 b 568 238 554 349 568 294 b 549 135 568 200 562 166 l 271 385 b 212 456 244 409 224 432 b 193 533 199 479 193 505 b 235 640 193 580 207 615 b 354 678 263 665 302 678 b 499 635 407 678 455 663 l 510 635 l 517 658 l 515 660 b 351 704 463 689 408 704 b 215 660 293 704 248 689 b 167 535 183 630 167 588 b 186 447 167 502 173 473 b 247 372 199 421 219 396 l 247 371 b 124 178 165 324 124 259 z m 268 354 l 536 110 b 461 41 518 80 493 57 b 351 17 430 25 393 17 b 205 61 290 17 241 31 b 150 181 168 91 150 131 b 180 279 150 217 160 250 b 268 354 200 309 229 334 z "},"'":{"ha":174,"x_min":0,"x_max":0,"o":"m 93 676 l 110 876 l 106 882 l 82 879 l 65 679 l 69 674 z "},"(":{"ha":390,"x_min":0,"x_max":0,"o":"m 382 900 l 382 906 l 369 921 l 364 921 b 257 822 322 890 287 857 b 185 703 227 787 203 747 b 145 553 167 658 154 608 b 132 361 136 497 132 433 b 145 169 132 289 136 225 b 185 18 154 113 167 63 b 257 -101 203 -26 227 -66 b 364 -199 287 -135 322 -168 l 369 -199 l 382 -183 l 382 -178 b 279 -84 341 -149 307 -118 b 211 31 251 -50 229 -12 b 172 176 194 73 181 122 b 160 361 164 230 160 292 b 172 547 160 431 164 492 b 211 692 181 601 194 649 b 279 806 229 734 251 772 b 382 900 307 840 341 871 z "},")":{"ha":390,"x_min":0,"x_max":0,"o":"m 8 -178 l 8 -183 l 21 -199 l 26 -199 b 133 -101 68 -168 104 -135 b 205 18 163 -66 187 -26 b 245 169 223 63 236 113 b 258 361 254 225 258 289 b 245 553 258 433 254 497 b 205 703 236 608 223 658 b 133 822 187 747 163 787 b 26 921 104 857 68 890 l 21 921 l 8 906 l 8 900 b 110 806 48 871 82 840 b 179 692 139 772 162 734 b 218 547 197 649 210 601 b 231 361 226 492 231 431 b 218 176 231 292 226 230 b 179 31 210 122 197 73 b 110 -84 162 -12 139 -50 b 8 -178 82 -118 48 -149 z "},"*":{"ha":506,"x_min":0,"x_max":0,"o":"m 206 719 l 210 739 l 65 804 l 61 801 b 57 772 58 794 57 784 l 199 718 z m 232 663 l 233 672 l 217 682 l 111 560 l 113 556 b 139 542 121 549 130 544 z m 261 763 l 276 925 l 274 928 b 244 924 263 928 254 926 l 238 768 l 242 760 z m 376 551 l 293 681 l 286 683 l 271 671 l 351 531 l 356 531 b 376 551 362 534 369 541 z m 440 786 l 296 744 l 292 739 l 299 721 l 453 756 l 454 758 b 440 786 451 769 447 779 z "},"+":{"ha":667,"x_min":0,"x_max":0,"o":"m 347 389 l 347 650 l 343 654 l 319 651 l 319 389 l 57 389 l 54 365 l 58 361 l 319 361 l 319 100 l 324 96 l 347 99 l 347 361 l 610 361 l 613 385 l 608 389 z "},",":{"ha":319,"x_min":0,"x_max":0,"o":"m 207 42 b 154 122 207 76 189 103 b 136 104 148 119 142 113 l 136 97 b 178 40 164 81 178 63 b 157 -24 178 20 171 -1 b 100 -90 143 -46 124 -68 l 99 -94 l 115 -114 b 183 -32 145 -86 168 -59 b 207 42 199 -5 207 19 z "},"-":{"ha":432,"x_min":0,"x_max":0,"o":"m 389 363 l 389 385 l 383 390 l 43 344 l 43 322 l 49 317 z "},".":{"ha":319,"x_min":0,"x_max":0,"o":"m 160 53 b 132 25 141 53 132 44 b 160 -3 132 6 141 -3 b 188 25 178 -3 188 6 b 160 53 188 44 178 53 z "},"/":{"ha":404,"x_min":0,"x_max":0,"o":"m 122 -43 l 122 -43 l 346 835 l 340 840 l 318 840 l 96 -39 l 100 -43 z "},":":{"ha":319,"x_min":0,"x_max":0,"o":"m 154 517 b 126 488 136 517 126 507 b 154 460 126 469 136 460 b 182 488 173 460 182 469 b 154 517 182 507 173 517 z m 154 47 b 126 18 136 47 126 38 b 154 -10 126 0 136 -10 b 182 18 173 -10 182 0 b 154 47 182 38 173 47 z "},";":{"ha":319,"x_min":0,"x_max":0,"o":"m 154 517 b 126 488 136 517 126 507 b 154 460 126 469 136 460 b 182 488 173 460 182 469 b 154 517 182 507 173 517 z m 201 42 b 149 122 201 76 184 103 b 131 104 142 119 136 113 l 131 97 b 172 40 158 81 172 63 b 151 -24 172 20 165 -1 b 94 -90 138 -46 119 -68 l 93 -94 l 110 -114 b 178 -32 139 -86 162 -59 b 201 42 194 -5 201 19 z "},"<":{"ha":667,"x_min":0,"x_max":0,"o":"m 606 606 l 610 613 l 600 632 l 60 394 l 56 389 l 56 358 l 597 136 l 603 139 l 611 160 l 92 372 l 92 378 z "},"=":{"ha":667,"x_min":0,"x_max":0,"o":"m 610 461 l 613 485 l 608 489 l 57 489 l 54 465 l 58 461 z m 610 261 l 613 285 l 608 289 l 57 289 l 54 265 l 58 261 z "},">":{"ha":667,"x_min":0,"x_max":0,"o":"m 611 389 l 607 394 l 67 632 l 57 613 l 61 606 l 575 378 l 575 372 l 56 160 l 64 139 l 69 136 l 611 358 z "},"?":{"ha":417,"x_min":0,"x_max":0,"o":"m 81 813 l 72 808 l 68 789 l 71 785 b 294 734 168 779 242 762 b 371 606 345 706 371 663 b 338 524 371 576 360 549 b 257 457 315 500 288 477 l 154 390 l 147 376 l 156 217 l 160 210 l 183 213 l 176 367 l 178 371 l 274 436 b 318 468 288 445 303 456 b 358 508 333 480 346 493 b 388 554 370 522 380 538 b 399 608 395 571 399 589 b 316 753 399 673 371 721 b 81 813 261 784 182 804 z m 182 47 b 154 18 163 47 154 38 b 182 -10 154 0 163 -10 b 210 18 200 -10 210 0 b 182 47 210 38 200 47 z "},"@":{"ha":992,"x_min":0,"x_max":0,"o":"m 554 -153 l 553 -146 b 360 -115 481 -146 417 -136 b 215 -27 303 -95 255 -66 b 122 112 174 11 144 58 b 90 296 101 166 90 227 b 123 486 90 365 101 429 b 215 633 145 544 175 593 b 357 728 254 674 301 706 b 542 761 413 750 474 761 b 690 736 596 761 646 753 b 804 665 735 719 773 696 b 877 553 836 634 860 596 b 903 407 894 509 903 461 b 826 176 903 309 877 232 b 600 78 775 121 700 88 l 610 188 l 665 619 l 658 624 l 642 615 l 564 622 l 560 622 b 445 585 518 619 480 606 b 357 497 410 565 381 535 b 304 374 334 462 316 421 b 286 225 292 328 286 278 b 301 114 286 180 291 143 b 349 50 311 90 326 69 l 350 50 l 364 50 l 364 51 b 489 197 406 90 447 139 b 606 390 531 254 569 319 l 610 390 l 567 51 l 567 50 l 568 50 b 835 153 686 58 775 93 b 929 407 898 213 929 298 b 902 560 929 463 920 514 b 824 682 884 607 858 648 b 542 788 753 752 659 788 b 347 753 469 788 405 776 b 196 651 287 729 237 695 b 99 494 153 606 121 554 b 65 290 76 433 65 365 b 98 104 65 223 76 161 b 196 -43 120 48 152 -1 b 347 -138 238 -85 289 -116 b 538 -174 404 -160 468 -172 l 539 -174 z m 453 188 b 390 112 427 153 406 128 b 360 88 373 96 363 88 b 346 95 356 88 351 90 b 331 119 340 100 335 108 b 318 163 326 131 322 145 b 313 231 314 181 313 204 b 330 367 313 278 318 323 b 379 482 341 410 358 449 b 563 594 425 555 487 593 l 633 589 l 625 503 l 621 471 b 528 301 588 404 558 347 b 453 188 499 254 474 216 z "},"A":{"ha":769,"x_min":0,"x_max":0,"o":"m 699 0 l 731 0 l 407 885 l 379 885 l 26 0 l 60 0 l 79 60 l 174 296 l 593 296 l 681 60 z m 394 838 l 583 324 l 185 324 l 389 838 z "},"B":{"ha":683,"x_min":0,"x_max":0,"o":"m 418 464 b 516 542 460 481 492 507 b 551 682 540 578 551 625 b 492 835 551 749 532 800 b 324 888 453 870 397 888 l 153 885 l 153 0 b 231 -3 177 -2 203 -3 b 304 -4 258 -4 283 -4 b 540 61 407 -4 485 18 b 621 244 594 105 621 166 b 566 397 621 310 603 361 b 418 464 529 432 480 455 z m 181 858 l 333 858 b 472 811 392 858 438 843 b 522 682 505 780 522 737 b 481 542 522 625 509 578 b 361 472 454 506 414 482 l 181 476 z m 299 24 b 239 24 279 24 259 24 b 181 28 219 25 199 26 l 181 444 l 374 444 b 536 385 444 439 498 419 b 593 244 574 352 593 305 b 517 82 593 175 568 121 b 299 24 467 43 394 24 z "},"C":{"ha":726,"x_min":0,"x_max":0,"o":"m 435 890 b 161 774 315 890 224 852 b 67 440 98 697 67 586 b 157 108 67 296 97 185 b 419 -7 217 31 305 -7 b 553 17 464 -7 509 1 b 679 86 598 34 640 56 l 682 111 l 672 114 b 551 45 635 84 595 61 b 418 21 507 29 463 21 b 178 128 313 21 233 57 b 94 439 122 200 94 304 b 181 753 94 576 123 681 b 435 863 239 826 324 863 b 555 842 476 863 516 856 b 660 785 593 829 628 810 l 669 785 l 679 808 b 565 869 645 835 607 856 b 435 890 522 883 479 890 z "},"D":{"ha":885,"x_min":0,"x_max":0,"o":"m 432 892 l 153 885 l 153 0 b 215 -3 168 -1 188 -2 b 295 -5 241 -4 268 -4 b 371 -6 322 -5 348 -6 b 418 -7 394 -7 410 -7 b 715 116 548 -7 647 34 b 818 471 784 198 818 316 b 719 783 818 607 785 711 b 432 892 653 856 557 892 z m 418 21 b 376 22 410 21 396 21 b 310 23 356 22 334 22 b 238 25 286 23 262 24 b 181 28 215 26 195 27 l 181 857 b 240 859 194 858 214 859 b 317 861 265 859 291 860 b 388 863 343 862 366 863 b 432 864 410 864 425 864 b 698 763 548 864 636 830 b 790 471 759 695 790 598 b 694 137 790 325 758 214 b 418 21 631 59 538 21 z "},"E":{"ha":631,"x_min":0,"x_max":0,"o":"m 585 0 l 590 22 l 586 28 l 181 28 l 181 444 l 510 444 l 515 467 l 511 472 l 181 472 l 181 857 l 579 857 l 585 879 l 581 885 l 153 885 l 153 0 z "},"F":{"ha":571,"x_min":0,"x_max":0,"o":"m 181 458 l 181 857 l 564 857 l 569 879 l 565 885 l 153 885 l 153 0 l 181 0 l 181 431 l 494 431 l 500 453 l 496 458 z "},"G":{"ha":838,"x_min":0,"x_max":0,"o":"m 476 890 b 172 773 344 890 243 851 b 67 435 102 695 67 582 b 160 107 67 292 98 183 b 428 -7 222 31 311 -7 b 498 -3 453 -6 476 -5 b 564 6 520 -1 542 2 b 634 20 586 9 609 14 b 717 42 659 26 686 33 l 717 331 l 689 328 l 689 63 b 612 42 660 54 634 47 b 547 30 589 37 568 33 b 488 23 527 27 507 24 b 426 21 469 22 449 21 b 181 127 320 21 238 56 b 94 433 123 198 94 300 b 193 752 94 572 127 678 b 476 863 259 826 353 863 b 591 844 513 863 552 856 b 708 790 630 831 669 813 l 718 790 l 726 815 b 600 871 685 839 643 858 b 476 890 557 884 516 890 z "},"H":{"ha":931,"x_min":0,"x_max":0,"o":"m 778 0 l 778 885 l 750 885 l 750 464 l 181 464 l 181 885 l 153 885 l 153 0 l 181 0 l 181 436 l 750 436 l 750 0 z "},"I":{"ha":333,"x_min":0,"x_max":0,"o":"m 153 0 l 181 0 l 181 885 l 153 885 z "},"J":{"ha":372,"x_min":0,"x_max":0,"o":"m 222 160 l 222 885 l 15 885 l 11 863 l 17 857 l 194 857 l 194 157 b 156 8 194 100 181 50 b 28 -112 130 -33 87 -74 l 28 -121 l 43 -136 b 126 -72 75 -115 103 -94 b 181 -5 148 -51 167 -28 b 213 71 196 19 206 44 b 222 160 219 98 222 127 z "},"K":{"ha":704,"x_min":0,"x_max":0,"o":"m 153 0 l 181 0 l 181 885 l 153 885 z m 258 472 l 669 885 l 626 885 l 567 819 l 221 474 l 221 469 b 438 224 290 386 363 304 b 667 -8 513 144 589 67 l 672 -10 b 683 -5 676 -8 680 -6 b 692 1 687 -3 690 -1 l 692 7 b 469 233 617 79 542 155 b 258 472 395 312 325 392 z "},"L":{"ha":553,"x_min":0,"x_max":0,"o":"m 540 0 l 546 22 l 542 28 l 179 28 l 179 885 l 151 885 l 151 0 z "},"M":{"ha":1085,"x_min":0,"x_max":0,"o":"m 950 0 l 979 0 l 885 885 l 853 885 l 801 763 l 542 153 l 536 153 l 290 747 l 235 885 l 203 885 l 106 0 l 135 0 l 164 271 l 224 818 l 231 818 l 522 113 l 557 113 l 854 818 l 861 818 l 922 271 z "},"N":{"ha":931,"x_min":0,"x_max":0,"o":"m 775 0 l 776 244 l 778 886 l 750 883 l 747 58 l 742 58 l 181 885 l 154 885 l 153 264 l 153 0 l 181 0 l 181 276 l 182 826 l 188 826 l 749 0 z "},"O":{"ha":871,"x_min":0,"x_max":0,"o":"m 442 892 b 163 776 320 892 228 853 b 67 440 99 698 67 587 b 160 108 67 296 98 185 b 428 -7 222 31 311 -7 b 707 113 549 -7 642 33 b 804 457 772 192 804 307 b 711 780 804 598 773 705 b 442 892 649 854 559 892 z m 442 864 b 690 759 550 864 633 829 b 776 457 748 689 776 588 b 686 133 776 316 746 208 b 428 21 626 58 540 21 b 181 129 320 21 238 57 b 94 440 123 201 94 305 b 184 755 94 577 124 682 b 442 864 244 828 330 864 z "},"P":{"ha":672,"x_min":0,"x_max":0,"o":"m 349 888 l 153 885 l 153 0 l 181 0 l 181 346 l 304 346 b 524 421 400 346 473 371 b 600 639 575 471 600 544 b 535 824 600 719 578 781 b 349 888 492 866 430 888 z m 346 374 l 181 374 l 181 858 l 358 860 b 517 799 428 857 481 837 b 572 639 554 761 572 707 b 514 454 572 562 553 500 b 346 374 475 408 419 381 z "},"Q":{"ha":872,"x_min":0,"x_max":0,"o":"m 503 -1 b 727 139 601 14 676 61 b 804 457 778 217 804 323 b 711 780 804 598 773 705 b 442 892 649 854 559 892 b 163 776 320 892 228 853 b 67 440 99 698 67 587 b 160 108 67 296 98 185 b 428 -7 222 31 311 -7 l 448 -7 b 467 -6 454 -7 460 -6 b 715 -171 542 -73 625 -128 b 994 -253 806 -213 899 -241 l 1001 -253 l 1013 -236 l 1013 -228 b 740 -152 918 -217 827 -191 b 503 -1 653 -113 574 -62 z m 94 440 b 184 755 94 577 124 682 b 442 864 244 828 330 864 b 690 759 550 864 633 829 b 776 457 748 689 776 588 b 686 133 776 316 746 208 b 428 21 626 58 540 21 b 181 129 320 21 238 57 b 94 440 123 201 94 305 z "},"R":{"ha":719,"x_min":0,"x_max":0,"o":"m 396 371 b 548 472 463 391 513 425 b 600 644 583 518 600 576 b 535 825 600 723 578 783 b 349 888 492 867 430 888 l 153 885 l 153 0 l 181 0 l 181 365 l 367 365 b 488 177 406 301 446 239 b 622 -7 530 116 575 54 l 631 -10 b 647 1 637 -7 643 -3 l 647 7 b 516 187 601 67 557 127 b 396 371 475 247 435 308 z m 378 393 l 181 393 l 181 858 l 358 860 b 517 800 428 857 481 837 b 572 644 554 763 572 711 b 522 482 572 580 556 525 b 378 393 489 438 441 409 z "},"S":{"ha":618,"x_min":0,"x_max":0,"o":"m 342 889 b 240 872 305 889 271 883 b 161 824 210 860 183 844 b 110 755 139 804 122 781 b 92 671 98 728 92 700 b 123 567 92 629 102 594 b 201 494 144 539 170 515 b 303 440 233 474 267 456 b 404 387 339 423 373 406 b 483 320 436 368 462 346 b 514 225 503 295 514 263 b 498 151 514 200 509 175 b 451 86 487 127 472 106 b 378 40 431 67 407 51 b 282 22 350 28 318 22 b 179 38 250 22 215 28 b 81 89 143 49 110 66 l 74 86 l 72 60 b 174 11 102 38 136 22 b 283 -6 212 0 248 -6 b 388 13 321 -6 356 1 b 469 63 419 26 446 42 b 523 137 493 84 510 109 b 542 225 535 165 542 194 b 510 332 542 268 531 303 b 432 406 490 361 463 385 b 331 460 400 426 367 444 b 229 513 294 477 261 494 b 151 576 198 531 172 552 b 119 667 130 600 119 631 b 134 735 119 689 124 712 b 176 798 144 758 158 779 b 245 844 195 817 218 832 b 339 861 272 855 304 861 b 413 852 360 861 385 858 b 496 822 441 846 469 836 l 506 824 l 511 849 b 418 881 479 864 448 875 b 342 889 388 886 363 889 z "},"T":{"ha":660,"x_min":0,"x_max":0,"o":"m 615 857 l 621 879 l 617 885 l 44 885 l 39 863 l 43 857 l 317 857 l 317 0 l 344 0 l 344 857 z "},"U":{"ha":850,"x_min":0,"x_max":0,"o":"m 731 318 l 731 885 l 703 885 l 703 318 b 631 99 703 223 679 150 b 425 22 584 48 515 22 b 217 99 334 22 265 48 b 147 318 170 150 146 223 l 147 885 l 119 885 l 119 318 b 197 78 119 213 145 133 b 425 -6 249 22 325 -6 b 654 79 524 -6 600 23 b 731 318 708 136 733 215 z "},"V":{"ha":747,"x_min":0,"x_max":0,"o":"m 351 0 l 379 0 l 732 885 l 699 885 l 679 825 l 369 47 l 364 47 l 78 825 l 60 885 l 28 885 z "},"W":{"ha":1228,"x_min":0,"x_max":0,"o":"m 836 0 l 864 0 l 1210 885 l 1178 885 l 1158 825 l 854 47 l 849 47 l 568 825 l 550 885 l 519 885 l 603 654 l 368 47 l 363 47 l 82 825 l 64 885 l 32 885 l 350 0 l 378 0 l 614 608 l 619 608 z "},"X":{"ha":786,"x_min":0,"x_max":0,"o":"m 722 0 l 401 458 l 696 885 l 658 885 l 625 829 l 383 481 l 136 836 l 106 885 l 67 885 l 365 458 l 47 0 l 85 0 l 115 50 l 383 436 l 651 53 l 685 0 z "},"Y":{"ha":688,"x_min":0,"x_max":0,"o":"m 344 0 l 344 340 l 647 885 l 611 885 l 596 849 l 335 385 l 328 385 l 88 849 l 72 885 l 36 885 l 317 342 l 317 0 z "},"Z":{"ha":704,"x_min":0,"x_max":0,"o":"m 82 28 l 639 861 l 639 886 l 588 885 l 165 885 l 75 886 l 71 863 l 76 856 l 157 857 l 601 857 l 44 24 l 44 -1 l 94 0 l 638 0 l 642 22 l 636 29 l 542 28 z "},"[":{"ha":0,"x_min":0,"x_max":0,"o":""},"\\":{"ha":0,"x_min":0,"x_max":0,"o":""},"]":{"ha":0,"x_min":0,"x_max":0,"o":""},"^":{"ha":565,"x_min":0,"x_max":0,"o":"m 528 163 l 531 168 l 308 676 l 278 676 l 272 672 l 35 167 l 54 157 l 61 161 l 289 642 l 294 642 l 507 156 z "},"_":{"ha":632,"x_min":0,"x_max":0,"o":"m 650 -147 l 653 -124 l 649 -119 l -18 -119 l -21 -143 l -17 -147 z "},"`":{"ha":542,"x_min":0,"x_max":0,"o":"m 181 929 l 174 928 l 160 914 l 161 907 b 260 811 194 874 227 842 b 361 719 292 781 326 750 l 368 721 l 383 739 b 286 825 351 766 319 794 b 181 929 254 856 219 890 z "},"a":{"ha":686,"x_min":0,"x_max":0,"o":"m 96 50 l 157 197 l 526 197 l 582 50 l 596 0 l 628 0 l 551 207 l 364 703 l 335 703 l 47 0 l 79 0 z m 346 660 l 350 660 l 517 224 l 168 224 z "},"b":{"ha":617,"x_min":0,"x_max":0,"o":"m 540 181 b 496 303 540 233 525 274 b 375 357 466 331 426 350 b 456 420 409 370 436 391 b 485 532 475 449 485 487 b 435 658 485 585 468 627 b 296 704 403 689 356 704 l 150 703 l 150 0 b 215 -3 170 -2 192 -3 l 278 -3 b 473 41 363 -3 428 12 b 540 181 518 70 540 117 z m 178 676 l 300 676 b 413 635 347 676 385 663 b 454 531 440 608 454 573 b 421 420 454 486 443 449 b 325 365 399 391 367 373 l 178 368 z m 511 181 b 450 63 511 128 491 88 b 274 24 409 37 350 24 b 178 28 240 24 208 25 l 178 338 l 335 339 b 466 292 392 334 436 319 b 511 181 496 265 511 228 z "},"c":{"ha":649,"x_min":0,"x_max":0,"o":"m 585 643 b 490 690 557 663 525 679 b 385 707 455 701 420 707 b 159 615 287 707 211 676 b 81 349 107 553 81 464 b 155 85 81 234 105 146 b 372 -6 204 25 277 -6 b 480 13 407 -6 443 0 b 583 65 516 25 551 42 l 586 92 l 578 94 b 479 40 548 71 515 53 b 371 21 443 27 407 21 b 177 105 287 21 222 49 b 110 349 132 161 110 242 b 180 594 110 456 133 538 b 385 679 227 651 295 679 b 482 663 418 679 450 674 b 568 618 513 653 542 638 l 576 618 z "},"d":{"ha":779,"x_min":0,"x_max":0,"o":"m 382 708 l 150 703 l 150 0 b 202 -2 163 -1 180 -2 b 268 -3 224 -3 246 -3 b 330 -5 290 -4 311 -4 b 369 -6 349 -5 362 -6 b 614 92 476 -6 557 27 b 699 374 670 158 699 251 b 617 622 699 481 672 564 b 382 708 563 679 485 708 z m 671 372 b 593 111 671 258 645 171 b 371 21 541 51 467 21 b 336 22 364 21 353 21 b 282 23 319 22 301 22 b 224 24 263 23 243 24 b 178 26 205 25 190 25 l 178 674 b 225 675 189 674 205 674 b 288 677 245 676 266 677 b 346 678 309 678 328 678 b 381 679 363 679 375 679 b 597 601 475 679 547 653 b 671 372 646 548 671 472 z "},"e":{"ha":572,"x_min":0,"x_max":0,"o":"m 508 0 l 508 0 l 514 22 l 510 26 l 178 26 l 178 338 l 447 338 l 451 361 l 449 367 l 178 367 l 178 675 l 504 674 l 510 696 l 506 703 l 150 703 l 150 0 z "},"f":{"ha":513,"x_min":0,"x_max":0,"o":"m 169 338 l 169 338 l 426 338 l 431 360 l 426 367 l 313 365 l 169 365 l 169 675 l 483 674 l 488 696 l 485 703 l 142 703 l 142 0 l 169 0 z "},"g":{"ha":739,"x_min":0,"x_max":0,"o":"m 624 647 b 520 692 590 667 556 681 b 418 707 484 702 450 707 b 167 614 309 707 225 676 b 81 344 109 552 81 462 b 157 85 81 231 106 145 b 378 -4 208 26 281 -4 b 436 -2 398 -4 418 -3 b 491 4 455 -1 473 1 b 549 15 509 7 528 11 b 617 33 569 20 592 26 l 617 293 l 589 290 l 589 53 b 526 37 566 46 545 41 b 475 27 508 33 491 29 b 428 22 459 25 444 23 b 378 21 412 21 395 21 b 178 104 291 21 224 49 b 110 343 133 160 110 239 b 189 593 110 452 136 536 b 418 679 242 650 318 679 b 511 665 448 679 479 674 b 608 622 544 655 576 641 l 615 622 z "},"h":{"ha":817,"x_min":0,"x_max":0,"o":"m 178 338 l 178 338 l 639 338 l 639 0 l 667 0 l 667 703 l 639 703 l 639 365 l 178 365 l 178 703 l 150 703 l 150 0 l 178 0 z "},"i":{"ha":329,"x_min":0,"x_max":0,"o":"m 178 703 l 178 703 l 150 703 l 150 0 l 178 0 z "},"j":{"ha":363,"x_min":0,"x_max":0,"o":"m 213 129 l 213 704 l 43 704 l 39 681 l 43 676 l 185 676 l 185 128 b 158 10 185 81 176 42 b 67 -85 140 -23 109 -54 l 67 -92 l 83 -107 b 183 -3 131 -74 164 -39 b 213 129 203 33 213 77 z "},"k":{"ha":635,"x_min":0,"x_max":0,"o":"m 572 -6 l 578 -8 b 590 -3 581 -6 585 -5 b 599 1 594 -2 597 0 l 600 7 b 418 186 539 64 478 124 b 247 375 358 248 301 311 l 581 703 l 540 703 l 492 650 l 211 376 l 211 372 b 386 178 267 306 325 242 b 572 -6 447 115 509 54 z m 179 0 l 179 703 l 151 703 l 151 0 z "},"l":{"ha":507,"x_min":0,"x_max":0,"o":"m 468 22 l 468 22 l 465 26 l 176 26 l 176 703 l 149 703 l 149 0 l 464 0 z "},"m":{"ha":942,"x_min":0,"x_max":0,"o":"m 163 215 l 163 215 l 211 639 l 217 639 l 453 113 l 485 113 l 725 639 l 731 639 l 781 214 l 803 0 l 831 0 l 754 703 l 722 703 l 679 606 l 471 154 l 467 154 l 268 593 l 224 703 l 190 703 l 111 0 l 140 0 z "},"n":{"ha":817,"x_min":0,"x_max":0,"o":"m 178 219 l 178 219 l 179 644 l 183 644 l 636 0 l 664 0 l 665 196 l 667 704 l 639 700 l 638 57 l 632 57 l 179 703 l 151 703 l 150 208 l 150 0 l 178 0 z "},"o":{"ha":768,"x_min":0,"x_max":0,"o":"m 378 -6 b 608 90 478 -6 554 26 b 688 363 661 153 688 244 b 611 619 688 474 662 559 b 390 708 560 678 487 708 b 160 615 289 708 213 677 b 81 349 107 553 81 464 b 158 85 81 234 106 146 b 378 -6 209 25 282 -6 z m 389 679 b 590 597 477 679 544 652 b 660 360 637 543 660 463 b 587 108 660 250 635 167 b 378 21 538 50 469 21 b 178 106 291 21 224 49 b 110 350 133 162 110 244 b 181 595 110 457 134 539 b 389 679 229 651 298 679 z "},"p":{"ha":607,"x_min":0,"x_max":0,"o":"m 178 0 l 178 267 l 278 267 b 460 328 356 267 417 287 b 524 504 502 369 524 427 b 469 652 524 568 506 617 b 315 704 433 687 382 704 l 150 703 l 150 0 z m 178 293 l 178 676 l 321 678 b 450 628 377 675 420 659 b 494 503 480 598 494 556 b 447 358 494 443 479 394 b 313 293 416 321 371 300 z "},"q":{"ha":769,"x_min":0,"x_max":0,"o":"m 444 3 b 625 115 523 16 583 53 b 688 367 667 177 688 261 b 611 622 688 477 662 562 b 390 711 560 681 487 711 b 160 618 289 711 213 680 b 81 351 107 556 81 467 b 158 88 81 237 106 149 b 378 -3 209 28 282 -3 l 394 -3 b 411 -1 400 -3 406 -2 b 613 -132 472 -54 540 -98 b 840 -199 687 -166 763 -188 l 846 -199 b 857 -181 849 -196 852 -190 l 857 -174 b 637 -115 781 -164 708 -145 b 444 3 566 -84 502 -45 z m 378 24 b 178 108 291 24 224 52 b 110 353 133 165 110 246 b 181 598 110 460 134 542 b 389 682 229 654 298 682 b 590 600 477 682 544 655 b 660 363 637 545 660 466 b 587 111 660 253 635 169 b 378 24 538 53 469 24 z "},"r":{"ha":647,"x_min":0,"x_max":0,"o":"m 178 0 l 178 267 l 329 267 b 424 125 362 217 393 169 b 535 -4 455 81 492 38 l 544 -8 b 553 -2 547 -6 550 -4 b 563 4 556 0 559 2 l 561 10 b 451 136 519 53 483 95 b 358 272 420 177 389 222 b 481 360 412 289 453 318 b 524 501 509 401 524 449 b 469 650 524 564 506 614 b 315 704 433 686 382 704 l 150 703 l 150 0 z m 178 294 l 178 676 l 321 678 b 450 626 377 675 420 658 b 494 500 480 595 494 553 b 454 369 494 450 481 406 b 338 293 427 331 388 306 z "},"s":{"ha":561,"x_min":0,"x_max":0,"o":"m 474 181 b 448 266 474 215 465 243 b 384 324 431 289 409 308 b 301 368 359 341 331 355 b 219 409 272 381 244 395 b 155 458 193 423 172 440 b 129 528 138 477 129 500 b 141 581 129 545 133 563 b 175 628 149 598 160 614 b 230 664 190 643 208 655 b 306 678 252 673 277 678 b 367 671 324 678 345 675 b 436 646 390 666 413 658 l 444 647 l 450 674 b 373 699 423 687 397 695 b 308 706 348 703 327 706 b 224 692 278 706 250 701 b 159 654 199 682 177 670 b 117 599 141 638 127 620 b 101 531 106 577 101 555 b 127 447 101 497 110 469 b 191 390 144 425 166 406 b 274 347 216 373 244 359 b 356 305 303 334 331 320 b 420 253 382 290 403 272 b 446 179 437 233 446 209 b 433 122 446 160 441 141 b 396 72 424 103 412 86 b 338 36 380 57 361 45 b 260 22 314 27 288 22 b 174 35 233 22 204 27 b 93 75 144 44 117 57 l 86 74 l 85 47 b 169 8 110 30 138 17 b 260 -4 201 0 231 -4 b 347 11 291 -4 320 1 b 414 51 373 21 395 35 b 458 110 432 68 447 88 b 474 181 468 132 474 156 z "},"t":{"ha":594,"x_min":0,"x_max":0,"o":"m 182 675 l 182 675 l 285 675 l 285 0 l 313 0 l 313 675 l 418 675 l 533 674 l 538 696 l 535 703 l 63 703 l 58 679 l 63 674 z "},"u":{"ha":751,"x_min":0,"x_max":0,"o":"m 375 -4 b 564 63 456 -4 519 18 b 628 251 608 107 630 170 l 628 703 l 600 703 l 600 253 b 542 81 600 178 581 121 b 375 22 504 42 448 22 b 208 81 302 22 246 42 b 151 253 169 121 150 178 l 154 703 l 125 703 l 125 354 l 124 251 b 186 62 122 169 143 106 b 375 -4 230 18 293 -4 z "},"v":{"ha":668,"x_min":0,"x_max":0,"o":"m 342 0 l 342 0 l 629 703 l 597 703 l 581 653 l 331 43 l 326 43 l 96 653 l 81 703 l 49 703 l 313 0 z "},"w":{"ha":1060,"x_min":0,"x_max":0,"o":"m 340 0 l 340 0 l 531 474 l 535 474 l 710 0 l 739 0 l 1019 703 l 989 703 l 972 653 l 728 44 l 722 44 l 497 651 l 482 703 l 451 703 l 519 519 l 329 44 l 325 44 l 99 653 l 85 703 l 53 703 l 311 0 z "},"x":{"ha":700,"x_min":0,"x_max":0,"o":"m 100 0 l 100 0 l 125 42 l 342 328 l 557 43 l 585 0 l 622 0 l 360 350 l 601 703 l 564 703 l 538 657 l 342 374 l 143 663 l 118 703 l 79 703 l 324 350 l 64 0 z "},"y":{"ha":621,"x_min":0,"x_max":0,"o":"m 286 0 l 286 0 l 314 0 l 314 258 l 563 703 l 528 703 l 514 672 l 303 303 l 297 303 l 103 672 l 90 703 l 56 703 l 286 260 z "},"z":{"ha":632,"x_min":0,"x_max":0,"o":"m 540 0 l 540 0 l 544 22 l 539 28 l 460 26 l 89 26 l 542 678 l 542 704 l 499 703 l 153 703 l 76 704 l 72 679 l 76 674 l 144 675 l 504 675 l 51 22 l 51 -1 l 94 0 z "},"{":{"ha":0,"x_min":0,"x_max":0,"o":""},"|":{"ha":444,"x_min":0,"x_max":0,"o":"m 236 -368 l 236 1096 l 233 1099 l 208 1096 l 208 -362 l 213 -368 z "},"}":{"ha":0,"x_min":0,"x_max":0,"o":""},"~":{"ha":667,"x_min":0,"x_max":0,"o":"m 204 388 b 256 378 215 388 232 384 b 330 358 279 372 303 366 b 408 337 356 351 382 344 b 469 325 433 330 454 326 l 478 328 l 568 403 l 568 408 l 558 422 l 550 422 b 496 375 527 402 509 386 b 463 358 483 364 472 358 b 411 367 451 358 434 361 b 336 386 388 372 363 379 b 258 408 309 394 283 401 b 196 421 232 415 212 419 l 188 417 l 99 343 l 99 336 l 108 324 l 117 324 b 171 370 140 343 158 359 b 204 388 184 382 195 388 z "}," ":{"ha":119,"x_min":0,"x_max":0,"o":"m 19 1065 l 19 922 l 103 922 l 103 1065 z "},"¡":{"ha":343,"x_min":0,"x_max":0,"o":"m 181 582 b 208 610 199 582 208 591 b 181 638 208 628 199 638 b 153 610 162 638 153 628 b 181 582 153 591 162 582 z m 154 360 l 143 -269 l 147 -274 l 167 -274 l 171 -269 l 182 353 l 176 360 z "},"¢":{"ha":533,"x_min":0,"x_max":0,"o":"m 499 117 l 501 142 l 493 144 b 410 101 469 126 441 111 b 317 85 378 90 347 85 l 300 85 l 350 668 b 420 649 374 664 397 658 b 478 617 443 639 462 629 l 486 617 l 496 640 b 431 676 477 654 456 666 b 353 696 406 685 380 692 l 369 896 l 364 903 l 342 903 l 324 699 l 317 699 b 216 676 280 699 246 691 b 138 610 186 660 160 638 b 88 507 116 581 100 547 b 71 372 77 467 71 422 b 124 162 71 287 89 217 b 269 61 160 107 208 73 l 251 -153 l 257 -158 l 278 -158 l 297 57 l 315 57 b 415 74 350 57 383 63 b 499 117 447 85 475 99 z m 99 372 b 158 590 99 464 118 537 b 317 671 197 644 250 671 l 321 671 l 272 89 b 145 182 219 101 176 132 b 99 372 114 232 99 295 z "},"£":{"ha":533,"x_min":0,"x_max":0,"o":"m 476 0 l 481 22 l 475 29 l 379 28 l 118 28 l 118 31 b 174 181 155 62 174 112 l 174 428 l 347 428 l 351 450 l 347 456 l 174 456 l 174 621 b 209 749 174 676 185 719 b 322 793 233 778 270 793 b 385 787 342 793 363 791 b 449 765 407 783 428 775 l 453 768 l 456 794 b 382 815 430 804 405 810 b 318 821 359 819 338 821 b 189 769 261 821 218 804 b 146 621 160 735 146 686 l 146 456 l 51 456 l 47 433 l 53 428 l 146 428 l 146 181 b 121 72 146 134 138 98 b 49 25 104 45 80 30 l 44 6 l 50 0 z "},"¤":{"ha":0,"x_min":0,"x_max":0,"o":""},"¥":{"ha":603,"x_min":0,"x_max":0,"o":"m 581 204 l 576 208 l 314 208 l 314 258 l 374 361 l 578 361 l 581 385 l 576 389 l 390 389 l 563 682 l 528 682 l 514 653 l 303 301 l 297 301 l 103 653 l 90 682 l 56 682 l 215 389 l 25 389 l 22 365 l 26 361 l 231 361 l 286 260 l 286 208 l 25 208 l 22 185 l 26 181 l 286 181 l 286 0 l 314 0 l 314 181 l 578 181 z "},"¦":{"ha":444,"x_min":0,"x_max":0,"o":"m 236 511 l 236 1096 l 233 1099 l 208 1096 l 208 513 l 213 508 z m 236 -368 l 236 215 l 232 222 l 208 218 l 208 -362 l 213 -368 z "},"§":{"ha":0,"x_min":0,"x_max":0,"o":""},"¨":{"ha":542,"x_min":0,"x_max":0,"o":"m 172 854 b 144 826 154 854 144 845 b 172 799 144 808 154 799 b 200 826 191 799 200 808 b 172 854 200 845 191 854 z m 367 854 b 339 826 348 854 339 845 b 367 799 339 808 348 799 b 394 826 385 799 394 808 b 367 854 394 845 385 854 z "},"©":{"ha":947,"x_min":0,"x_max":0,"o":"m 878 354 b 849 533 878 420 868 480 b 766 671 829 587 802 633 b 638 759 730 709 688 738 b 472 790 589 780 533 790 b 306 759 411 790 356 780 b 179 671 257 738 214 709 b 97 533 144 633 117 587 b 68 354 78 480 68 420 b 97 176 68 288 78 229 b 179 38 117 122 144 77 b 306 -51 214 0 257 -30 b 472 -82 356 -72 411 -82 b 638 -51 533 -82 589 -72 b 766 38 688 -30 730 0 b 849 176 802 77 829 122 b 878 354 868 229 878 288 z m 472 -53 b 318 -24 416 -53 364 -43 b 199 59 272 -4 232 23 b 123 188 166 95 141 138 b 96 354 105 238 96 293 b 123 521 96 415 105 471 b 199 650 141 571 166 614 b 318 733 232 686 272 714 b 472 763 364 753 416 763 b 626 733 529 763 580 753 b 746 650 673 714 713 686 b 823 521 779 614 805 571 b 850 354 841 471 850 415 b 823 188 850 293 841 238 b 746 59 805 138 779 95 b 626 -24 713 23 673 -4 b 472 -53 580 -43 529 -53 z m 485 572 b 550 563 507 572 529 569 b 607 533 571 556 590 546 l 614 533 l 621 560 b 556 590 601 573 580 583 b 485 601 533 598 509 601 b 330 538 417 601 366 580 b 276 357 294 496 276 436 b 327 176 276 278 293 218 b 476 114 361 135 411 114 b 549 127 500 114 525 118 b 618 160 574 136 597 147 l 621 188 l 615 189 b 549 154 595 173 573 162 b 478 143 525 147 501 143 b 349 198 422 143 379 161 b 304 357 319 234 304 288 b 351 517 304 426 320 480 b 485 572 382 554 426 572 z "},"ª":{"ha":411,"x_min":0,"x_max":0,"o":"m 207 894 b 67 835 161 894 114 875 l 72 814 l 78 813 b 204 868 123 850 165 868 b 292 786 263 868 292 841 l 289 704 l 133 671 b 76 640 109 665 90 655 b 56 583 63 625 56 606 b 83 508 56 551 65 526 b 163 482 102 491 128 482 b 224 501 183 483 203 489 b 281 550 244 513 263 530 l 283 550 b 298 499 284 526 289 509 b 336 483 307 488 319 483 b 381 496 353 483 368 488 l 385 518 l 379 521 b 343 508 368 513 356 508 b 311 557 322 508 311 525 b 313 600 311 563 312 577 b 315 674 313 623 314 648 b 318 749 316 701 317 725 b 319 792 319 772 319 786 b 290 867 319 824 310 849 b 207 894 271 885 243 894 z m 143 649 l 288 682 l 283 582 b 224 526 265 558 245 539 b 165 507 203 513 184 507 b 106 528 139 507 119 514 b 85 585 92 542 85 561 b 143 649 85 619 104 640 z "},"«":{"ha":493,"x_min":0,"x_max":0,"o":"m 42 317 l 42 301 l 257 69 l 274 82 l 274 90 l 72 310 l 274 529 l 274 538 l 257 550 z m 244 317 l 244 301 l 460 69 l 476 82 l 476 90 l 275 310 l 476 529 l 476 538 l 460 550 z "},"¬":{"ha":667,"x_min":0,"x_max":0,"o":"m 578 99 l 578 381 l 569 389 l 51 389 l 49 365 l 53 361 l 550 361 l 550 100 l 554 96 z "},"­":{"ha":432,"x_min":0,"x_max":0,"o":"m 389 363 l 389 385 l 383 390 l 43 344 l 43 322 l 49 317 z "},"®":{"ha":600,"x_min":0,"x_max":0,"o":"m 247 411 l 246 497 l 246 515 l 294 515 b 328 463 306 498 317 480 b 365 410 340 446 352 428 l 369 407 b 384 409 373 408 378 409 b 399 413 390 409 395 411 l 399 417 b 360 469 385 434 372 452 b 325 521 348 486 336 503 b 367 556 344 529 358 541 b 382 607 377 572 382 588 b 299 686 382 660 354 686 l 217 686 l 217 411 z m 246 544 l 247 658 l 292 660 b 351 604 331 658 351 639 b 301 542 351 574 335 553 z m 297 286 b 475 355 371 286 431 309 b 542 539 519 401 542 462 b 524 642 542 577 536 611 b 475 722 513 673 496 700 b 398 772 454 743 428 760 b 297 790 368 784 334 790 b 197 772 260 790 227 784 b 119 722 166 760 141 743 b 69 642 97 700 80 673 b 51 539 57 611 51 577 b 118 355 51 462 74 401 b 297 286 163 309 222 286 z m 297 764 b 456 703 363 764 416 744 b 515 539 495 662 515 607 b 456 374 515 470 495 416 b 297 313 416 333 363 313 b 138 374 231 313 177 333 b 78 539 98 416 78 470 b 138 703 78 607 98 662 b 297 764 177 744 231 764 z "},"¯":{"ha":542,"x_min":0,"x_max":0,"o":"m 471 815 l 474 839 l 469 843 l 71 843 l 68 819 l 72 815 z "},"°":{"ha":408,"x_min":0,"x_max":0,"o":"m 204 892 b 138 878 180 892 158 887 b 84 843 117 870 99 858 b 48 790 69 828 57 811 b 35 725 39 770 35 748 b 48 660 35 702 39 680 b 84 607 57 639 69 622 b 138 572 99 592 117 581 b 204 560 158 564 180 560 b 269 572 227 560 249 564 b 323 607 290 581 308 592 b 359 660 338 622 350 639 b 372 725 368 680 372 702 b 359 790 372 748 368 770 b 323 843 350 811 338 828 b 269 878 308 858 290 870 b 204 892 249 887 227 892 z m 204 864 b 258 853 223 864 241 860 b 303 823 275 845 290 835 b 333 778 316 810 326 796 b 344 725 341 761 344 744 b 333 672 344 706 341 689 b 303 628 326 656 316 641 b 258 599 290 616 275 606 b 204 588 241 591 223 588 b 151 599 186 588 168 591 b 106 628 134 606 119 616 b 74 672 93 641 82 656 b 63 725 66 689 63 706 b 74 778 63 744 66 761 b 106 823 82 796 93 810 b 151 853 119 835 134 845 b 204 864 168 860 186 864 z "},"±":{"ha":667,"x_min":0,"x_max":0,"o":"m 347 389 l 347 650 l 343 654 l 319 651 l 319 389 l 57 389 l 54 365 l 58 361 l 319 361 l 319 100 l 324 96 l 347 99 l 347 361 l 610 361 l 613 385 l 608 389 z m 610 -90 l 613 -67 l 608 -62 l 57 -62 l 54 -86 l 58 -90 z "},"²":{"ha":467,"x_min":0,"x_max":0,"o":"m 233 975 b 144 953 201 975 171 968 b 72 893 116 938 93 918 l 78 869 l 82 869 b 151 928 102 894 125 914 b 231 949 176 942 203 949 b 304 924 263 949 288 941 b 329 867 321 908 329 889 b 298 781 329 841 319 812 b 210 664 277 750 248 711 l 61 482 l 61 461 l 64 458 l 104 460 l 339 460 l 429 458 l 433 482 l 431 488 l 346 486 l 103 486 l 100 489 l 231 650 b 326 776 272 700 304 742 b 358 871 347 809 358 841 b 324 946 358 901 347 926 b 233 975 300 965 270 975 z "},"³":{"ha":407,"x_min":0,"x_max":0,"o":"m 181 976 b 49 919 134 976 90 957 l 54 896 l 58 896 b 178 950 98 932 138 950 b 249 927 207 950 231 942 b 276 867 267 912 276 892 b 264 818 276 849 272 833 b 232 780 256 803 245 791 b 190 755 219 769 205 761 b 146 746 174 749 160 746 l 106 746 l 104 725 l 107 722 l 153 722 b 265 690 202 720 239 710 b 304 608 291 671 304 644 b 258 517 304 569 289 539 b 138 483 228 494 188 483 b 97 485 125 483 112 484 b 54 490 81 487 67 488 l 51 488 l 54 465 b 97 459 67 463 81 460 b 138 457 112 458 125 457 b 278 499 196 457 243 471 b 332 608 314 528 332 564 b 300 692 332 642 321 669 b 208 738 279 714 248 729 l 208 740 b 279 796 238 753 262 772 b 306 871 297 820 306 845 b 271 948 306 903 294 929 b 181 976 248 967 218 976 z "},"´":{"ha":542,"x_min":0,"x_max":0,"o":"m 383 914 l 369 928 l 363 929 b 257 825 325 890 289 856 b 160 739 225 794 192 766 l 175 721 l 182 719 b 283 811 217 750 251 781 b 382 907 316 842 349 874 z "},"µ":{"ha":0,"x_min":0,"x_max":0,"o":""},"¶":{"ha":0,"x_min":0,"x_max":0,"o":""},"·":{"ha":319,"x_min":0,"x_max":0,"o":"m 160 358 b 132 331 141 358 132 349 b 160 303 132 312 141 303 b 188 331 178 303 188 312 b 160 358 188 349 178 358 z "},"¸":{"ha":1157,"x_min":0,"x_max":0,"o":""},"¹":{"ha":333,"x_min":0,"x_max":0,"o":"m 192 460 l 192 974 l 188 979 l 22 931 l 22 908 l 28 906 l 164 943 l 164 460 z "},"º":{"ha":457,"x_min":0,"x_max":0,"o":"m 232 894 b 101 839 176 894 133 876 b 54 683 70 802 54 750 b 99 534 54 619 69 570 b 225 481 129 498 171 481 b 356 536 281 481 324 499 b 403 692 387 573 403 625 b 358 841 403 756 388 805 b 232 894 328 877 286 894 z m 231 868 b 335 822 275 868 310 853 b 374 690 361 791 374 747 b 335 555 374 632 361 587 b 225 507 309 523 272 507 b 121 553 181 507 146 522 b 83 685 96 584 83 628 b 122 820 83 743 96 788 b 231 868 148 852 184 868 z "},"»":{"ha":493,"x_min":0,"x_max":0,"o":"m 254 303 l 254 318 l 39 550 l 22 538 l 22 529 l 224 310 l 22 90 l 22 82 l 39 69 z m 457 303 l 457 318 l 242 550 l 225 538 l 225 529 l 426 310 l 225 90 l 225 82 l 242 69 z "},"¼":{"ha":911,"x_min":0,"x_max":0,"o":"m 60 -125 l 733 911 l 729 922 l 715 929 l 42 -107 l 47 -119 z m 28 818 l 164 856 l 164 372 l 192 372 l 192 886 l 188 892 l 22 843 l 22 821 z m 851 164 l 856 186 l 851 190 l 756 190 l 756 513 l 729 513 l 488 189 l 488 168 l 492 164 l 535 165 l 729 165 l 729 0 l 732 -3 l 754 0 l 757 3 l 756 165 l 782 165 z m 729 468 l 729 190 l 518 190 l 725 468 z "},"½":{"ha":913,"x_min":0,"x_max":0,"o":"m 733 911 l 729 922 l 715 929 l 42 -107 l 47 -119 l 60 -125 z m 192 372 l 192 886 l 188 892 l 22 843 l 22 821 l 28 818 l 164 856 l 164 372 z m 679 515 b 590 493 647 515 617 508 b 518 433 562 478 538 458 l 524 410 l 528 410 b 597 468 548 435 571 454 b 676 489 622 482 649 489 b 750 465 709 489 733 481 b 775 407 767 448 775 429 b 744 322 775 381 765 353 b 656 204 723 291 694 251 l 507 22 l 507 1 l 510 -1 l 550 0 l 785 0 l 875 -1 l 879 22 l 876 28 l 792 26 l 549 26 l 546 29 l 676 190 b 772 316 718 240 750 282 b 804 411 793 350 804 381 b 769 486 804 442 793 467 b 679 515 746 506 716 515 z "},"¾":{"ha":957,"x_min":0,"x_max":0,"o":"m 106 -125 l 779 911 l 775 922 l 761 929 l 88 -107 l 93 -119 z m 332 521 b 300 604 332 554 321 582 b 208 650 279 626 248 642 l 208 653 b 279 708 238 666 262 684 b 306 783 297 732 306 757 b 271 860 306 816 294 841 b 181 889 248 879 218 889 b 49 832 134 889 90 870 l 54 808 l 58 808 b 178 863 98 844 138 863 b 249 840 207 863 231 855 b 276 779 267 824 276 804 b 264 731 276 762 272 745 b 232 692 256 716 245 703 b 190 667 219 682 205 673 b 146 658 174 661 160 658 l 106 658 l 104 638 l 107 635 l 153 635 b 265 603 202 633 239 622 b 304 521 291 583 304 556 b 258 429 304 482 289 451 b 138 396 228 407 188 396 b 97 398 125 396 112 397 b 54 403 81 399 67 401 l 51 400 l 54 378 b 97 372 67 375 81 373 b 138 369 112 370 125 369 b 278 412 196 369 243 384 b 332 521 314 440 332 476 z m 897 164 l 901 186 l 897 190 l 801 190 l 801 513 l 775 513 l 533 189 l 533 168 l 538 164 l 581 165 l 775 165 l 775 0 l 778 -3 l 800 0 l 803 3 l 801 165 l 828 165 z m 775 468 l 775 190 l 564 190 l 771 468 z "},"À":{"ha":769,"x_min":0,"x_max":0,"o":"m 497 1008 l 504 1013 l 514 1033 b 398 1092 476 1052 437 1072 b 269 1164 359 1113 316 1137 l 263 1161 l 253 1144 l 256 1138 b 376 1071 297 1113 338 1091 b 497 1008 415 1050 456 1030 z m 699 0 l 731 0 l 407 885 l 379 885 l 26 0 l 60 0 l 79 60 l 174 296 l 593 296 l 681 60 z m 394 838 l 583 324 l 185 324 l 389 838 z "},"Á":{"ha":769,"x_min":0,"x_max":0,"o":"m 699 0 l 731 0 l 407 885 l 379 885 l 26 0 l 60 0 l 79 60 l 174 296 l 593 296 l 681 60 z m 394 838 l 583 324 l 185 324 l 389 838 z m 496 1171 l 482 1185 l 475 1186 b 369 1082 437 1147 402 1113 b 272 996 337 1051 305 1023 l 288 978 l 294 976 b 396 1068 330 1007 363 1038 b 494 1164 428 1099 461 1131 z "},"Â":{"ha":769,"x_min":0,"x_max":0,"o":"m 236 1044 l 246 1025 l 253 1025 b 320 1073 276 1041 298 1057 b 385 1122 342 1089 363 1106 b 449 1073 406 1106 428 1089 b 517 1025 471 1057 494 1041 l 524 1025 l 533 1044 b 463 1096 509 1061 486 1078 b 394 1150 441 1113 418 1131 l 372 1150 b 306 1096 351 1131 329 1113 b 236 1044 284 1078 260 1061 z m 699 0 l 731 0 l 407 885 l 379 885 l 26 0 l 60 0 l 79 60 l 174 296 l 593 296 l 681 60 z m 394 838 l 583 324 l 185 324 l 389 838 z "},"Ã":{"ha":769,"x_min":0,"x_max":0,"o":"m 699 0 l 731 0 l 407 885 l 379 885 l 26 0 l 60 0 l 79 60 l 174 296 l 593 296 l 681 60 z m 394 838 l 583 324 l 185 324 l 389 838 z "},"Ä":{"ha":769,"x_min":0,"x_max":0,"o":"m 288 1056 b 315 1083 306 1056 315 1065 b 288 1111 315 1102 306 1111 b 260 1083 269 1111 260 1102 b 288 1056 260 1065 269 1056 z m 482 1056 b 510 1083 500 1056 510 1065 b 482 1111 510 1102 500 1111 b 454 1083 463 1111 454 1102 b 482 1056 454 1065 463 1056 z m 699 0 l 731 0 l 407 885 l 379 885 l 26 0 l 60 0 l 79 60 l 174 296 l 593 296 l 681 60 z m 394 838 l 583 324 l 185 324 l 389 838 z "},"Å":{"ha":769,"x_min":0,"x_max":0,"o":"m 699 0 l 731 0 l 407 885 l 379 885 l 26 0 l 60 0 l 79 60 l 174 296 l 593 296 l 681 60 z m 394 838 l 583 324 l 185 324 l 389 838 z m 383 1185 b 313 1157 354 1185 330 1175 b 286 1089 295 1138 286 1116 b 317 1017 286 1058 296 1034 b 383 992 337 1000 359 992 b 451 1017 407 992 430 1000 b 482 1088 472 1033 482 1057 b 457 1154 482 1112 474 1134 b 383 1185 440 1175 416 1185 z m 383 1157 b 437 1136 407 1157 425 1150 b 454 1088 448 1122 454 1106 b 433 1037 454 1065 447 1048 b 383 1019 418 1025 402 1019 b 335 1038 365 1019 349 1025 b 314 1089 321 1050 314 1067 b 333 1138 314 1109 320 1126 b 383 1157 345 1151 362 1157 z "},"Æ":{"ha":1099,"x_min":0,"x_max":0,"o":"m 1058 0 l 1064 22 l 1061 28 l 663 28 l 599 408 l 922 461 l 926 485 l 922 489 l 594 435 l 524 857 l 906 857 l 913 879 l 908 885 l 490 885 l -21 0 l 17 0 l 46 60 l 208 343 l 571 403 l 629 60 l 636 0 z m 497 836 l 567 431 l 228 375 l 493 836 z "},"Ç":{"ha":726,"x_min":0,"x_max":0,"o":"m 679 86 l 682 111 l 672 114 b 551 45 635 84 595 61 b 418 21 507 29 463 21 b 178 128 313 21 233 57 b 94 439 122 200 94 304 b 181 753 94 576 123 681 b 435 863 239 826 324 863 b 555 842 476 863 516 856 b 660 785 593 829 628 810 l 669 785 l 679 808 b 565 869 645 835 607 856 b 435 890 522 883 479 890 b 161 774 315 890 224 852 b 67 440 98 697 67 586 b 156 110 67 297 96 187 b 413 -7 215 34 300 -5 l 385 -89 l 446 -128 b 470 -148 456 -135 464 -142 b 479 -174 476 -154 479 -162 b 464 -208 479 -188 474 -200 b 424 -219 454 -216 440 -219 b 383 -208 406 -219 392 -216 b 356 -176 373 -200 364 -189 l 350 -176 l 342 -201 b 372 -232 349 -212 359 -222 b 424 -247 385 -242 402 -247 b 482 -228 446 -247 465 -241 b 507 -174 499 -215 507 -197 b 496 -135 507 -158 503 -145 b 461 -104 488 -125 477 -114 l 418 -76 l 440 -7 b 564 21 482 -4 523 5 b 679 86 605 37 643 58 z "},"È":{"ha":631,"x_min":0,"x_max":0,"o":"m 482 1008 l 489 1013 l 499 1033 b 383 1092 461 1052 422 1072 b 254 1164 343 1113 300 1137 l 247 1161 l 238 1144 l 240 1138 b 361 1071 282 1113 322 1091 b 482 1008 400 1050 440 1030 z m 585 0 l 590 22 l 586 28 l 181 28 l 181 444 l 510 444 l 515 467 l 511 472 l 181 472 l 181 857 l 579 857 l 585 879 l 581 885 l 153 885 l 153 0 z "},"É":{"ha":631,"x_min":0,"x_max":0,"o":"m 283 1031 l 293 1010 l 300 1006 b 421 1068 342 1027 382 1048 b 542 1135 460 1088 500 1111 l 544 1142 l 535 1158 l 528 1161 b 399 1090 481 1134 439 1110 b 283 1031 360 1069 321 1049 z m 585 0 l 590 22 l 586 28 l 181 28 l 181 444 l 510 444 l 515 467 l 511 472 l 181 472 l 181 857 l 579 857 l 585 879 l 581 885 l 153 885 l 153 0 z "},"Ê":{"ha":631,"x_min":0,"x_max":0,"o":"m 221 1044 l 231 1025 l 238 1025 b 305 1073 261 1041 283 1057 b 369 1122 327 1089 348 1106 b 434 1073 391 1106 412 1089 b 501 1025 456 1057 478 1041 l 508 1025 l 518 1044 b 448 1096 494 1061 471 1078 b 379 1150 425 1113 402 1131 l 357 1150 b 291 1096 336 1131 314 1113 b 221 1044 268 1078 245 1061 z m 585 0 l 590 22 l 586 28 l 181 28 l 181 444 l 510 444 l 515 467 l 511 472 l 181 472 l 181 857 l 579 857 l 585 879 l 581 885 l 153 885 l 153 0 z "},"Ë":{"ha":631,"x_min":0,"x_max":0,"o":"m 272 1056 b 300 1083 291 1056 300 1065 b 272 1111 300 1102 291 1111 b 244 1083 254 1111 244 1102 b 272 1056 244 1065 254 1056 z m 467 1056 b 494 1083 485 1056 494 1065 b 467 1111 494 1102 485 1111 b 439 1083 448 1111 439 1102 b 467 1056 439 1065 448 1056 z m 585 0 l 590 22 l 586 28 l 181 28 l 181 444 l 510 444 l 515 467 l 511 472 l 181 472 l 181 857 l 579 857 l 585 879 l 581 885 l 153 885 l 153 0 z "},"Ì":{"ha":333,"x_min":0,"x_max":0,"o":"m 51 1164 l 44 1161 l 35 1144 l 38 1138 b 158 1071 79 1113 119 1091 b 279 1008 197 1050 238 1030 l 286 1013 l 296 1033 b 180 1092 258 1052 219 1072 b 51 1164 141 1113 98 1137 z m 153 0 l 181 0 l 181 885 l 153 885 z "},"Í":{"ha":333,"x_min":0,"x_max":0,"o":"m 153 0 l 181 0 l 181 885 l 153 885 z m 279 1171 l 265 1185 l 258 1186 b 153 1082 220 1147 185 1113 b 56 996 120 1051 88 1023 l 71 978 l 78 976 b 179 1068 113 1007 147 1038 b 278 1164 212 1099 244 1131 z "},"Î":{"ha":333,"x_min":0,"x_max":0,"o":"m 18 1044 l 28 1025 l 35 1025 b 102 1073 58 1041 80 1057 b 167 1122 124 1089 145 1106 b 231 1073 188 1106 209 1089 b 299 1025 253 1057 275 1041 l 306 1025 l 315 1044 b 245 1096 291 1061 268 1078 b 176 1150 222 1113 200 1131 l 154 1150 b 88 1096 133 1131 111 1113 b 18 1044 66 1078 42 1061 z m 153 0 l 181 0 l 181 885 l 153 885 z "},"Ï":{"ha":333,"x_min":0,"x_max":0,"o":"m 97 1111 b 69 1083 79 1111 69 1102 b 97 1056 69 1065 79 1056 b 125 1083 116 1056 125 1065 b 97 1111 125 1102 116 1111 z m 236 1111 b 208 1083 218 1111 208 1102 b 236 1056 208 1065 218 1056 b 264 1083 255 1056 264 1065 b 236 1111 264 1102 255 1111 z m 153 0 l 181 0 l 181 885 l 153 885 z "},"Ð":{"ha":885,"x_min":0,"x_max":0,"o":"m 432 892 l 153 885 l 153 0 b 215 -3 168 -1 188 -2 b 295 -5 241 -4 268 -4 b 371 -6 322 -5 348 -6 b 418 -7 394 -7 410 -7 b 715 116 548 -7 647 34 b 818 471 784 198 818 316 b 719 783 818 607 785 711 b 432 892 653 856 557 892 z m 418 21 b 376 22 410 21 396 21 b 310 23 356 22 334 22 b 238 25 286 23 262 24 b 181 28 215 26 195 27 l 181 857 b 240 859 194 858 214 859 b 317 861 265 859 291 860 b 388 863 343 862 366 863 b 432 864 410 864 425 864 b 698 763 548 864 636 830 b 790 471 759 695 790 598 b 694 137 790 325 758 214 b 418 21 631 59 538 21 z m 615 619 l 615 642 l 610 647 l 269 601 l 269 579 l 275 574 z "},"Ñ":{"ha":931,"x_min":0,"x_max":0,"o":"m 775 0 l 776 244 l 778 886 l 750 883 l 747 58 l 742 58 l 181 885 l 154 885 l 153 264 l 153 0 l 181 0 l 181 276 l 182 826 l 188 826 l 749 0 z "},"Ò":{"ha":871,"x_min":0,"x_max":0,"o":"m 442 892 b 163 776 320 892 228 853 b 67 440 99 698 67 587 b 160 108 67 296 98 185 b 428 -7 222 31 311 -7 b 707 113 549 -7 642 33 b 804 457 772 192 804 307 b 711 780 804 598 773 705 b 442 892 649 854 559 892 z m 442 864 b 690 759 550 864 633 829 b 776 457 748 689 776 588 b 686 133 776 316 746 208 b 428 21 626 58 540 21 b 181 129 320 21 238 57 b 94 440 123 201 94 305 b 184 755 94 577 124 682 b 442 864 244 828 330 864 z m 344 1186 l 338 1185 l 324 1171 l 325 1164 b 424 1068 358 1131 391 1099 b 525 976 456 1038 490 1007 l 532 978 l 547 996 b 450 1082 515 1023 482 1051 b 344 1186 418 1113 382 1147 z "},"Ó":{"ha":871,"x_min":0,"x_max":0,"o":"m 442 892 b 163 776 320 892 228 853 b 67 440 99 698 67 587 b 160 108 67 296 98 185 b 428 -7 222 31 311 -7 b 707 113 549 -7 642 33 b 804 457 772 192 804 307 b 711 780 804 598 773 705 b 442 892 649 854 559 892 z m 442 864 b 690 759 550 864 633 829 b 776 457 748 689 776 588 b 686 133 776 316 746 208 b 428 21 626 58 540 21 b 181 129 320 21 238 57 b 94 440 123 201 94 305 b 184 755 94 577 124 682 b 442 864 244 828 330 864 z m 547 1171 l 533 1185 l 526 1186 b 421 1082 488 1147 453 1113 b 324 996 388 1051 356 1023 l 339 978 l 346 976 b 447 1068 381 1007 415 1038 b 546 1164 480 1099 513 1131 z "},"Ô":{"ha":871,"x_min":0,"x_max":0,"o":"m 288 1044 l 297 1025 l 304 1025 b 372 1073 327 1041 350 1057 b 436 1122 393 1089 415 1106 b 501 1073 457 1106 479 1089 b 568 1025 522 1057 545 1041 l 575 1025 l 585 1044 b 515 1096 561 1061 537 1078 b 446 1150 492 1113 469 1131 l 424 1150 b 358 1096 402 1131 380 1113 b 288 1044 335 1078 312 1061 z m 442 892 b 163 776 320 892 228 853 b 67 440 99 698 67 587 b 160 108 67 296 98 185 b 428 -7 222 31 311 -7 b 707 113 549 -7 642 33 b 804 457 772 192 804 307 b 711 780 804 598 773 705 b 442 892 649 854 559 892 z m 442 864 b 690 759 550 864 633 829 b 776 457 748 689 776 588 b 686 133 776 316 746 208 b 428 21 626 58 540 21 b 181 129 320 21 238 57 b 94 440 123 201 94 305 b 184 755 94 577 124 682 b 442 864 244 828 330 864 z "},"Õ":{"ha":871,"x_min":0,"x_max":0,"o":"m 442 892 b 163 776 320 892 228 853 b 67 440 99 698 67 587 b 160 108 67 296 98 185 b 428 -7 222 31 311 -7 b 707 113 549 -7 642 33 b 804 457 772 192 804 307 b 711 780 804 598 773 705 b 442 892 649 854 559 892 z m 442 864 b 690 759 550 864 633 829 b 776 457 748 689 776 588 b 686 133 776 316 746 208 b 428 21 626 58 540 21 b 181 129 320 21 238 57 b 94 440 123 201 94 305 b 184 755 94 577 124 682 b 442 864 244 828 330 864 z "},"Ö":{"ha":871,"x_min":0,"x_max":0,"o":"m 442 892 b 163 776 320 892 228 853 b 67 440 99 698 67 587 b 160 108 67 296 98 185 b 428 -7 222 31 311 -7 b 707 113 549 -7 642 33 b 804 457 772 192 804 307 b 711 780 804 598 773 705 b 442 892 649 854 559 892 z m 442 864 b 690 759 550 864 633 829 b 776 457 748 689 776 588 b 686 133 776 316 746 208 b 428 21 626 58 540 21 b 181 129 320 21 238 57 b 94 440 123 201 94 305 b 184 755 94 577 124 682 b 442 864 244 828 330 864 z m 338 1111 b 310 1083 319 1111 310 1102 b 338 1056 310 1065 319 1056 b 365 1083 356 1056 365 1065 b 338 1111 365 1102 356 1111 z m 532 1111 b 504 1083 513 1111 504 1102 b 532 1056 504 1065 513 1056 b 560 1083 550 1056 560 1065 b 532 1111 560 1102 550 1111 z "},"×":{"ha":667,"x_min":0,"x_max":0,"o":"m 538 560 l 538 565 l 519 581 l 333 394 l 147 581 l 129 565 l 129 560 l 314 375 l 129 190 l 129 185 l 147 169 l 333 356 l 519 169 l 538 185 l 538 190 l 353 375 z "},"Ø":{"ha":871,"x_min":0,"x_max":0,"o":"m 629 847 l 688 974 l 685 981 l 663 985 l 604 860 b 442 892 557 881 503 892 b 163 776 320 892 228 853 b 67 440 99 698 67 587 b 108 198 67 345 81 264 b 229 46 136 132 176 81 l 157 -111 l 160 -117 l 182 -121 l 253 32 b 428 -7 303 6 361 -7 b 707 113 549 -7 642 33 b 804 457 772 192 804 307 b 760 700 804 553 789 634 b 629 847 730 766 687 815 z m 94 440 b 184 755 94 577 124 682 b 442 864 244 828 330 864 b 593 833 501 864 551 854 l 242 72 b 132 214 194 105 157 152 b 94 440 107 276 94 351 z m 428 21 b 265 58 365 21 311 33 l 617 821 b 736 683 669 790 709 744 b 776 457 763 622 776 547 b 686 133 776 316 746 208 b 428 21 626 58 540 21 z "},"Ù":{"ha":850,"x_min":0,"x_max":0,"o":"m 315 1164 l 308 1161 l 299 1144 l 301 1138 b 422 1071 343 1113 383 1091 b 543 1008 461 1050 501 1030 l 550 1013 l 560 1033 b 444 1092 522 1052 483 1072 b 315 1164 404 1113 362 1137 z m 731 318 l 731 885 l 703 885 l 703 318 b 631 99 703 223 679 150 b 425 22 584 48 515 22 b 217 99 334 22 265 48 b 147 318 170 150 146 223 l 147 885 l 119 885 l 119 318 b 197 78 119 213 145 133 b 425 -6 249 22 325 -6 b 654 79 524 -6 600 23 b 731 318 708 136 733 215 z "},"Ú":{"ha":850,"x_min":0,"x_max":0,"o":"m 731 318 l 731 885 l 703 885 l 703 318 b 631 99 703 223 679 150 b 425 22 584 48 515 22 b 217 99 334 22 265 48 b 147 318 170 150 146 223 l 147 885 l 119 885 l 119 318 b 197 78 119 213 145 133 b 425 -6 249 22 325 -6 b 654 79 524 -6 600 23 b 731 318 708 136 733 215 z m 536 1171 l 522 1185 l 515 1186 b 410 1082 477 1147 442 1113 b 313 996 377 1051 345 1023 l 328 978 l 335 976 b 436 1068 370 1007 404 1038 b 535 1164 469 1099 501 1131 z "},"Û":{"ha":850,"x_min":0,"x_max":0,"o":"m 282 1044 l 292 1025 l 299 1025 b 366 1073 322 1041 344 1057 b 431 1122 388 1089 409 1106 b 495 1073 452 1106 473 1089 b 563 1025 517 1057 539 1041 l 569 1025 l 579 1044 b 509 1096 555 1061 532 1078 b 440 1150 486 1113 463 1131 l 418 1150 b 352 1096 397 1131 375 1113 b 282 1044 329 1078 306 1061 z m 731 318 l 731 885 l 703 885 l 703 318 b 631 99 703 223 679 150 b 425 22 584 48 515 22 b 217 99 334 22 265 48 b 147 318 170 150 146 223 l 147 885 l 119 885 l 119 318 b 197 78 119 213 145 133 b 425 -6 249 22 325 -6 b 654 79 524 -6 600 23 b 731 318 708 136 733 215 z "},"Ü":{"ha":850,"x_min":0,"x_max":0,"o":"m 333 1111 b 306 1083 315 1111 306 1102 b 333 1056 306 1065 315 1056 b 361 1083 352 1056 361 1065 b 333 1111 361 1102 352 1111 z m 528 1111 b 500 1083 509 1111 500 1102 b 528 1056 500 1065 509 1056 b 556 1083 546 1056 556 1065 b 528 1111 556 1102 546 1111 z m 731 318 l 731 885 l 703 885 l 703 318 b 631 99 703 223 679 150 b 425 22 584 48 515 22 b 217 99 334 22 265 48 b 147 318 170 150 146 223 l 147 885 l 119 885 l 119 318 b 197 78 119 213 145 133 b 425 -6 249 22 325 -6 b 654 79 524 -6 600 23 b 731 318 708 136 733 215 z "},"Ý":{"ha":688,"x_min":0,"x_max":0,"o":"m 344 0 l 344 340 l 647 885 l 611 885 l 596 849 l 335 385 l 328 385 l 88 849 l 72 885 l 36 885 l 317 342 l 317 0 z m 456 1171 l 442 1185 l 435 1186 b 329 1082 397 1147 362 1113 b 232 996 297 1051 264 1023 l 247 978 l 254 976 b 356 1068 289 1007 323 1038 b 454 1164 388 1099 421 1131 z "},"Þ":{"ha":0,"x_min":0,"x_max":0,"o":""},"ß":{"ha":1157,"x_min":0,"x_max":0,"o":""},"à":{"ha":686,"x_min":0,"x_max":0,"o":"m 96 50 l 79 0 l 47 0 l 335 703 l 364 703 l 550 206 l 628 0 l 596 0 l 582 50 l 526 196 l 156 196 z m 346 660 l 167 224 l 515 224 l 350 660 z m 443 747 l 450 750 l 460 768 b 373 813 430 783 401 798 b 276 867 345 827 313 845 l 269 865 l 260 850 l 264 843 b 353 793 295 825 325 808 b 443 747 381 778 411 763 z "},"á":{"ha":686,"x_min":0,"x_max":0,"o":"m 596 0 l 628 0 l 364 682 l 335 682 l 47 0 l 79 0 l 96 49 l 169 224 l 514 224 l 582 49 z m 350 640 l 503 250 l 181 250 l 346 640 z m 454 914 l 440 928 l 433 929 b 328 825 395 890 360 856 b 231 739 295 794 263 766 l 246 721 l 253 719 b 354 811 288 750 322 781 b 453 907 387 842 419 874 z "},"â":{"ha":686,"x_min":0,"x_max":0,"o":"m 79 0 l 96 50 l 156 196 l 526 196 l 582 50 l 596 0 l 628 0 l 550 206 l 364 703 l 335 703 l 47 0 z m 167 224 l 346 660 l 350 660 l 517 224 z m 347 842 l 351 842 b 394 806 365 830 380 818 b 435 772 407 795 421 784 b 479 739 450 760 464 749 l 485 740 l 496 757 b 452 791 483 767 468 778 b 407 828 436 803 421 816 b 358 869 390 842 374 856 l 340 869 b 290 826 324 855 307 840 b 245 790 276 814 261 802 b 203 757 229 777 215 766 l 214 740 l 221 739 b 263 772 234 749 248 760 b 304 806 277 784 291 795 b 347 842 319 818 333 830 z "},"ã":{"ha":686,"x_min":0,"x_max":0,"o":"m 596 0 l 628 0 l 364 682 l 335 682 l 47 0 l 79 0 l 96 49 l 169 224 l 514 224 l 582 49 z m 350 640 l 503 250 l 181 250 l 346 640 z "},"ä":{"ha":686,"x_min":0,"x_max":0,"o":"m 96 50 l 79 0 l 47 0 l 335 703 l 364 703 l 550 206 l 628 0 l 596 0 l 582 50 l 526 196 l 156 196 z m 346 660 l 167 224 l 517 224 l 350 660 z m 224 815 b 251 788 224 797 233 788 b 279 815 270 788 279 797 b 251 843 279 834 270 843 b 224 815 233 843 224 834 z m 418 815 b 446 788 418 797 427 788 b 474 815 464 788 474 797 b 446 843 474 834 464 843 b 418 815 427 843 418 834 z "},"å":{"ha":686,"x_min":0,"x_max":0,"o":"m 596 0 l 628 0 l 364 682 l 335 682 l 47 0 l 79 0 l 96 49 l 169 224 l 514 224 l 582 49 z m 350 640 l 503 250 l 181 250 l 346 640 z m 342 928 b 271 900 312 928 288 919 b 244 832 253 881 244 859 b 275 760 244 801 255 778 b 342 735 295 743 318 735 b 409 760 366 735 388 743 b 440 831 430 776 440 800 b 415 897 440 855 432 877 b 342 928 399 918 374 928 z m 342 900 b 395 879 366 900 384 893 b 413 831 407 865 413 849 b 391 780 413 808 405 791 b 342 763 377 768 360 763 b 293 781 323 763 307 769 b 272 832 279 793 272 810 b 291 881 272 852 278 869 b 342 900 303 894 320 900 z "},"æ":{"ha":956,"x_min":0,"x_max":0,"o":"m 90 50 l 218 267 l 494 317 l 540 50 l 547 0 l 897 0 l 901 22 l 899 28 l 572 28 l 522 322 l 786 364 l 789 388 l 785 390 l 518 347 l 463 675 l 774 674 l 779 697 l 775 703 l 426 703 l 31 0 l 67 0 z m 431 658 l 435 658 l 489 343 l 238 297 z "},"ç":{"ha":649,"x_min":0,"x_max":0,"o":"m 404 -94 l 404 -94 l 361 -67 l 381 -6 b 485 15 415 -5 450 2 b 583 65 520 27 553 44 l 586 92 l 578 94 b 479 40 548 71 515 53 b 371 21 443 27 407 21 b 177 105 287 21 222 49 b 110 349 132 161 110 242 b 180 594 110 456 133 538 b 385 679 227 651 295 679 b 482 663 418 679 450 674 b 568 618 513 653 542 638 l 576 618 l 585 644 b 490 690 557 664 525 679 b 385 707 455 701 420 707 b 159 615 287 707 211 676 b 81 349 107 553 81 464 b 150 92 81 238 104 153 b 353 -6 196 32 264 -1 l 328 -79 l 389 -118 b 413 -138 399 -125 407 -132 b 422 -164 419 -144 422 -153 b 407 -198 422 -179 417 -190 b 367 -210 397 -206 383 -210 b 326 -198 349 -210 335 -206 b 299 -167 316 -190 307 -180 l 293 -167 l 285 -192 b 315 -222 292 -202 302 -212 b 367 -237 328 -232 345 -237 b 425 -218 389 -237 408 -231 b 450 -164 442 -205 450 -187 b 439 -125 450 -148 446 -135 b 404 -94 431 -115 420 -105 z "},"è":{"ha":572,"x_min":0,"x_max":0,"o":"m 508 0 l 514 22 l 510 26 l 178 26 l 178 338 l 447 338 l 451 361 l 449 367 l 178 367 l 178 675 l 504 674 l 510 696 l 506 703 l 150 703 l 150 0 z m 406 747 l 413 750 l 422 768 b 335 813 393 783 364 798 b 239 867 307 827 275 845 l 232 865 l 222 850 l 226 843 b 315 793 258 825 288 808 b 406 747 343 778 373 763 z "},"é":{"ha":572,"x_min":0,"x_max":0,"o":"m 514 22 l 508 0 l 150 0 l 150 703 l 506 703 l 510 697 l 504 674 l 178 675 l 178 367 l 449 367 l 451 361 l 447 338 l 178 338 l 178 28 l 510 28 z m 232 771 l 242 753 l 247 750 b 338 796 276 764 306 779 b 428 846 370 813 400 829 l 431 851 l 421 867 l 415 868 b 319 815 383 850 351 832 b 232 771 287 799 258 784 z "},"ê":{"ha":572,"x_min":0,"x_max":0,"o":"m 508 0 l 514 22 l 510 28 l 178 28 l 178 338 l 447 338 l 451 361 l 449 367 l 178 367 l 178 675 l 504 674 l 510 697 l 506 703 l 150 703 l 150 0 z m 332 842 l 336 842 b 379 806 350 830 364 818 b 420 772 392 795 406 784 b 464 739 434 760 449 749 l 469 740 l 481 757 b 437 791 468 767 453 778 b 392 828 421 803 406 816 b 343 869 375 842 359 856 l 325 869 b 275 826 308 855 292 840 b 230 790 261 814 246 802 b 188 757 214 777 200 766 l 199 740 l 206 739 b 247 772 219 749 232 760 b 289 806 262 784 276 795 b 332 842 304 818 318 830 z "},"ë":{"ha":572,"x_min":0,"x_max":0,"o":"m 510 0 l 515 22 l 511 28 l 179 28 l 179 338 l 449 338 l 453 361 l 450 367 l 179 367 l 179 675 l 506 674 l 511 697 l 507 703 l 151 703 l 151 0 z m 246 788 b 274 815 264 788 274 797 b 246 843 274 834 264 843 b 218 815 227 843 218 834 b 246 788 218 797 227 788 z m 413 788 b 440 815 431 788 440 797 b 413 843 440 834 431 843 b 385 815 394 843 385 834 b 413 788 385 797 394 788 z "},"ì":{"ha":329,"x_min":0,"x_max":0,"o":"m 150 0 l 178 0 l 178 682 l 150 682 z m 74 929 l 67 928 l 53 914 l 54 907 b 153 811 88 874 120 842 b 254 719 185 781 219 750 l 261 721 l 276 739 b 179 825 244 766 212 794 b 74 929 147 856 112 890 z "},"í":{"ha":329,"x_min":0,"x_max":0,"o":"m 150 0 l 178 0 l 178 682 l 150 682 z m 276 914 l 263 928 l 256 929 b 150 825 218 890 182 856 b 53 739 118 794 85 766 l 68 721 l 75 719 b 176 811 110 750 144 781 b 275 907 209 842 242 874 z "},"î":{"ha":329,"x_min":0,"x_max":0,"o":"m 150 703 l 150 0 l 178 0 l 178 703 z m 163 842 l 167 842 l 196 813 b 228 784 205 804 216 795 b 267 751 240 773 253 763 l 272 751 l 283 768 b 244 802 270 779 257 791 b 210 835 231 814 220 825 b 174 869 198 846 186 857 l 156 869 b 118 835 144 857 131 846 b 82 802 107 825 95 814 b 47 769 69 791 57 780 l 60 754 l 65 754 b 101 786 78 765 90 776 b 132 814 113 796 123 806 b 163 842 142 824 152 833 z "},"ï":{"ha":329,"x_min":0,"x_max":0,"o":"m 178 0 l 178 703 l 150 703 l 150 0 z m 99 788 b 126 815 117 788 126 797 b 99 843 126 834 117 843 b 71 815 80 843 71 834 b 99 788 71 797 80 788 z m 238 788 b 265 815 256 788 265 797 b 238 843 265 834 256 843 b 210 815 219 843 210 834 b 238 788 210 797 219 788 z "},"ð":{"ha":633,"x_min":0,"x_max":0,"o":"m 318 692 b 138 628 239 692 179 670 b 75 442 96 585 75 523 b 132 276 75 369 94 314 b 290 218 170 237 223 218 b 409 240 333 218 372 225 b 511 301 446 255 480 275 l 514 299 b 388 50 496 203 454 120 b 115 -118 321 -20 230 -76 l 115 -124 l 128 -139 l 133 -139 b 442 71 267 -92 369 -22 b 550 397 514 163 550 272 b 490 616 550 493 530 566 b 318 692 450 666 393 692 z m 292 246 b 153 296 232 246 186 263 b 103 442 119 329 103 378 b 158 607 103 514 121 569 b 318 664 195 645 249 664 b 470 595 385 664 435 641 b 522 397 505 549 522 483 b 522 368 522 387 522 377 b 519 340 521 359 520 350 b 412 271 486 311 450 288 b 292 246 373 254 333 246 z "},"ñ":{"ha":817,"x_min":0,"x_max":0,"o":"m 664 0 l 665 190 l 667 683 l 639 681 l 638 56 l 632 56 l 179 682 l 151 682 l 150 203 l 150 0 l 178 0 l 178 214 l 179 626 l 183 626 l 636 0 z "},"ò":{"ha":768,"x_min":0,"x_max":0,"o":"m 390 688 b 160 597 289 688 213 657 b 81 339 107 537 81 451 b 158 83 81 228 106 143 b 378 -6 209 24 282 -6 b 608 87 478 -6 554 25 b 688 353 661 148 688 237 b 611 601 688 460 662 543 b 390 688 560 659 487 688 z m 389 660 b 590 581 477 660 544 633 b 660 350 637 528 660 451 b 587 106 660 244 635 162 b 378 21 538 49 469 21 b 178 103 291 21 224 48 b 110 340 133 157 110 237 b 181 578 110 444 134 523 b 389 660 229 632 298 660 z m 293 929 l 286 928 l 272 914 l 274 907 b 372 811 307 874 340 842 b 474 719 405 781 438 750 l 481 721 l 496 739 b 399 825 463 766 431 794 b 293 929 366 856 331 890 z "},"ó":{"ha":768,"x_min":0,"x_max":0,"o":"m 390 688 b 160 597 289 688 213 657 b 81 339 107 537 81 451 b 158 83 81 228 106 143 b 378 -6 209 24 282 -6 b 608 87 478 -6 554 25 b 688 353 661 148 688 237 b 611 601 688 460 662 543 b 390 688 560 659 487 688 z m 389 660 b 590 581 477 660 544 633 b 660 350 637 528 660 451 b 587 106 660 244 635 162 b 378 21 538 49 469 21 b 178 103 291 21 224 48 b 110 340 133 157 110 237 b 181 578 110 444 134 523 b 389 660 229 632 298 660 z m 496 914 l 482 928 l 475 929 b 369 825 437 890 402 856 b 272 739 337 794 305 766 l 288 721 l 294 719 b 396 811 330 750 363 781 b 494 907 428 842 461 874 z "},"ô":{"ha":768,"x_min":0,"x_max":0,"o":"m 378 -6 b 608 90 478 -6 554 26 b 688 364 661 153 688 244 b 611 619 688 474 662 559 b 390 708 560 678 487 708 b 160 615 289 708 213 677 b 81 349 107 553 81 464 b 158 86 81 235 106 147 b 378 -6 209 25 282 -6 z m 389 679 b 590 598 477 679 544 652 b 660 361 637 544 660 465 b 587 108 660 251 635 167 b 378 21 538 50 469 21 b 178 106 291 21 224 49 b 110 350 133 162 110 244 b 181 595 110 457 134 539 b 389 679 229 651 298 679 z m 383 842 l 388 842 b 431 806 401 830 416 818 b 472 772 444 795 457 784 b 515 739 486 760 500 749 l 521 740 l 532 757 b 488 791 519 767 504 778 b 443 828 472 803 457 816 b 394 869 426 842 410 856 l 376 869 b 326 826 360 855 343 840 b 281 790 313 814 297 802 b 239 757 265 777 251 766 l 250 740 l 257 739 b 299 772 270 749 284 760 b 340 806 313 784 327 795 b 383 842 355 818 369 830 z "},"õ":{"ha":768,"x_min":0,"x_max":0,"o":"m 390 688 b 160 597 289 688 213 657 b 81 339 107 537 81 451 b 158 83 81 228 106 143 b 378 -6 209 24 282 -6 b 608 87 478 -6 554 25 b 688 353 661 148 688 237 b 611 601 688 460 662 543 b 390 688 560 659 487 688 z m 389 660 b 590 581 477 660 544 633 b 660 350 637 528 660 451 b 587 106 660 244 635 162 b 378 21 538 49 469 21 b 178 103 291 21 224 48 b 110 340 133 157 110 237 b 181 578 110 444 134 523 b 389 660 229 632 298 660 z "},"ö":{"ha":768,"x_min":0,"x_max":0,"o":"m 390 688 b 160 597 289 688 213 657 b 81 339 107 537 81 451 b 158 83 81 228 106 143 b 378 -6 209 24 282 -6 b 608 87 478 -6 554 25 b 688 353 661 148 688 237 b 611 601 688 460 662 543 b 390 688 560 659 487 688 z m 389 660 b 590 581 477 660 544 633 b 660 350 637 528 660 451 b 587 106 660 244 635 162 b 378 21 538 49 469 21 b 178 103 291 21 224 48 b 110 340 133 157 110 237 b 181 578 110 444 134 523 b 389 660 229 632 298 660 z m 286 854 b 258 826 268 854 258 845 b 286 799 258 808 268 799 b 314 826 305 799 314 808 b 286 854 314 845 305 854 z m 481 854 b 453 826 462 854 453 845 b 481 799 453 808 462 799 b 508 826 499 799 508 808 b 481 854 508 845 499 854 z "},"÷":{"ha":667,"x_min":0,"x_max":0,"o":"m 367 654 b 339 626 348 654 339 645 b 367 599 339 608 348 599 b 394 626 385 599 394 608 b 367 654 394 645 385 654 z m 631 361 l 633 385 l 629 389 l 78 389 l 75 365 l 79 361 z m 367 150 b 339 122 348 150 339 141 b 367 94 339 104 348 94 b 394 122 385 94 394 104 b 367 150 394 141 385 150 z "},"ø":{"ha":768,"x_min":0,"x_max":0,"o":"m 539 656 l 582 754 l 579 761 l 558 764 l 515 667 b 390 688 479 681 438 688 b 160 597 289 688 213 657 b 81 339 107 537 81 451 b 119 142 81 260 93 195 b 231 26 144 90 181 51 l 169 -111 l 172 -117 l 194 -121 l 256 15 b 378 -6 290 1 331 -6 b 608 87 478 -6 554 25 b 688 353 661 148 688 237 b 539 656 688 505 638 606 z m 110 340 b 181 578 110 444 134 523 b 389 660 229 632 298 660 b 503 640 431 660 469 653 l 242 51 b 110 340 154 100 110 196 z m 378 21 b 265 40 336 21 299 27 l 526 629 b 626 525 570 607 603 572 b 660 350 648 478 660 419 b 587 106 660 244 635 162 b 378 21 538 49 469 21 z "},"ù":{"ha":751,"x_min":0,"x_max":0,"o":"m 375 -4 b 186 62 293 -4 230 18 b 124 251 143 106 122 169 l 125 354 l 125 703 l 154 703 l 151 253 b 208 82 150 178 169 121 b 375 24 246 43 302 24 b 542 82 448 24 504 43 b 600 253 581 121 600 178 l 600 703 l 628 703 l 628 251 b 564 63 630 170 608 107 b 375 -4 519 18 456 -4 z m 450 747 l 457 750 l 467 768 b 380 813 437 783 408 798 b 283 867 352 827 319 845 l 276 865 l 267 850 l 271 843 b 360 793 302 825 332 808 b 450 747 388 778 418 763 z "},"ú":{"ha":751,"x_min":0,"x_max":0,"o":"m 628 244 l 628 682 l 600 682 l 600 246 b 542 80 600 174 581 118 b 375 22 504 41 448 22 b 208 80 302 22 246 41 b 151 246 169 118 150 174 l 154 682 l 125 682 l 125 344 l 124 244 b 186 60 122 164 143 102 b 375 -4 230 17 293 -4 b 564 61 456 -4 519 18 b 628 244 608 105 630 166 z m 488 914 l 474 928 l 467 929 b 361 825 429 890 394 856 b 264 739 329 794 296 766 l 279 721 l 286 719 b 388 811 321 750 355 781 b 486 907 420 842 453 874 z "},"û":{"ha":751,"x_min":0,"x_max":0,"o":"m 375 -4 b 564 63 456 -4 519 18 b 628 251 608 107 630 170 l 628 703 l 600 703 l 600 253 b 542 82 600 178 581 121 b 375 24 504 43 448 24 b 208 82 302 24 246 43 b 151 253 169 121 150 178 l 154 703 l 125 703 l 125 354 l 124 251 b 186 62 122 169 143 106 b 375 -4 230 18 293 -4 z m 383 842 l 388 842 b 431 806 401 830 416 818 b 472 772 444 795 457 784 b 515 739 486 760 500 749 l 521 740 l 532 757 b 488 791 519 767 504 778 b 443 828 472 803 457 816 b 394 869 426 842 410 856 l 376 869 b 326 826 360 855 343 840 b 281 790 313 814 297 802 b 239 757 265 777 251 766 l 250 740 l 257 739 b 299 772 270 749 284 760 b 340 806 313 784 327 795 b 383 842 355 818 369 830 z "},"ü":{"ha":751,"x_min":0,"x_max":0,"o":"m 375 -4 b 186 62 293 -4 230 18 b 124 251 143 106 122 169 l 125 354 l 125 703 l 154 703 l 151 253 b 208 82 150 178 169 121 b 375 24 246 43 302 24 b 542 82 448 24 504 43 b 600 253 581 121 600 178 l 600 703 l 628 703 l 628 251 b 564 63 630 170 608 107 b 375 -4 519 18 456 -4 z m 254 815 b 282 788 254 797 263 788 b 310 815 300 788 310 797 b 282 843 310 834 300 843 b 254 815 263 843 254 834 z m 449 815 b 476 788 449 797 458 788 b 504 815 495 788 504 797 b 476 843 504 834 495 843 b 449 815 458 843 449 834 z "},"ý":{"ha":621,"x_min":0,"x_max":0,"o":"m 314 0 l 314 258 l 563 682 l 528 682 l 514 653 l 303 301 l 297 301 l 103 653 l 90 682 l 56 682 l 286 260 l 286 0 z m 422 914 l 408 928 l 401 929 b 296 825 363 890 328 856 b 199 739 263 794 231 766 l 214 721 l 221 719 b 322 811 256 750 290 781 b 421 907 355 842 388 874 z "},"þ":{"ha":444,"x_min":0,"x_max":0,"o":"m 236 -368 l 236 1096 l 233 1099 l 208 1096 l 208 -362 l 213 -368 z m 253 357 b 333 417 287 370 314 390 b 363 525 353 445 363 481 b 313 642 363 576 346 615 b 174 683 280 670 234 683 l 28 682 l 28 0 b 93 -3 48 -2 70 -3 l 156 -3 b 351 47 241 -3 306 14 b 418 189 396 81 418 128 b 374 305 418 239 403 278 b 253 357 344 332 304 350 z m 56 657 l 178 657 b 290 622 225 657 263 645 b 332 524 318 598 332 565 b 299 417 332 480 321 445 b 203 365 276 390 244 373 l 56 368 z m 151 22 b 56 26 118 22 86 24 l 56 339 l 213 340 b 344 295 270 336 314 321 b 389 189 374 270 389 234 b 328 66 389 136 369 95 b 151 22 287 37 228 22 z "},"ÿ":{"ha":621,"x_min":0,"x_max":0,"o":"m 286 0 l 286 260 l 56 703 l 90 703 l 103 672 l 297 303 l 303 303 l 514 672 l 528 703 l 563 703 l 314 258 l 314 0 z m 201 815 b 229 788 201 797 211 788 b 257 815 248 788 257 797 b 229 843 257 834 248 843 b 201 815 211 843 201 834 z m 369 815 b 397 788 369 797 379 788 b 425 815 416 788 425 797 b 397 843 425 834 416 843 b 369 815 379 843 369 834 z "},"Ā":{"ha":769,"x_min":0,"x_max":0,"o":"m 699 0 l 731 0 l 407 885 l 379 885 l 26 0 l 60 0 l 79 60 l 174 296 l 593 296 l 681 60 z m 394 838 l 583 324 l 185 324 l 389 838 z m 585 1072 l 588 1096 l 583 1100 l 185 1100 l 182 1076 l 186 1072 z "},"ā":{"ha":686,"x_min":0,"x_max":0,"o":"m 596 0 l 628 0 l 364 682 l 335 682 l 47 0 l 79 0 l 96 49 l 169 224 l 514 224 l 582 49 z m 350 640 l 503 250 l 181 250 l 346 640 z m 543 815 l 546 839 l 542 843 l 143 843 l 140 819 l 144 815 z "},"Ă":{"ha":769,"x_min":0,"x_max":0,"o":"m 699 0 l 731 0 l 407 885 l 379 885 l 26 0 l 60 0 l 79 60 l 174 296 l 593 296 l 681 60 z m 394 838 l 583 324 l 185 324 l 389 838 z "},"ă":{"ha":686,"x_min":0,"x_max":0,"o":"m 596 0 l 628 0 l 364 682 l 335 682 l 47 0 l 79 0 l 96 49 l 169 224 l 514 224 l 582 49 z m 350 640 l 503 250 l 181 250 l 346 640 z "},"Ą":{"ha":769,"x_min":0,"x_max":0,"o":"m 699 0 l 731 0 l 407 885 l 379 885 l 26 0 l 60 0 l 79 60 l 174 296 l 593 296 l 681 60 z m 394 838 l 583 324 l 185 324 l 389 838 z "},"ą":{"ha":686,"x_min":0,"x_max":0,"o":"m 596 0 l 628 0 l 364 682 l 335 682 l 47 0 l 79 0 l 96 49 l 169 224 l 514 224 l 582 49 z m 350 640 l 503 250 l 181 250 l 346 640 z "},"Ć":{"ha":726,"x_min":0,"x_max":0,"o":"m 435 890 b 161 774 315 890 224 852 b 67 440 98 697 67 586 b 157 108 67 296 97 185 b 419 -7 217 31 305 -7 b 553 17 464 -7 509 1 b 679 86 598 34 640 56 l 682 111 l 672 114 b 551 45 635 84 595 61 b 418 21 507 29 463 21 b 178 128 313 21 233 57 b 94 439 122 200 94 304 b 181 753 94 576 123 681 b 435 863 239 826 324 863 b 555 842 476 863 516 856 b 660 785 593 829 628 810 l 669 785 l 679 808 b 565 869 645 835 607 856 b 435 890 522 883 479 890 z m 475 1171 l 461 1185 l 454 1186 b 349 1082 416 1147 381 1113 b 251 996 316 1051 284 1023 l 267 978 l 274 976 b 375 1068 309 1007 343 1038 b 474 1164 407 1099 440 1131 z "},"ć":{"ha":649,"x_min":0,"x_max":0,"o":"m 385 686 b 159 597 287 686 211 656 b 81 339 107 537 81 451 b 155 83 81 228 105 143 b 372 -6 204 24 277 -6 b 480 13 407 -6 443 0 b 583 64 516 25 551 42 l 586 89 l 578 92 b 479 40 548 69 515 52 b 371 21 443 27 407 21 b 177 102 287 21 222 48 b 110 339 132 156 110 235 b 180 577 110 443 133 522 b 385 660 227 632 295 660 b 482 644 418 660 450 654 b 568 600 513 633 542 619 l 576 600 l 585 625 b 490 670 557 644 525 659 b 385 686 455 681 420 686 z m 436 914 l 422 928 l 415 929 b 310 825 377 890 342 856 b 213 739 277 794 245 766 l 228 721 l 235 719 b 336 811 270 750 304 781 b 435 907 369 842 401 874 z "},"Ĉ":{"ha":726,"x_min":0,"x_max":0,"o":"m 435 890 b 161 774 315 890 224 852 b 67 440 98 697 67 586 b 157 108 67 296 97 185 b 419 -7 217 31 305 -7 b 553 17 464 -7 509 1 b 679 86 598 34 640 56 l 682 111 l 672 114 b 551 45 635 84 595 61 b 418 21 507 29 463 21 b 178 128 313 21 233 57 b 94 439 122 200 94 304 b 181 753 94 576 123 681 b 435 863 239 826 324 863 b 555 842 476 863 516 856 b 660 785 593 829 628 810 l 669 785 l 679 808 b 565 869 645 835 607 856 b 435 890 522 883 479 890 z m 210 996 l 222 979 l 229 979 b 298 1059 253 1006 276 1033 b 363 1142 320 1085 341 1113 b 427 1059 384 1113 405 1085 b 496 979 449 1033 472 1006 l 503 979 l 515 996 b 447 1077 492 1022 469 1049 b 375 1171 425 1105 401 1137 l 350 1171 b 278 1077 324 1137 300 1105 b 210 996 256 1049 233 1022 z "},"ĉ":{"ha":649,"x_min":0,"x_max":0,"o":"m 385 686 b 159 597 287 686 211 656 b 81 339 107 537 81 451 b 155 83 81 228 105 143 b 372 -6 204 24 277 -6 b 480 13 407 -6 443 0 b 583 64 516 25 551 42 l 586 89 l 578 92 b 479 40 548 69 515 52 b 371 21 443 27 407 21 b 177 102 287 21 222 48 b 110 339 132 156 110 235 b 180 577 110 443 133 522 b 385 660 227 632 295 660 b 482 644 418 660 450 654 b 568 600 513 633 542 619 l 576 600 l 585 625 b 490 670 557 644 525 659 b 385 686 455 681 420 686 z m 171 739 l 183 722 l 190 722 b 259 802 214 749 237 776 b 324 885 281 828 302 856 b 388 802 345 856 366 828 b 457 722 410 776 433 749 l 464 722 l 476 739 b 408 820 453 765 431 792 b 336 914 386 848 362 880 l 311 914 b 239 820 285 880 261 848 b 171 739 217 792 194 765 z "},"Ċ":{"ha":726,"x_min":0,"x_max":0,"o":"m 435 890 b 161 774 315 890 224 852 b 67 440 98 697 67 586 b 157 108 67 296 97 185 b 419 -7 217 31 305 -7 b 553 17 464 -7 509 1 b 679 86 598 34 640 56 l 682 111 l 672 114 b 551 45 635 84 595 61 b 418 21 507 29 463 21 b 178 128 313 21 233 57 b 94 439 122 200 94 304 b 181 753 94 576 123 681 b 435 863 239 826 324 863 b 555 842 476 863 516 856 b 660 785 593 829 628 810 l 669 785 l 679 808 b 565 869 645 835 607 856 b 435 890 522 883 479 890 z m 363 1133 b 335 1106 344 1133 335 1124 b 363 1078 335 1087 344 1078 b 390 1106 381 1078 390 1087 b 363 1133 390 1124 381 1133 z "},"ċ":{"ha":649,"x_min":0,"x_max":0,"o":"m 385 686 b 159 597 287 686 211 656 b 81 339 107 537 81 451 b 155 83 81 228 105 143 b 372 -6 204 24 277 -6 b 480 13 407 -6 443 0 b 583 64 516 25 551 42 l 586 89 l 578 92 b 479 40 548 69 515 52 b 371 21 443 27 407 21 b 177 102 287 21 222 48 b 110 339 132 156 110 235 b 180 577 110 443 133 522 b 385 660 227 632 295 660 b 482 644 418 660 450 654 b 568 600 513 633 542 619 l 576 600 l 585 625 b 490 670 557 644 525 659 b 385 686 455 681 420 686 z m 324 876 b 296 849 305 876 296 867 b 324 821 296 830 305 821 b 351 849 342 821 351 830 b 324 876 351 867 342 876 z "},"Č":{"ha":726,"x_min":0,"x_max":0,"o":"m 435 890 b 161 774 315 890 224 852 b 67 440 98 697 67 586 b 157 108 67 296 97 185 b 419 -7 217 31 305 -7 b 553 17 464 -7 509 1 b 679 86 598 34 640 56 l 682 111 l 672 114 b 551 45 635 84 595 61 b 418 21 507 29 463 21 b 178 128 313 21 233 57 b 94 439 122 200 94 304 b 181 753 94 576 123 681 b 435 863 239 826 324 863 b 555 842 476 863 516 856 b 660 785 593 829 628 810 l 669 785 l 679 808 b 565 869 645 835 607 856 b 435 890 522 883 479 890 z "},"č":{"ha":649,"x_min":0,"x_max":0,"o":"m 385 686 b 159 597 287 686 211 656 b 81 339 107 537 81 451 b 155 83 81 228 105 143 b 372 -6 204 24 277 -6 b 480 13 407 -6 443 0 b 583 64 516 25 551 42 l 586 89 l 578 92 b 479 40 548 69 515 52 b 371 21 443 27 407 21 b 177 102 287 21 222 48 b 110 339 132 156 110 235 b 180 577 110 443 133 522 b 385 660 227 632 295 660 b 482 644 418 660 450 654 b 568 600 513 633 542 619 l 576 600 l 585 625 b 490 670 557 644 525 659 b 385 686 455 681 420 686 z "},"Ď":{"ha":885,"x_min":0,"x_max":0,"o":"m 432 892 l 153 885 l 153 0 b 215 -3 168 -1 188 -2 b 295 -5 241 -4 268 -4 b 371 -6 322 -5 348 -6 b 418 -7 394 -7 410 -7 b 715 116 548 -7 647 34 b 818 471 784 198 818 316 b 719 783 818 607 785 711 b 432 892 653 856 557 892 z m 418 21 b 376 22 410 21 396 21 b 310 23 356 22 334 22 b 238 25 286 23 262 24 b 181 28 215 26 195 27 l 181 857 b 240 859 194 858 214 859 b 317 861 265 859 291 860 b 388 863 343 862 366 863 b 432 864 410 864 425 864 b 698 763 548 864 636 830 b 790 471 759 695 790 598 b 694 137 790 325 758 214 b 418 21 631 59 538 21 z "},"ď":{"ha":951,"x_min":0,"x_max":0,"o":"m 382 688 l 150 682 l 150 0 b 202 -2 163 -1 180 -2 b 268 -3 224 -3 246 -3 b 330 -5 290 -4 311 -4 b 369 -6 349 -5 362 -6 b 614 90 476 -6 557 26 b 699 363 670 153 699 244 b 617 603 699 467 672 547 b 382 688 563 659 485 688 z m 371 21 b 336 22 364 21 353 21 b 282 23 319 22 301 22 b 224 24 263 23 243 24 b 178 26 205 25 190 25 l 178 654 b 225 656 189 654 205 655 b 288 658 245 656 266 657 b 346 659 309 658 328 659 b 381 660 363 659 375 660 b 597 583 475 660 547 634 b 671 361 646 532 671 458 b 593 108 671 251 645 167 b 371 21 541 50 467 21 z m 843 881 b 834 868 839 876 836 872 b 829 858 832 864 830 861 l 829 853 b 882 799 864 844 882 826 b 821 683 882 765 862 727 l 821 678 l 839 663 b 913 804 888 714 913 762 b 843 881 913 844 889 869 z "},"Đ":{"ha":885,"x_min":0,"x_max":0,"o":"m 432 892 l 153 885 l 153 0 b 215 -3 168 -1 188 -2 b 295 -5 241 -4 268 -4 b 371 -6 322 -5 348 -6 b 418 -7 394 -7 410 -7 b 715 116 548 -7 647 34 b 818 471 784 198 818 316 b 719 783 818 607 785 711 b 432 892 653 856 557 892 z m 418 21 b 376 22 410 21 396 21 b 310 23 356 22 334 22 b 238 25 286 23 262 24 b 181 28 215 26 195 27 l 181 857 b 240 859 194 858 214 859 b 317 861 265 859 291 860 b 388 863 343 862 366 863 b 432 864 410 864 425 864 b 698 763 548 864 636 830 b 790 471 759 695 790 598 b 694 137 790 325 758 214 b 418 21 631 59 538 21 z m 642 1072 l 644 1096 l 640 1100 l 242 1100 l 239 1076 l 243 1072 z "},"đ":{"ha":779,"x_min":0,"x_max":0,"o":"m 382 688 l 150 682 l 150 0 b 202 -2 163 -1 180 -2 b 268 -3 224 -3 246 -3 b 330 -5 290 -4 311 -4 b 369 -6 349 -5 362 -6 b 614 90 476 -6 557 26 b 699 363 670 153 699 244 b 617 603 699 467 672 547 b 382 688 563 659 485 688 z m 371 21 b 336 22 364 21 353 21 b 282 23 319 22 301 22 b 224 24 263 23 243 24 b 178 26 205 25 190 25 l 178 654 b 225 656 189 654 205 655 b 288 658 245 656 266 657 b 346 659 309 658 328 659 b 381 660 363 659 375 660 b 597 583 475 660 547 634 b 671 361 646 532 671 458 b 593 108 671 251 645 167 b 371 21 541 50 467 21 z m 563 363 l 563 385 l 557 390 l 217 344 l 217 322 l 222 317 z "},"Ē":{"ha":631,"x_min":0,"x_max":0,"o":"m 585 0 l 590 22 l 586 28 l 181 28 l 181 444 l 510 444 l 515 467 l 511 472 l 181 472 l 181 857 l 579 857 l 585 879 l 581 885 l 153 885 l 153 0 z m 515 1072 l 518 1096 l 514 1100 l 115 1100 l 113 1076 l 117 1072 z "},"ē":{"ha":572,"x_min":0,"x_max":0,"o":"m 508 0 l 514 22 l 510 26 l 178 26 l 178 339 l 447 339 l 451 361 l 449 367 l 178 367 l 178 656 l 504 654 l 510 676 l 506 682 l 150 682 l 150 0 z m 486 815 l 489 839 l 485 843 l 86 843 l 83 819 l 88 815 z "},"Ĕ":{"ha":631,"x_min":0,"x_max":0,"o":"m 585 0 l 590 22 l 586 28 l 181 28 l 181 444 l 510 444 l 515 467 l 511 472 l 181 472 l 181 857 l 579 857 l 585 879 l 581 885 l 153 885 l 153 0 z "},"ĕ":{"ha":572,"x_min":0,"x_max":0,"o":"m 508 0 l 514 22 l 510 26 l 178 26 l 178 339 l 447 339 l 451 361 l 449 367 l 178 367 l 178 656 l 504 654 l 510 676 l 506 682 l 150 682 l 150 0 z "},"Ė":{"ha":631,"x_min":0,"x_max":0,"o":"m 585 0 l 590 22 l 586 28 l 181 28 l 181 444 l 510 444 l 515 467 l 511 472 l 181 472 l 181 857 l 579 857 l 585 879 l 581 885 l 153 885 l 153 0 z m 315 1133 b 288 1106 297 1133 288 1124 b 315 1078 288 1087 297 1078 b 343 1106 334 1078 343 1087 b 315 1133 343 1124 334 1133 z "},"ė":{"ha":572,"x_min":0,"x_max":0,"o":"m 508 0 l 514 22 l 510 26 l 178 26 l 178 339 l 447 339 l 451 361 l 449 367 l 178 367 l 178 656 l 504 654 l 510 676 l 506 682 l 150 682 l 150 0 z m 286 876 b 258 849 268 876 258 867 b 286 821 258 830 268 821 b 314 849 305 821 314 830 b 286 876 314 867 305 876 z "},"Ę":{"ha":631,"x_min":0,"x_max":0,"o":"m 585 0 l 590 22 l 586 28 l 181 28 l 181 444 l 510 444 l 515 467 l 511 472 l 181 472 l 181 857 l 579 857 l 585 879 l 581 885 l 153 885 l 153 0 z "},"ę":{"ha":572,"x_min":0,"x_max":0,"o":"m 508 0 l 514 22 l 510 26 l 178 26 l 178 339 l 447 339 l 451 361 l 449 367 l 178 367 l 178 656 l 504 654 l 510 676 l 506 682 l 150 682 l 150 0 z "},"Ě":{"ha":631,"x_min":0,"x_max":0,"o":"m 585 0 l 590 22 l 586 28 l 181 28 l 181 444 l 510 444 l 515 467 l 511 472 l 181 472 l 181 857 l 579 857 l 585 879 l 581 885 l 153 885 l 153 0 z "},"ě":{"ha":572,"x_min":0,"x_max":0,"o":"m 508 0 l 514 22 l 510 26 l 178 26 l 178 339 l 447 339 l 451 361 l 449 367 l 178 367 l 178 656 l 504 654 l 510 676 l 506 682 l 150 682 l 150 0 z "},"Ĝ":{"ha":838,"x_min":0,"x_max":0,"o":"m 476 890 b 172 773 344 890 243 851 b 67 435 102 695 67 582 b 160 107 67 292 98 183 b 428 -7 222 31 311 -7 b 498 -3 453 -6 476 -5 b 564 6 520 -1 542 2 b 634 20 586 9 609 14 b 717 42 659 26 686 33 l 717 331 l 689 328 l 689 63 b 612 42 660 54 634 47 b 547 30 589 37 568 33 b 488 23 527 27 507 24 b 426 21 469 22 449 21 b 181 127 320 21 238 56 b 94 433 123 198 94 300 b 193 752 94 572 127 678 b 476 863 259 826 353 863 b 591 844 513 863 552 856 b 708 790 630 831 669 813 l 718 790 l 726 815 b 600 871 685 839 643 858 b 476 890 557 884 516 890 z m 265 996 l 278 979 l 285 979 b 353 1059 309 1006 332 1033 b 418 1142 375 1085 397 1113 b 483 1059 439 1113 461 1085 b 551 979 504 1033 527 1006 l 558 979 l 571 996 b 503 1077 548 1022 525 1049 b 431 1171 481 1105 456 1137 l 406 1171 b 333 1077 380 1137 356 1105 b 265 996 311 1049 288 1022 z "},"ĝ":{"ha":739,"x_min":0,"x_max":0,"o":"m 418 686 b 167 596 309 686 225 656 b 81 335 109 536 81 449 b 157 83 81 225 106 142 b 378 -4 208 25 281 -4 b 436 -2 398 -4 418 -3 b 491 4 455 -1 473 1 b 549 15 509 7 528 11 b 617 32 569 20 592 25 l 617 257 l 589 254 l 589 51 b 526 37 566 46 545 41 b 475 27 508 33 491 29 b 428 22 459 25 444 23 b 378 21 412 21 395 21 b 178 101 291 21 224 48 b 110 333 133 155 110 232 b 189 576 110 440 136 521 b 418 660 242 632 318 660 b 511 645 448 660 479 655 b 608 604 544 635 576 622 l 615 604 l 624 629 b 520 672 590 648 556 662 b 418 686 484 681 450 686 z m 217 739 l 229 722 l 236 722 b 305 802 260 749 283 776 b 369 885 327 828 348 856 b 434 802 391 856 412 828 b 503 722 456 776 479 749 l 510 722 l 522 739 b 454 820 499 765 476 792 b 382 914 432 848 408 880 l 357 914 b 285 820 331 880 307 848 b 217 739 263 792 240 765 z "},"Ğ":{"ha":838,"x_min":0,"x_max":0,"o":"m 476 890 b 172 773 344 890 243 851 b 67 435 102 695 67 582 b 160 107 67 292 98 183 b 428 -7 222 31 311 -7 b 498 -3 453 -6 476 -5 b 564 6 520 -1 542 2 b 634 20 586 9 609 14 b 717 42 659 26 686 33 l 717 331 l 689 328 l 689 63 b 612 42 660 54 634 47 b 547 30 589 37 568 33 b 488 23 527 27 507 24 b 426 21 469 22 449 21 b 181 127 320 21 238 56 b 94 433 123 198 94 300 b 193 752 94 572 127 678 b 476 863 259 826 353 863 b 591 844 513 863 552 856 b 708 790 630 831 669 813 l 718 790 l 726 815 b 600 871 685 839 643 858 b 476 890 557 884 516 890 z "},"ğ":{"ha":739,"x_min":0,"x_max":0,"o":"m 418 686 b 167 596 309 686 225 656 b 81 335 109 536 81 449 b 157 83 81 225 106 142 b 378 -4 208 25 281 -4 b 436 -2 398 -4 418 -3 b 491 4 455 -1 473 1 b 549 15 509 7 528 11 b 617 32 569 20 592 25 l 617 257 l 589 254 l 589 51 b 526 37 566 46 545 41 b 475 27 508 33 491 29 b 428 22 459 25 444 23 b 378 21 412 21 395 21 b 178 101 291 21 224 48 b 110 333 133 155 110 232 b 189 576 110 440 136 521 b 418 660 242 632 318 660 b 511 645 448 660 479 655 b 608 604 544 635 576 622 l 615 604 l 624 629 b 520 672 590 648 556 662 b 418 686 484 681 450 686 z "},"Ġ":{"ha":838,"x_min":0,"x_max":0,"o":"m 476 890 b 172 773 344 890 243 851 b 67 435 102 695 67 582 b 160 107 67 292 98 183 b 428 -7 222 31 311 -7 b 498 -3 453 -6 476 -5 b 564 6 520 -1 542 2 b 634 20 586 9 609 14 b 717 42 659 26 686 33 l 717 331 l 689 328 l 689 63 b 612 42 660 54 634 47 b 547 30 589 37 568 33 b 488 23 527 27 507 24 b 426 21 469 22 449 21 b 181 127 320 21 238 56 b 94 433 123 198 94 300 b 193 752 94 572 127 678 b 476 863 259 826 353 863 b 591 844 513 863 552 856 b 708 790 630 831 669 813 l 718 790 l 726 815 b 600 871 685 839 643 858 b 476 890 557 884 516 890 z m 418 1133 b 390 1106 400 1133 390 1124 b 418 1078 390 1087 400 1078 b 446 1106 437 1078 446 1087 b 418 1133 446 1124 437 1133 z "},"ġ":{"ha":739,"x_min":0,"x_max":0,"o":"m 418 686 b 167 596 309 686 225 656 b 81 335 109 536 81 449 b 157 83 81 225 106 142 b 378 -4 208 25 281 -4 b 436 -2 398 -4 418 -3 b 491 4 455 -1 473 1 b 549 15 509 7 528 11 b 617 32 569 20 592 25 l 617 257 l 589 254 l 589 51 b 526 37 566 46 545 41 b 475 27 508 33 491 29 b 428 22 459 25 444 23 b 378 21 412 21 395 21 b 178 101 291 21 224 48 b 110 333 133 155 110 232 b 189 576 110 440 136 521 b 418 660 242 632 318 660 b 511 645 448 660 479 655 b 608 604 544 635 576 622 l 615 604 l 624 629 b 520 672 590 648 556 662 b 418 686 484 681 450 686 z m 369 876 b 342 849 351 876 342 867 b 369 821 342 830 351 821 b 397 849 388 821 397 830 b 369 876 397 867 388 876 z "},"Ģ":{"ha":838,"x_min":0,"x_max":0,"o":"m 476 890 b 172 773 344 890 243 851 b 67 435 102 695 67 582 b 160 107 67 292 98 183 b 428 -7 222 31 311 -7 b 498 -3 453 -6 476 -5 b 564 6 520 -1 542 2 b 634 20 586 9 609 14 b 717 42 659 26 686 33 l 717 331 l 689 328 l 689 63 b 612 42 660 54 634 47 b 547 30 589 37 568 33 b 488 23 527 27 507 24 b 426 21 469 22 449 21 b 181 127 320 21 238 56 b 94 433 123 198 94 300 b 193 752 94 572 127 678 b 476 863 259 826 353 863 b 591 844 513 863 552 856 b 708 790 630 831 669 813 l 718 790 l 726 815 b 600 871 685 839 643 858 b 476 890 557 884 516 890 z m 433 -97 b 415 -112 426 -101 420 -106 l 415 -118 b 457 -165 443 -131 457 -147 b 382 -274 457 -200 432 -237 l 381 -278 l 394 -293 b 486 -164 456 -246 486 -203 b 433 -97 486 -135 469 -113 z "},"ģ":{"ha":739,"x_min":0,"x_max":0,"o":"m 418 686 b 167 596 309 686 225 656 b 81 335 109 536 81 449 b 157 83 81 225 106 142 b 378 -4 208 25 281 -4 b 436 -2 398 -4 418 -3 b 491 4 455 -1 473 1 b 549 15 509 7 528 11 b 617 32 569 20 592 25 l 617 257 l 589 254 l 589 51 b 526 37 566 46 545 41 b 475 27 508 33 491 29 b 428 22 459 25 444 23 b 378 21 412 21 395 21 b 178 101 291 21 224 48 b 110 333 133 155 110 232 b 189 576 110 440 136 521 b 418 660 242 632 318 660 b 511 645 448 660 479 655 b 608 604 544 635 576 622 l 615 604 l 624 629 b 520 672 590 648 556 662 b 418 686 484 681 450 686 z m 393 922 b 402 935 397 927 400 931 b 407 944 404 938 406 942 l 407 950 b 354 1004 372 958 354 976 b 415 1119 354 1038 375 1076 l 415 1125 l 397 1140 b 324 999 348 1088 324 1041 b 393 922 324 959 347 933 z "},"Ĥ":{"ha":931,"x_min":0,"x_max":0,"o":"m 778 0 l 778 885 l 750 885 l 750 464 l 181 464 l 181 885 l 153 885 l 153 0 l 181 0 l 181 436 l 750 436 l 750 0 z m 313 996 l 325 979 l 332 979 b 401 1059 356 1006 379 1033 b 465 1142 422 1085 444 1113 b 530 1059 487 1113 508 1085 b 599 979 552 1033 575 1006 l 606 979 l 618 996 b 550 1077 595 1022 572 1049 b 478 1171 528 1105 504 1137 l 453 1171 b 381 1077 427 1137 403 1105 b 313 996 358 1049 336 1022 z "},"ĥ":{"ha":817,"x_min":0,"x_max":0,"o":"m 667 0 l 667 682 l 639 682 l 639 360 l 178 360 l 178 682 l 150 682 l 150 0 l 178 0 l 178 333 l 639 333 l 639 0 z m 256 739 l 268 722 l 275 722 b 344 802 299 749 322 776 b 408 885 366 828 387 856 b 473 802 430 856 451 828 b 542 722 495 776 518 749 l 549 722 l 561 739 b 493 820 538 765 515 792 b 421 914 471 848 447 880 l 396 914 b 324 820 370 880 346 848 b 256 739 301 792 279 765 z "},"Ħ":{"ha":931,"x_min":0,"x_max":0,"o":"m 778 0 l 778 885 l 750 885 l 750 464 l 181 464 l 181 885 l 153 885 l 153 0 l 181 0 l 181 436 l 750 436 l 750 0 z m 665 1072 l 668 1096 l 664 1100 l 265 1100 l 263 1076 l 267 1072 z "},"ħ":{"ha":817,"x_min":0,"x_max":0,"o":"m 667 0 l 667 682 l 639 682 l 639 360 l 178 360 l 178 682 l 150 682 l 150 0 l 178 0 l 178 333 l 639 333 l 639 0 z m 608 815 l 611 839 l 607 843 l 208 843 l 206 819 l 210 815 z "},"Ĩ":{"ha":333,"x_min":0,"x_max":0,"o":"m 153 0 l 181 0 l 181 885 l 153 885 z "},"ĩ":{"ha":329,"x_min":0,"x_max":0,"o":"m 150 0 l 178 0 l 178 682 l 150 682 z "},"Ī":{"ha":333,"x_min":0,"x_max":0,"o":"m 153 0 l 181 0 l 181 885 l 153 885 z m 367 1072 l 369 1096 l 365 1100 l -33 1100 l -36 1076 l -32 1072 z "},"ī":{"ha":329,"x_min":0,"x_max":0,"o":"m 150 0 l 178 0 l 178 682 l 150 682 z m 365 815 l 368 839 l 364 843 l -35 843 l -37 819 l -33 815 z "},"Ĭ":{"ha":333,"x_min":0,"x_max":0,"o":"m 153 0 l 181 0 l 181 885 l 153 885 z "},"ĭ":{"ha":329,"x_min":0,"x_max":0,"o":"m 150 0 l 178 0 l 178 682 l 150 682 z "},"Į":{"ha":333,"x_min":0,"x_max":0,"o":"m 153 0 l 181 0 l 181 885 l 153 885 z "},"į":{"ha":329,"x_min":0,"x_max":0,"o":"m 150 0 l 178 0 l 178 682 l 150 682 z "},"İ":{"ha":333,"x_min":0,"x_max":0,"o":"m 167 1133 b 139 1106 148 1133 139 1124 b 167 1078 139 1087 148 1078 b 194 1106 185 1078 194 1087 b 167 1133 194 1124 185 1133 z m 153 0 l 181 0 l 181 885 l 153 885 z "},"ı":{"ha":329,"x_min":0,"x_max":0,"o":"m 150 0 l 178 0 l 178 682 l 150 682 z "},"Ĳ":{"ha":706,"x_min":0,"x_max":0,"o":"m 181 885 l 153 885 l 153 0 l 181 0 z m 556 160 l 556 885 l 349 885 l 344 863 l 350 857 l 528 857 l 528 157 b 489 8 528 100 515 50 b 361 -112 463 -33 420 -74 l 361 -121 l 376 -136 b 459 -72 409 -115 436 -94 b 515 -5 482 -51 500 -28 b 546 71 529 19 539 44 b 556 160 552 98 556 127 z "},"ĳ":{"ha":692,"x_min":0,"x_max":0,"o":"m 178 682 l 150 682 l 150 0 l 178 0 z m 542 124 l 542 682 l 372 682 l 368 660 l 372 656 l 514 656 l 514 122 b 487 8 514 78 505 40 b 396 -83 469 -23 438 -54 l 396 -90 l 413 -106 b 513 -5 460 -73 493 -40 b 542 124 532 30 542 73 z "},"Ĵ":{"ha":372,"x_min":0,"x_max":0,"o":"m 222 160 l 222 885 l 15 885 l 11 863 l 17 857 l 194 857 l 194 157 b 156 8 194 100 181 50 b 28 -112 130 -33 87 -74 l 28 -121 l 43 -136 b 126 -72 75 -115 103 -94 b 181 -5 148 -51 167 -28 b 213 71 196 19 206 44 b 222 160 219 98 222 127 z m 33 996 l 46 979 l 53 979 b 122 1059 77 1006 100 1033 b 186 1142 143 1085 165 1113 b 251 1059 207 1113 229 1085 b 319 979 272 1033 295 1006 l 326 979 l 339 996 b 271 1077 316 1022 293 1049 b 199 1171 249 1105 225 1137 l 174 1171 b 101 1077 148 1137 124 1105 b 33 996 79 1049 56 1022 z "},"ĵ":{"ha":363,"x_min":0,"x_max":0,"o":"m 213 124 l 213 682 l 43 682 l 39 660 l 43 656 l 185 656 l 185 122 b 158 8 185 78 176 40 b 67 -83 140 -23 109 -54 l 67 -90 l 83 -106 b 183 -5 131 -73 164 -40 b 213 124 203 30 213 73 z m 29 739 l 42 722 l 49 722 b 117 802 73 749 96 776 b 182 885 139 828 161 856 b 247 802 203 856 225 828 b 315 722 268 776 291 749 l 322 722 l 335 739 b 267 820 312 765 289 792 b 194 914 244 848 220 880 l 169 914 b 97 820 144 880 119 848 b 29 739 75 792 52 765 z "},"Ķ":{"ha":704,"x_min":0,"x_max":0,"o":"m 153 0 l 181 0 l 181 885 l 153 885 z m 258 472 l 669 885 l 626 885 l 567 819 l 221 474 l 221 469 b 438 224 290 386 363 304 b 667 -8 513 144 589 67 l 672 -10 b 683 -5 676 -8 680 -6 b 692 1 687 -3 690 -1 l 692 7 b 469 233 617 79 542 155 b 258 472 395 312 325 392 z m 381 -97 b 363 -112 373 -101 367 -106 l 363 -118 b 404 -165 390 -131 404 -147 b 329 -274 404 -200 379 -237 l 328 -278 l 342 -293 b 433 -164 403 -246 433 -203 b 381 -97 433 -135 416 -113 z "},"ķ":{"ha":635,"x_min":0,"x_max":0,"o":"m 150 0 l 178 0 l 178 682 l 150 682 z m 246 364 l 579 682 l 539 682 l 490 631 l 210 365 l 210 361 b 385 174 265 297 324 235 b 571 -6 446 113 508 53 l 576 -8 b 588 -3 580 -6 584 -5 b 597 1 592 -2 595 0 l 599 7 b 417 181 538 63 477 121 b 246 364 356 242 300 303 z m 313 -97 b 294 -112 305 -101 299 -106 l 294 -118 b 336 -165 322 -131 336 -147 b 261 -274 336 -200 311 -237 l 260 -278 l 274 -293 b 365 -164 335 -246 365 -203 b 313 -97 365 -135 348 -113 z "},"ĸ":{"ha":635,"x_min":0,"x_max":0,"o":"m 150 0 l 178 0 l 178 682 l 150 682 z m 246 364 l 579 682 l 539 682 l 490 631 l 210 365 l 210 361 b 385 174 265 297 324 235 b 571 -6 446 113 508 53 l 576 -8 b 588 -3 580 -6 584 -5 b 597 1 592 -2 595 0 l 599 7 b 417 181 538 63 477 121 b 246 364 356 242 300 303 z "},"Ĺ":{"ha":553,"x_min":0,"x_max":0,"o":"m 540 0 l 546 22 l 542 28 l 179 28 l 179 885 l 151 885 l 151 0 z m 388 1171 l 374 1185 l 367 1186 b 261 1082 329 1147 294 1113 b 164 996 229 1051 196 1023 l 179 978 l 186 976 b 288 1068 221 1007 255 1038 b 386 1164 320 1099 353 1131 z "},"ĺ":{"ha":550,"x_min":0,"x_max":0,"o":"m 471 0 l 475 22 l 472 26 l 176 26 l 176 682 l 149 682 l 149 0 z m 386 914 l 372 928 l 365 929 b 260 825 327 890 292 856 b 163 739 227 794 195 766 l 178 721 l 185 719 b 286 811 220 750 254 781 b 385 907 319 842 351 874 z "},"Ļ":{"ha":553,"x_min":0,"x_max":0,"o":"m 540 0 l 546 22 l 542 28 l 179 28 l 179 885 l 151 885 l 151 0 z m 328 -97 b 310 -112 320 -101 314 -106 l 310 -118 b 351 -165 338 -131 351 -147 b 276 -274 351 -200 326 -237 l 275 -278 l 289 -293 b 381 -164 350 -246 381 -203 b 328 -97 381 -135 363 -113 z "},"ļ":{"ha":550,"x_min":0,"x_max":0,"o":"m 471 0 l 475 22 l 472 26 l 176 26 l 176 682 l 149 682 l 149 0 z m 113 -97 b 94 -112 105 -101 99 -106 l 94 -118 b 136 -165 122 -131 136 -147 b 61 -274 136 -200 111 -237 l 60 -278 l 74 -293 b 165 -164 135 -246 165 -203 b 113 -97 165 -135 148 -113 z "},"Ľ":{"ha":567,"x_min":0,"x_max":0,"o":"m 540 0 l 546 22 l 542 28 l 179 28 l 179 885 l 151 885 l 151 0 z m 449 601 l 453 596 l 476 599 l 493 799 l 489 804 l 465 801 z "},"ľ":{"ha":521,"x_min":0,"x_max":0,"o":"m 471 0 l 475 22 l 472 26 l 176 26 l 176 682 l 149 682 l 149 0 z m 399 442 l 403 436 l 426 439 l 443 639 l 439 644 l 415 642 z "},"Ŀ":{"ha":553,"x_min":0,"x_max":0,"o":"m 540 0 l 546 22 l 542 28 l 179 28 l 179 885 l 151 885 l 151 0 z m 276 358 b 249 331 258 358 249 349 b 276 303 249 312 258 303 b 304 331 295 303 304 312 b 276 358 304 349 295 358 z "},"ŀ":{"ha":869,"x_min":0,"x_max":0,"o":"m 471 0 l 475 22 l 472 26 l 176 26 l 176 682 l 149 682 l 149 0 z m 710 358 b 682 331 691 358 682 349 b 710 303 682 312 691 303 b 738 331 728 303 738 312 b 710 358 738 349 728 358 z "},"Ł":{"ha":553,"x_min":0,"x_max":0,"o":"m 540 0 l 546 22 l 542 28 l 179 28 l 179 885 l 151 885 l 151 0 z m 636 339 l 639 363 l 635 367 l -83 367 l -86 343 l -82 339 z "},"ł":{"ha":550,"x_min":0,"x_max":0,"o":"m 471 0 l 475 22 l 472 26 l 176 26 l 176 682 l 149 682 l 149 0 z m 635 339 l 638 363 l 633 367 l -85 367 l -87 343 l -83 339 z "},"Ń":{"ha":931,"x_min":0,"x_max":0,"o":"m 775 0 l 776 244 l 778 886 l 750 883 l 747 58 l 742 58 l 181 885 l 154 885 l 153 264 l 153 0 l 181 0 l 181 276 l 182 826 l 188 826 l 749 0 z m 576 1171 l 563 1185 l 556 1186 b 450 1082 518 1147 482 1113 b 353 996 418 1051 385 1023 l 368 978 l 375 976 b 476 1068 410 1007 444 1038 b 575 1164 509 1099 542 1131 z "},"ń":{"ha":817,"x_min":0,"x_max":0,"o":"m 268 0 l 269 190 l 271 683 l 243 681 l 242 56 l 236 56 l -217 682 l -244 682 l -246 203 l -246 0 l -218 0 l -218 214 l -217 626 l -212 626 l 240 0 z m 519 914 l 506 928 l 499 929 b 393 825 461 890 425 856 b 296 739 361 794 328 766 l 311 721 l 318 719 b 419 811 353 750 387 781 b 518 907 452 842 485 874 z "},"Ņ":{"ha":931,"x_min":0,"x_max":0,"o":"m 775 0 l 776 244 l 778 886 l 750 883 l 747 58 l 742 58 l 181 885 l 154 885 l 153 264 l 153 0 l 181 0 l 181 276 l 182 826 l 188 826 l 749 0 z m 458 -97 b 440 -112 451 -101 445 -106 l 440 -118 b 482 -165 468 -131 482 -147 b 407 -274 482 -200 457 -237 l 406 -278 l 419 -293 b 511 -164 481 -246 511 -203 b 458 -97 511 -135 494 -113 z "},"ņ":{"ha":817,"x_min":0,"x_max":0,"o":"m 664 0 l 665 190 l 667 683 l 639 681 l 638 56 l 632 56 l 179 682 l 151 682 l 150 203 l 150 0 l 178 0 l 178 214 l 179 626 l 183 626 l 636 0 z m 193 -97 b 175 -112 186 -101 180 -106 l 175 -118 b 217 -165 203 -131 217 -147 b 142 -274 217 -200 192 -237 l 140 -278 l 154 -293 b 246 -164 215 -246 246 -203 b 193 -97 246 -135 228 -113 z "},"Ň":{"ha":931,"x_min":0,"x_max":0,"o":"m 775 0 l 776 244 l 778 886 l 750 883 l 747 58 l 742 58 l 181 885 l 154 885 l 153 264 l 153 0 l 181 0 l 181 276 l 182 826 l 188 826 l 749 0 z "},"ň":{"ha":817,"x_min":0,"x_max":0,"o":"m 268 0 l 269 190 l 271 683 l 243 681 l 242 56 l 236 56 l -217 682 l -244 682 l -246 203 l -246 0 l -218 0 l -218 214 l -217 626 l -212 626 l 240 0 z "},"Ŋ":{"ha":931,"x_min":0,"x_max":0,"o":"m 775 0 l 776 244 l 778 886 l 750 883 l 747 58 l 742 58 l 181 885 l 154 885 l 153 264 l 153 0 l 181 0 l 181 276 l 182 826 l 188 826 l 749 0 z m 778 160 l 778 885 l 571 885 l 567 863 l 572 857 l 750 857 l 750 157 b 711 8 750 100 737 50 b 583 -112 685 -33 643 -74 l 583 -121 l 599 -136 b 681 -72 631 -115 659 -94 b 737 -5 704 -51 722 -28 b 768 71 751 19 762 44 b 778 160 775 98 778 127 z "},"ŋ":{"ha":817,"x_min":0,"x_max":0,"o":"m 664 0 l 665 190 l 667 683 l 639 681 l 638 56 l 632 56 l 179 682 l 151 682 l 150 203 l 150 0 l 178 0 l 178 214 l 179 626 l 183 626 l 636 0 z "},"Ō":{"ha":871,"x_min":0,"x_max":0,"o":"m 442 892 b 163 776 320 892 228 853 b 67 440 99 698 67 587 b 160 108 67 296 98 185 b 428 -7 222 31 311 -7 b 707 113 549 -7 642 33 b 804 457 772 192 804 307 b 711 780 804 598 773 705 b 442 892 649 854 559 892 z m 442 864 b 690 759 550 864 633 829 b 776 457 748 689 776 588 b 686 133 776 316 746 208 b 428 21 626 58 540 21 b 181 129 320 21 238 57 b 94 440 123 201 94 305 b 184 755 94 577 124 682 b 442 864 244 828 330 864 z m 635 1072 l 638 1096 l 633 1100 l 235 1100 l 232 1076 l 236 1072 z "},"ō":{"ha":768,"x_min":0,"x_max":0,"o":"m 390 688 b 160 597 289 688 213 657 b 81 339 107 537 81 451 b 158 83 81 228 106 143 b 378 -6 209 24 282 -6 b 608 87 478 -6 554 25 b 688 353 661 148 688 237 b 611 601 688 460 662 543 b 390 688 560 659 487 688 z m 389 660 b 590 581 477 660 544 633 b 660 350 637 528 660 451 b 587 106 660 244 635 162 b 378 21 538 49 469 21 b 178 103 291 21 224 48 b 110 340 133 157 110 237 b 181 578 110 444 134 523 b 389 660 229 632 298 660 z m 583 815 l 586 839 l 582 843 l 183 843 l 181 819 l 185 815 z "},"Ŏ":{"ha":871,"x_min":0,"x_max":0,"o":"m 442 892 b 163 776 320 892 228 853 b 67 440 99 698 67 587 b 160 108 67 296 98 185 b 428 -7 222 31 311 -7 b 707 113 549 -7 642 33 b 804 457 772 192 804 307 b 711 780 804 598 773 705 b 442 892 649 854 559 892 z m 442 864 b 690 759 550 864 633 829 b 776 457 748 689 776 588 b 686 133 776 316 746 208 b 428 21 626 58 540 21 b 181 129 320 21 238 57 b 94 440 123 201 94 305 b 184 755 94 577 124 682 b 442 864 244 828 330 864 z "},"ŏ":{"ha":768,"x_min":0,"x_max":0,"o":"m 390 688 b 160 597 289 688 213 657 b 81 339 107 537 81 451 b 158 83 81 228 106 143 b 378 -6 209 24 282 -6 b 608 87 478 -6 554 25 b 688 353 661 148 688 237 b 611 601 688 460 662 543 b 390 688 560 659 487 688 z m 389 660 b 590 581 477 660 544 633 b 660 350 637 528 660 451 b 587 106 660 244 635 162 b 378 21 538 49 469 21 b 178 103 291 21 224 48 b 110 340 133 157 110 237 b 181 578 110 444 134 523 b 389 660 229 632 298 660 z "},"Ő":{"ha":871,"x_min":0,"x_max":0,"o":"m 442 892 b 163 776 320 892 228 853 b 67 440 99 698 67 587 b 160 108 67 296 98 185 b 428 -7 222 31 311 -7 b 707 113 549 -7 642 33 b 804 457 772 192 804 307 b 711 780 804 598 773 705 b 442 892 649 854 559 892 z m 442 864 b 690 759 550 864 633 829 b 776 457 748 689 776 588 b 686 133 776 316 746 208 b 428 21 626 58 540 21 b 181 129 320 21 238 57 b 94 440 123 201 94 305 b 184 755 94 577 124 682 b 442 864 244 828 330 864 z m 276 1171 l 263 1185 l 256 1186 b 150 1082 218 1147 182 1113 b 53 996 118 1051 85 1023 l 68 978 l 75 976 b 176 1068 110 1007 144 1038 b 275 1164 209 1099 242 1131 z m 818 1171 l 804 1185 l 797 1186 b 692 1082 759 1147 724 1113 b 594 996 659 1051 627 1023 l 610 978 l 617 976 b 718 1068 652 1007 686 1038 b 817 1164 750 1099 783 1131 z "},"ő":{"ha":768,"x_min":0,"x_max":0,"o":"m 390 688 b 160 597 289 688 213 657 b 81 339 107 537 81 451 b 158 83 81 228 106 143 b 378 -6 209 24 282 -6 b 608 87 478 -6 554 25 b 688 353 661 148 688 237 b 611 601 688 460 662 543 b 390 688 560 659 487 688 z m 389 660 b 590 581 477 660 544 633 b 660 350 637 528 660 451 b 587 106 660 244 635 162 b 378 21 538 49 469 21 b 178 103 291 21 224 48 b 110 340 133 157 110 237 b 181 578 110 444 134 523 b 389 660 229 632 298 660 z m 225 914 l 211 928 l 204 929 b 99 825 166 890 131 856 b 1 739 66 794 34 766 l 17 721 l 24 719 b 125 811 59 750 93 781 b 224 907 157 842 190 874 z m 767 914 l 753 928 l 746 929 b 640 825 708 890 673 856 b 543 739 608 794 575 766 l 558 721 l 565 719 b 667 811 600 750 634 781 b 765 907 699 842 732 874 z "},"Œ":{"ha":1157,"x_min":0,"x_max":0,"o":"m 497 901 b 178 780 359 901 253 861 b 67 440 104 699 67 586 b 175 103 67 296 103 184 b 483 -17 247 23 350 -17 b 593 -8 519 -17 555 -14 b 710 0 631 -3 670 0 l 1111 0 l 1117 22 l 1113 28 l 707 28 l 707 444 l 1036 444 l 1042 467 l 1038 472 l 707 472 l 707 857 l 1106 857 l 1111 879 l 1107 885 l 710 885 b 603 893 671 885 635 888 b 497 901 570 899 535 901 z m 497 874 b 544 872 512 874 528 873 b 591 867 561 870 577 869 b 631 863 605 866 619 864 b 657 858 643 861 651 859 b 672 848 664 856 669 853 b 676 814 675 843 676 831 l 679 60 b 672 36 679 49 677 41 b 640 25 666 31 656 28 b 613 21 634 24 625 23 b 575 16 602 19 589 17 b 532 13 561 15 547 13 b 490 11 517 12 503 11 b 195 125 361 11 262 49 b 94 439 128 201 94 306 b 199 760 94 577 129 684 b 497 874 268 836 368 874 z "},"œ":{"ha":1003,"x_min":0,"x_max":0,"o":"m 422 -12 b 514 -6 452 -12 482 -10 b 610 0 545 -2 577 0 l 940 0 l 944 22 l 942 26 l 610 26 l 610 329 l 878 329 l 883 351 l 879 357 l 610 357 l 610 656 l 936 654 l 940 676 l 938 682 l 610 682 b 522 688 578 682 549 684 b 435 694 494 692 465 694 b 172 601 321 694 233 663 b 81 339 111 538 81 451 b 169 80 81 228 110 141 b 422 -12 229 18 313 -12 z m 433 668 b 472 666 445 668 458 667 b 510 662 485 665 498 663 b 542 658 522 660 533 659 b 564 656 552 656 559 656 b 576 647 570 655 575 652 b 579 621 578 643 579 634 l 582 53 b 576 33 582 44 580 37 b 550 25 572 30 563 27 b 498 18 540 23 522 21 b 428 14 473 15 450 14 b 190 99 322 14 243 42 b 110 339 136 156 110 236 b 194 582 110 444 138 525 b 433 668 250 639 330 668 z "},"Ŕ":{"ha":719,"x_min":0,"x_max":0,"o":"m 396 371 b 548 472 463 391 513 425 b 600 644 583 518 600 576 b 535 825 600 723 578 783 b 349 888 492 867 430 888 l 153 885 l 153 0 l 181 0 l 181 365 l 367 365 b 488 177 406 301 446 239 b 622 -7 530 116 575 54 l 631 -10 b 647 1 637 -7 643 -3 l 647 7 b 516 187 601 67 557 127 b 396 371 475 247 435 308 z m 378 393 l 181 393 l 181 858 l 358 860 b 517 800 428 857 481 837 b 572 644 554 763 572 711 b 522 482 572 580 556 525 b 378 393 489 438 441 409 z m 471 1171 l 457 1185 l 450 1186 b 344 1082 412 1147 377 1113 b 247 996 312 1051 280 1023 l 263 978 l 269 976 b 371 1068 305 1007 338 1038 b 469 1164 403 1099 436 1131 z "},"ŕ":{"ha":647,"x_min":0,"x_max":0,"o":"m 358 285 b 481 363 412 300 453 327 b 524 496 509 400 524 444 b 469 635 524 557 506 603 b 315 683 433 667 382 683 l 150 682 l 150 0 l 178 0 l 178 279 l 329 279 b 428 135 361 230 394 182 b 535 -4 462 89 498 42 l 543 -8 b 563 1 550 -6 556 -2 l 563 7 b 455 144 525 52 489 98 b 358 285 421 190 389 237 z m 338 304 l 178 306 l 178 657 l 321 658 b 450 613 377 656 420 640 b 494 494 480 585 494 545 b 454 372 494 445 481 405 b 338 304 427 340 388 317 z m 435 914 l 421 928 l 414 929 b 308 825 376 890 341 856 b 211 739 276 794 244 766 l 226 721 l 233 719 b 335 811 269 750 302 781 b 433 907 367 842 400 874 z "},"Ŗ":{"ha":719,"x_min":0,"x_max":0,"o":"m 396 371 b 548 472 463 391 513 425 b 600 644 583 518 600 576 b 535 825 600 723 578 783 b 349 888 492 867 430 888 l 153 885 l 153 0 l 181 0 l 181 365 l 367 365 b 488 177 406 301 446 239 b 622 -7 530 116 575 54 l 631 -10 b 647 1 637 -7 643 -3 l 647 7 b 516 187 601 67 557 127 b 396 371 475 247 435 308 z m 378 393 l 181 393 l 181 858 l 358 860 b 517 800 428 857 481 837 b 572 644 554 763 572 711 b 522 482 572 580 556 525 b 378 393 489 438 441 409 z m 360 -97 b 342 -112 352 -101 346 -106 l 342 -118 b 383 -165 369 -131 383 -147 b 308 -274 383 -200 358 -237 l 307 -278 l 321 -293 b 413 -164 382 -246 413 -203 b 360 -97 413 -135 395 -113 z "},"ŗ":{"ha":647,"x_min":0,"x_max":0,"o":"m 358 285 b 481 363 412 300 453 327 b 524 496 509 400 524 444 b 469 635 524 557 506 603 b 315 683 433 667 382 683 l 150 682 l 150 0 l 178 0 l 178 279 l 329 279 b 428 135 361 230 394 182 b 535 -4 462 89 498 42 l 543 -8 b 563 1 550 -6 556 -2 l 563 7 b 455 144 525 52 489 98 b 358 285 421 190 389 237 z m 338 304 l 178 306 l 178 657 l 321 658 b 450 613 377 656 420 640 b 494 494 480 585 494 545 b 454 372 494 445 481 405 b 338 304 427 340 388 317 z m 297 -97 b 279 -112 290 -101 284 -106 l 279 -118 b 321 -165 307 -131 321 -147 b 246 -274 321 -200 296 -237 l 244 -278 l 258 -293 b 350 -164 319 -246 350 -203 b 297 -97 350 -135 332 -113 z "},"Ř":{"ha":719,"x_min":0,"x_max":0,"o":"m 396 371 b 548 472 463 391 513 425 b 600 644 583 518 600 576 b 535 825 600 723 578 783 b 349 888 492 867 430 888 l 153 885 l 153 0 l 181 0 l 181 365 l 367 365 b 488 177 406 301 446 239 b 622 -7 530 116 575 54 l 631 -10 b 647 1 637 -7 643 -3 l 647 7 b 516 187 601 67 557 127 b 396 371 475 247 435 308 z m 378 393 l 181 393 l 181 858 l 358 860 b 517 800 428 857 481 837 b 572 644 554 763 572 711 b 522 482 572 580 556 525 b 378 393 489 438 441 409 z "},"ř":{"ha":647,"x_min":0,"x_max":0,"o":"m 358 285 b 481 363 412 300 453 327 b 524 496 509 400 524 444 b 469 635 524 557 506 603 b 315 683 433 667 382 683 l 150 682 l 150 0 l 178 0 l 178 279 l 329 279 b 428 135 361 230 394 182 b 535 -4 462 89 498 42 l 543 -8 b 563 1 550 -6 556 -2 l 563 7 b 455 144 525 52 489 98 b 358 285 421 190 389 237 z m 338 304 l 178 306 l 178 657 l 321 658 b 450 613 377 656 420 640 b 494 494 480 585 494 545 b 454 372 494 445 481 405 b 338 304 427 340 388 317 z "},"Ś":{"ha":618,"x_min":0,"x_max":0,"o":"m 342 889 b 240 872 305 889 271 883 b 161 824 210 860 183 844 b 110 755 139 804 122 781 b 92 671 98 728 92 700 b 123 567 92 629 102 594 b 201 494 144 539 170 515 b 303 440 233 474 267 456 b 404 387 339 423 373 406 b 483 320 436 368 462 346 b 514 225 503 295 514 263 b 498 151 514 200 509 175 b 451 86 487 127 472 106 b 378 40 431 67 407 51 b 282 22 350 28 318 22 b 179 38 250 22 215 28 b 81 89 143 49 110 66 l 74 86 l 72 60 b 174 11 102 38 136 22 b 283 -6 212 0 248 -6 b 388 13 321 -6 356 1 b 469 63 419 26 446 42 b 523 137 493 84 510 109 b 542 225 535 165 542 194 b 510 332 542 268 531 303 b 432 406 490 361 463 385 b 331 460 400 426 367 444 b 229 513 294 477 261 494 b 151 576 198 531 172 552 b 119 667 130 600 119 631 b 134 735 119 689 124 712 b 176 798 144 758 158 779 b 245 844 195 817 218 832 b 339 861 272 855 304 861 b 413 852 360 861 385 858 b 496 822 441 846 469 836 l 506 824 l 511 849 b 418 881 479 864 448 875 b 342 889 388 886 363 889 z m 421 1171 l 407 1185 l 400 1186 b 294 1082 362 1147 327 1113 b 197 996 262 1051 230 1023 l 213 978 l 219 976 b 321 1068 255 1007 288 1038 b 419 1164 353 1099 386 1131 z "},"ś":{"ha":561,"x_min":0,"x_max":0,"o":"m 308 685 b 224 672 278 685 250 680 b 159 635 199 663 177 651 b 117 581 141 620 127 602 b 101 515 106 560 101 538 b 127 435 101 483 110 456 b 191 379 144 413 166 395 b 274 337 216 363 244 349 b 356 297 303 324 331 311 b 420 246 382 282 403 265 b 446 174 437 226 446 202 b 433 119 446 155 441 137 b 396 70 424 101 412 84 b 338 35 380 56 361 44 b 260 22 314 27 288 22 b 174 35 233 22 204 26 b 93 74 144 43 117 56 l 86 72 l 85 46 b 169 8 110 29 138 17 b 260 -4 201 0 231 -4 b 347 10 291 -4 320 1 b 414 49 373 20 395 33 b 458 106 432 66 447 84 b 474 175 468 128 474 151 b 448 258 474 208 465 236 b 384 315 431 279 409 298 b 301 358 359 331 331 345 b 219 397 272 370 244 383 b 155 445 193 411 172 427 b 129 513 138 463 129 486 b 141 564 129 529 133 546 b 175 611 149 581 160 597 b 230 645 190 625 208 636 b 306 658 252 654 277 658 b 367 651 324 658 345 656 b 436 628 390 647 413 639 l 444 629 l 450 654 b 373 678 423 666 397 674 b 308 685 348 683 327 685 z m 392 914 l 378 928 l 371 929 b 265 825 333 890 298 856 b 168 739 233 794 200 766 l 183 721 l 190 719 b 292 811 225 750 259 781 b 390 907 324 842 357 874 z "},"Ŝ":{"ha":618,"x_min":0,"x_max":0,"o":"m 342 889 b 240 872 305 889 271 883 b 161 824 210 860 183 844 b 110 755 139 804 122 781 b 92 671 98 728 92 700 b 123 567 92 629 102 594 b 201 494 144 539 170 515 b 303 440 233 474 267 456 b 404 387 339 423 373 406 b 483 320 436 368 462 346 b 514 225 503 295 514 263 b 498 151 514 200 509 175 b 451 86 487 127 472 106 b 378 40 431 67 407 51 b 282 22 350 28 318 22 b 179 38 250 22 215 28 b 81 89 143 49 110 66 l 74 86 l 72 60 b 174 11 102 38 136 22 b 283 -6 212 0 248 -6 b 388 13 321 -6 356 1 b 469 63 419 26 446 42 b 523 137 493 84 510 109 b 542 225 535 165 542 194 b 510 332 542 268 531 303 b 432 406 490 361 463 385 b 331 460 400 426 367 444 b 229 513 294 477 261 494 b 151 576 198 531 172 552 b 119 667 130 600 119 631 b 134 735 119 689 124 712 b 176 798 144 758 158 779 b 245 844 195 817 218 832 b 339 861 272 855 304 861 b 413 852 360 861 385 858 b 496 822 441 846 469 836 l 506 824 l 511 849 b 418 881 479 864 448 875 b 342 889 388 886 363 889 z m 156 996 l 168 979 l 175 979 b 244 1059 199 1006 222 1033 b 308 1142 266 1085 287 1113 b 373 1059 330 1113 351 1085 b 442 979 395 1033 418 1006 l 449 979 l 461 996 b 393 1077 438 1022 415 1049 b 321 1171 371 1105 347 1137 l 296 1171 b 224 1077 270 1137 246 1105 b 156 996 201 1049 179 1022 z "},"ŝ":{"ha":561,"x_min":0,"x_max":0,"o":"m 308 685 b 224 672 278 685 250 680 b 159 635 199 663 177 651 b 117 581 141 620 127 602 b 101 515 106 560 101 538 b 127 435 101 483 110 456 b 191 379 144 413 166 395 b 274 337 216 363 244 349 b 356 297 303 324 331 311 b 420 246 382 282 403 265 b 446 174 437 226 446 202 b 433 119 446 155 441 137 b 396 70 424 101 412 84 b 338 35 380 56 361 44 b 260 22 314 27 288 22 b 174 35 233 22 204 26 b 93 74 144 43 117 56 l 86 72 l 85 46 b 169 8 110 29 138 17 b 260 -4 201 0 231 -4 b 347 10 291 -4 320 1 b 414 49 373 20 395 33 b 458 106 432 66 447 84 b 474 175 468 128 474 151 b 448 258 474 208 465 236 b 384 315 431 279 409 298 b 301 358 359 331 331 345 b 219 397 272 370 244 383 b 155 445 193 411 172 427 b 129 513 138 463 129 486 b 141 564 129 529 133 546 b 175 611 149 581 160 597 b 230 645 190 625 208 636 b 306 658 252 654 277 658 b 367 651 324 658 345 656 b 436 628 390 647 413 639 l 444 629 l 450 654 b 373 678 423 666 397 674 b 308 685 348 683 327 685 z m 128 739 l 140 722 l 147 722 b 216 802 171 749 194 776 b 281 885 238 828 259 856 b 345 802 302 856 323 828 b 414 722 367 776 390 749 l 421 722 l 433 739 b 365 820 410 765 388 792 b 293 914 343 848 319 880 l 268 914 b 196 820 242 880 218 848 b 128 739 174 792 151 765 z "},"Ş":{"ha":618,"x_min":0,"x_max":0,"o":"m 342 889 b 240 872 305 889 271 883 b 161 824 210 860 183 844 b 110 755 139 804 122 781 b 92 671 98 728 92 700 b 123 567 92 629 102 594 b 201 494 144 539 170 515 b 303 440 233 474 267 456 b 404 387 339 423 373 406 b 483 320 436 368 462 346 b 514 225 503 295 514 263 b 498 151 514 200 509 175 b 451 86 487 127 472 106 b 378 40 431 67 407 51 b 282 22 350 28 318 22 b 179 38 250 22 215 28 b 81 89 143 49 110 66 l 74 86 l 72 60 b 174 11 102 38 136 22 b 283 -6 212 0 248 -6 b 388 13 321 -6 356 1 b 469 63 419 26 446 42 b 523 137 493 84 510 109 b 542 225 535 165 542 194 b 510 332 542 268 531 303 b 432 406 490 361 463 385 b 331 460 400 426 367 444 b 229 513 294 477 261 494 b 151 576 198 531 172 552 b 119 667 130 600 119 631 b 134 735 119 689 124 712 b 176 798 144 758 158 779 b 245 844 195 817 218 832 b 339 861 272 855 304 861 b 413 852 360 861 385 858 b 496 822 441 846 469 836 l 506 824 l 511 849 b 418 881 479 864 448 875 b 342 889 388 886 363 889 z "},"ş":{"ha":561,"x_min":0,"x_max":0,"o":"m 308 685 b 224 672 278 685 250 680 b 159 635 199 663 177 651 b 117 581 141 620 127 602 b 101 515 106 560 101 538 b 127 435 101 483 110 456 b 191 379 144 413 166 395 b 274 337 216 363 244 349 b 356 297 303 324 331 311 b 420 246 382 282 403 265 b 446 174 437 226 446 202 b 433 119 446 155 441 137 b 396 70 424 101 412 84 b 338 35 380 56 361 44 b 260 22 314 27 288 22 b 174 35 233 22 204 26 b 93 74 144 43 117 56 l 86 72 l 85 46 b 169 8 110 29 138 17 b 260 -4 201 0 231 -4 b 347 10 291 -4 320 1 b 414 49 373 20 395 33 b 458 106 432 66 447 84 b 474 175 468 128 474 151 b 448 258 474 208 465 236 b 384 315 431 279 409 298 b 301 358 359 331 331 345 b 219 397 272 370 244 383 b 155 445 193 411 172 427 b 129 513 138 463 129 486 b 141 564 129 529 133 546 b 175 611 149 581 160 597 b 230 645 190 625 208 636 b 306 658 252 654 277 658 b 367 651 324 658 345 656 b 436 628 390 647 413 639 l 444 629 l 450 654 b 373 678 423 666 397 674 b 308 685 348 683 327 685 z "},"Š":{"ha":618,"x_min":0,"x_max":0,"o":"m 342 889 b 240 872 305 889 271 883 b 161 824 210 860 183 844 b 110 755 139 804 122 781 b 92 671 98 728 92 700 b 123 567 92 629 102 594 b 201 494 144 539 170 515 b 303 440 233 474 267 456 b 404 387 339 423 373 406 b 483 320 436 368 462 346 b 514 225 503 295 514 263 b 498 151 514 200 509 175 b 451 86 487 127 472 106 b 378 40 431 67 407 51 b 282 22 350 28 318 22 b 179 38 250 22 215 28 b 81 89 143 49 110 66 l 74 86 l 72 60 b 174 11 102 38 136 22 b 283 -6 212 0 248 -6 b 388 13 321 -6 356 1 b 469 63 419 26 446 42 b 523 137 493 84 510 109 b 542 225 535 165 542 194 b 510 332 542 268 531 303 b 432 406 490 361 463 385 b 331 460 400 426 367 444 b 229 513 294 477 261 494 b 151 576 198 531 172 552 b 119 667 130 600 119 631 b 134 735 119 689 124 712 b 176 798 144 758 158 779 b 245 844 195 817 218 832 b 339 861 272 855 304 861 b 413 852 360 861 385 858 b 496 822 441 846 469 836 l 506 824 l 511 849 b 418 881 479 864 448 875 b 342 889 388 886 363 889 z "},"š":{"ha":561,"x_min":0,"x_max":0,"o":"m 308 685 b 224 672 278 685 250 680 b 159 635 199 663 177 651 b 117 581 141 620 127 602 b 101 515 106 560 101 538 b 127 435 101 483 110 456 b 191 379 144 413 166 395 b 274 337 216 363 244 349 b 356 297 303 324 331 311 b 420 246 382 282 403 265 b 446 174 437 226 446 202 b 433 119 446 155 441 137 b 396 70 424 101 412 84 b 338 35 380 56 361 44 b 260 22 314 27 288 22 b 174 35 233 22 204 26 b 93 74 144 43 117 56 l 86 72 l 85 46 b 169 8 110 29 138 17 b 260 -4 201 0 231 -4 b 347 10 291 -4 320 1 b 414 49 373 20 395 33 b 458 106 432 66 447 84 b 474 175 468 128 474 151 b 448 258 474 208 465 236 b 384 315 431 279 409 298 b 301 358 359 331 331 345 b 219 397 272 370 244 383 b 155 445 193 411 172 427 b 129 513 138 463 129 486 b 141 564 129 529 133 546 b 175 611 149 581 160 597 b 230 645 190 625 208 636 b 306 658 252 654 277 658 b 367 651 324 658 345 656 b 436 628 390 647 413 639 l 444 629 l 450 654 b 373 678 423 666 397 674 b 308 685 348 683 327 685 z "},"Ţ":{"ha":1157,"x_min":0,"x_max":0,"o":""},"ţ":{"ha":1157,"x_min":0,"x_max":0,"o":""},"Ť":{"ha":660,"x_min":0,"x_max":0,"o":"m 615 857 l 621 879 l 617 885 l 44 885 l 39 863 l 43 857 l 317 857 l 317 0 l 344 0 l 344 857 z "},"ť":{"ha":767,"x_min":0,"x_max":0,"o":"m 533 654 l 538 676 l 535 682 l 63 682 l 58 660 l 63 654 l 182 656 l 285 656 l 285 0 l 313 0 l 313 656 l 418 656 z m 658 881 b 649 868 655 876 652 872 b 644 858 647 864 645 861 l 644 853 b 697 799 680 844 697 826 b 636 683 697 765 677 727 l 636 678 l 654 663 b 728 804 703 714 728 762 b 658 881 728 844 705 869 z "},"Ŧ":{"ha":660,"x_min":0,"x_max":0,"o":"m 615 857 l 621 879 l 617 885 l 44 885 l 39 863 l 43 857 l 317 857 l 317 0 l 344 0 l 344 857 z m 529 1072 l 532 1096 l 528 1100 l 129 1100 l 126 1076 l 131 1072 z "},"ŧ":{"ha":594,"x_min":0,"x_max":0,"o":"m 533 654 l 538 676 l 535 682 l 63 682 l 58 660 l 63 654 l 182 656 l 285 656 l 285 0 l 313 0 l 313 656 l 418 656 z m 497 815 l 500 839 l 496 843 l 97 843 l 94 819 l 99 815 z "},"Ũ":{"ha":850,"x_min":0,"x_max":0,"o":"m 731 318 l 731 885 l 703 885 l 703 318 b 631 99 703 223 679 150 b 425 22 584 48 515 22 b 217 99 334 22 265 48 b 147 318 170 150 146 223 l 147 885 l 119 885 l 119 318 b 197 78 119 213 145 133 b 425 -6 249 22 325 -6 b 654 79 524 -6 600 23 b 731 318 708 136 733 215 z "},"ũ":{"ha":751,"x_min":0,"x_max":0,"o":"m 628 244 l 628 682 l 600 682 l 600 246 b 542 80 600 174 581 118 b 375 22 504 41 448 22 b 208 80 302 22 246 41 b 151 246 169 118 150 174 l 154 682 l 125 682 l 125 344 l 124 244 b 186 60 122 164 143 102 b 375 -4 230 17 293 -4 b 564 61 456 -4 519 18 b 628 244 608 105 630 166 z "},"Ū":{"ha":850,"x_min":0,"x_max":0,"o":"m 731 318 l 731 885 l 703 885 l 703 318 b 631 99 703 223 679 150 b 425 22 584 48 515 22 b 217 99 334 22 265 48 b 147 318 170 150 146 223 l 147 885 l 119 885 l 119 318 b 197 78 119 213 145 133 b 425 -6 249 22 325 -6 b 654 79 524 -6 600 23 b 731 318 708 136 733 215 z m 625 1072 l 628 1096 l 624 1100 l 225 1100 l 222 1076 l 226 1072 z "},"ū":{"ha":751,"x_min":0,"x_max":0,"o":"m 628 244 l 628 682 l 600 682 l 600 246 b 542 80 600 174 581 118 b 375 22 504 41 448 22 b 208 80 302 22 246 41 b 151 246 169 118 150 174 l 154 682 l 125 682 l 125 344 l 124 244 b 186 60 122 164 143 102 b 375 -4 230 17 293 -4 b 564 61 456 -4 519 18 b 628 244 608 105 630 166 z m 575 815 l 578 839 l 574 843 l 175 843 l 172 819 l 176 815 z "},"Ŭ":{"ha":850,"x_min":0,"x_max":0,"o":"m 731 318 l 731 885 l 703 885 l 703 318 b 631 99 703 223 679 150 b 425 22 584 48 515 22 b 217 99 334 22 265 48 b 147 318 170 150 146 223 l 147 885 l 119 885 l 119 318 b 197 78 119 213 145 133 b 425 -6 249 22 325 -6 b 654 79 524 -6 600 23 b 731 318 708 136 733 215 z "},"ŭ":{"ha":751,"x_min":0,"x_max":0,"o":"m 628 244 l 628 682 l 600 682 l 600 246 b 542 80 600 174 581 118 b 375 22 504 41 448 22 b 208 80 302 22 246 41 b 151 246 169 118 150 174 l 154 682 l 125 682 l 125 344 l 124 244 b 186 60 122 164 143 102 b 375 -4 230 17 293 -4 b 564 61 456 -4 519 18 b 628 244 608 105 630 166 z "},"Ů":{"ha":850,"x_min":0,"x_max":0,"o":"m 731 318 l 731 885 l 703 885 l 703 318 b 631 99 703 223 679 150 b 425 22 584 48 515 22 b 217 99 334 22 265 48 b 147 318 170 150 146 223 l 147 885 l 119 885 l 119 318 b 197 78 119 213 145 133 b 425 -6 249 22 325 -6 b 654 79 524 -6 600 23 b 731 318 708 136 733 215 z m 424 1185 b 353 1157 394 1185 370 1175 b 326 1089 335 1138 326 1116 b 357 1017 326 1058 337 1034 b 424 992 377 1000 400 992 b 491 1017 448 992 470 1000 b 522 1088 512 1033 522 1057 b 497 1154 522 1112 514 1134 b 424 1185 481 1175 456 1185 z m 424 1157 b 477 1136 448 1157 466 1150 b 494 1088 489 1122 494 1106 b 473 1037 494 1065 487 1048 b 424 1019 459 1025 442 1019 b 375 1038 405 1019 389 1025 b 354 1089 361 1050 354 1067 b 373 1138 354 1109 360 1126 b 424 1157 385 1151 402 1157 z "},"ů":{"ha":751,"x_min":0,"x_max":0,"o":"m 628 244 l 628 682 l 600 682 l 600 246 b 542 80 600 174 581 118 b 375 22 504 41 448 22 b 208 80 302 22 246 41 b 151 246 169 118 150 174 l 154 682 l 125 682 l 125 344 l 124 244 b 186 60 122 164 143 102 b 375 -4 230 17 293 -4 b 564 61 456 -4 519 18 b 628 244 608 105 630 166 z m 375 928 b 304 900 345 928 322 919 b 278 832 287 881 278 859 b 308 760 278 801 288 778 b 375 735 329 743 351 735 b 442 760 399 735 422 743 b 474 831 463 776 474 800 b 449 897 474 855 465 877 b 375 928 432 918 407 928 z m 375 900 b 428 879 399 900 417 893 b 446 831 440 865 446 849 b 424 780 446 808 439 791 b 375 763 410 768 394 763 b 326 781 356 763 340 769 b 306 832 313 793 306 810 b 324 881 306 852 312 869 b 375 900 337 894 354 900 z "},"Ű":{"ha":850,"x_min":0,"x_max":0,"o":"m 731 318 l 731 885 l 703 885 l 703 318 b 631 99 703 223 679 150 b 425 22 584 48 515 22 b 217 99 334 22 265 48 b 147 318 170 150 146 223 l 147 885 l 119 885 l 119 318 b 197 78 119 213 145 133 b 425 -6 249 22 325 -6 b 654 79 524 -6 600 23 b 731 318 708 136 733 215 z m 267 1171 l 253 1185 l 246 1186 b 140 1082 208 1147 173 1113 b 43 996 108 1051 75 1023 l 58 978 l 65 976 b 167 1068 100 1007 134 1038 b 265 1164 199 1099 232 1131 z m 808 1171 l 794 1185 l 788 1186 b 682 1082 750 1147 714 1113 b 585 996 650 1051 617 1023 l 600 978 l 607 976 b 708 1068 642 1007 676 1038 b 807 1164 741 1099 774 1131 z "},"ű":{"ha":751,"x_min":0,"x_max":0,"o":"m 628 244 l 628 682 l 600 682 l 600 246 b 542 80 600 174 581 118 b 375 22 504 41 448 22 b 208 80 302 22 246 41 b 151 246 169 118 150 174 l 154 682 l 125 682 l 125 344 l 124 244 b 186 60 122 164 143 102 b 375 -4 230 17 293 -4 b 564 61 456 -4 519 18 b 628 244 608 105 630 166 z m 217 914 l 203 928 l 196 929 b 90 825 158 890 123 856 b -7 739 58 794 25 766 l 8 721 l 15 719 b 117 811 50 750 84 781 b 215 907 149 842 182 874 z m 758 914 l 744 928 l 738 929 b 632 825 700 890 664 856 b 535 739 600 794 567 766 l 550 721 l 557 719 b 658 811 592 750 626 781 b 757 907 691 842 724 874 z "},"Ų":{"ha":850,"x_min":0,"x_max":0,"o":"m 731 318 l 731 885 l 703 885 l 703 318 b 631 99 703 223 679 150 b 425 22 584 48 515 22 b 217 99 334 22 265 48 b 147 318 170 150 146 223 l 147 885 l 119 885 l 119 318 b 197 78 119 213 145 133 b 425 -6 249 22 325 -6 b 654 79 524 -6 600 23 b 731 318 708 136 733 215 z "},"ų":{"ha":751,"x_min":0,"x_max":0,"o":"m 628 244 l 628 682 l 600 682 l 600 246 b 542 80 600 174 581 118 b 375 22 504 41 448 22 b 208 80 302 22 246 41 b 151 246 169 118 150 174 l 154 682 l 125 682 l 125 344 l 124 244 b 186 60 122 164 143 102 b 375 -4 230 17 293 -4 b 564 61 456 -4 519 18 b 628 244 608 105 630 166 z "},"Ŵ":{"ha":1228,"x_min":0,"x_max":0,"o":"m 836 0 l 864 0 l 1210 885 l 1178 885 l 1158 825 l 854 47 l 849 47 l 568 825 l 550 885 l 519 885 l 603 654 l 368 47 l 363 47 l 82 825 l 64 885 l 32 885 l 350 0 l 378 0 l 614 608 l 619 608 z m 461 996 l 474 979 l 481 979 b 549 1059 505 1006 528 1033 b 614 1142 571 1085 593 1113 b 678 1059 635 1113 657 1085 b 747 979 700 1033 723 1006 l 754 979 l 767 996 b 699 1077 744 1022 721 1049 b 626 1171 676 1105 652 1137 l 601 1171 b 529 1077 575 1137 551 1105 b 461 996 507 1049 484 1022 z "},"ŵ":{"ha":1060,"x_min":0,"x_max":0,"o":"m 710 0 l 739 0 l 1019 682 l 989 682 l 972 633 l 728 43 l 722 43 l 497 632 l 482 682 l 451 682 l 519 504 l 329 43 l 325 43 l 99 633 l 85 682 l 53 682 l 311 0 l 340 0 l 531 460 l 535 460 z m 376 739 l 389 722 l 396 722 b 465 802 420 749 443 776 b 529 885 486 828 508 856 b 594 802 550 856 572 828 b 663 722 616 776 638 749 l 669 722 l 682 739 b 614 820 659 765 636 792 b 542 914 592 848 568 880 l 517 914 b 444 820 491 880 467 848 b 376 739 422 792 400 765 z "},"Ŷ":{"ha":688,"x_min":0,"x_max":0,"o":"m 344 0 l 344 340 l 647 885 l 611 885 l 596 849 l 335 385 l 328 385 l 88 849 l 72 885 l 36 885 l 317 342 l 317 0 z m 190 996 l 203 979 l 210 979 b 278 1059 234 1006 257 1033 b 343 1142 300 1085 322 1113 b 408 1059 364 1113 386 1085 b 476 979 429 1033 452 1006 l 483 979 l 496 996 b 428 1077 473 1022 450 1049 b 356 1171 406 1105 381 1137 l 331 1171 b 258 1077 305 1137 281 1105 b 190 996 236 1049 213 1022 z "},"ŷ":{"ha":621,"x_min":0,"x_max":0,"o":"m 314 0 l 314 258 l 563 682 l 528 682 l 514 653 l 303 301 l 297 301 l 103 653 l 90 682 l 56 682 l 286 260 l 286 0 z m 157 739 l 169 722 l 176 722 b 245 802 200 749 223 776 b 310 885 267 828 288 856 b 374 802 331 856 353 828 b 443 722 396 776 419 749 l 450 722 l 463 739 b 394 820 439 765 417 792 b 322 914 372 848 348 880 l 297 914 b 225 820 271 880 247 848 b 157 739 203 792 180 765 z "},"Ÿ":{"ha":688,"x_min":0,"x_max":0,"o":"m 235 1056 b 263 1083 253 1056 263 1065 b 235 1111 263 1102 253 1111 b 207 1083 216 1111 207 1102 b 235 1056 207 1065 216 1056 z m 429 1056 b 457 1083 448 1056 457 1065 b 429 1111 457 1102 448 1111 b 401 1083 411 1111 401 1102 b 429 1056 401 1065 411 1056 z m 344 0 l 344 340 l 647 885 l 611 885 l 596 849 l 335 385 l 328 385 l 88 849 l 72 885 l 36 885 l 317 342 l 317 0 z "},"Ź":{"ha":704,"x_min":0,"x_max":0,"o":"m 82 28 l 639 861 l 639 886 l 588 885 l 165 885 l 75 886 l 71 863 l 76 856 l 157 857 l 601 857 l 44 24 l 44 -1 l 94 0 l 638 0 l 642 22 l 636 29 l 542 28 z m 464 1171 l 450 1185 l 443 1186 b 338 1082 405 1147 370 1113 b 240 996 305 1051 273 1023 l 256 978 l 263 976 b 364 1068 298 1007 331 1038 b 463 1164 396 1099 429 1131 z "},"ź":{"ha":632,"x_min":0,"x_max":0,"o":"m 100 26 l 553 658 l 553 683 l 510 682 l 164 682 l 88 683 l 83 660 l 88 654 l 156 656 l 515 656 l 63 22 l 63 -1 l 106 0 l 551 0 l 556 22 l 550 28 l 471 26 z m 428 914 l 414 928 l 407 929 b 301 825 369 890 334 856 b 204 739 269 794 237 766 l 219 721 l 226 719 b 328 811 262 750 295 781 b 426 907 360 842 393 874 z "},"Ż":{"ha":704,"x_min":0,"x_max":0,"o":"m 82 28 l 639 861 l 639 886 l 588 885 l 165 885 l 75 886 l 71 863 l 76 856 l 157 857 l 601 857 l 44 24 l 44 -1 l 94 0 l 638 0 l 642 22 l 636 29 l 542 28 z m 351 1133 b 324 1106 333 1133 324 1124 b 351 1078 324 1087 333 1078 b 379 1106 370 1078 379 1087 b 351 1133 379 1124 370 1133 z "},"ż":{"ha":632,"x_min":0,"x_max":0,"o":"m 100 26 l 553 658 l 553 683 l 510 682 l 164 682 l 88 683 l 83 660 l 88 654 l 156 656 l 515 656 l 63 22 l 63 -1 l 106 0 l 551 0 l 556 22 l 550 28 l 471 26 z m 315 876 b 288 849 297 876 288 867 b 315 821 288 830 297 821 b 343 849 334 821 343 830 b 315 876 343 867 334 876 z "},"Ž":{"ha":704,"x_min":0,"x_max":0,"o":"m 82 28 l 639 861 l 639 886 l 588 885 l 165 885 l 75 886 l 71 863 l 76 856 l 157 857 l 601 857 l 44 24 l 44 -1 l 94 0 l 638 0 l 642 22 l 636 29 l 542 28 z "},"ž":{"ha":632,"x_min":0,"x_max":0,"o":"m 100 26 l 553 658 l 553 683 l 510 682 l 164 682 l 88 683 l 83 660 l 88 654 l 156 656 l 515 656 l 63 22 l 63 -1 l 106 0 l 551 0 l 556 22 l 550 28 l 471 26 z "},"ƒ":{"ha":326,"x_min":0,"x_max":0,"o":"m 372 849 b 245 801 319 849 277 833 b 186 661 213 769 194 722 l 167 507 l 74 507 l 71 485 l 76 479 l 164 479 l 136 257 l 111 54 b 99 -17 108 27 104 4 b 76 -74 93 -37 86 -56 b 40 -128 67 -92 55 -110 b -14 -186 25 -145 7 -165 l -15 -193 l 1 -207 b 61 -145 25 -185 45 -164 b 101 -87 77 -126 90 -107 b 125 -23 111 -67 119 -46 b 139 57 131 0 135 26 l 192 479 l 354 479 l 357 501 l 353 507 l 194 507 l 214 661 b 260 777 220 709 236 748 b 374 821 284 806 322 821 b 408 818 384 821 395 820 b 447 808 421 816 434 813 l 451 811 l 458 838 b 413 846 442 841 426 844 b 372 849 399 848 385 849 z "},"Ơ":{"ha":871,"x_min":0,"x_max":0,"o":"m 442 892 b 163 776 320 892 228 853 b 67 440 99 698 67 587 b 160 108 67 296 98 185 b 428 -7 222 31 311 -7 b 707 113 549 -7 642 33 b 804 457 772 192 804 307 b 711 780 804 598 773 705 b 442 892 649 854 559 892 z m 442 864 b 690 759 550 864 633 829 b 776 457 748 689 776 588 b 686 133 776 316 746 208 b 428 21 626 58 540 21 b 181 129 320 21 238 57 b 94 440 123 201 94 305 b 184 755 94 577 124 682 b 442 864 244 828 330 864 z "},"ơ":{"ha":768,"x_min":0,"x_max":0,"o":"m 390 688 b 160 597 289 688 213 657 b 81 339 107 537 81 451 b 158 83 81 228 106 143 b 378 -6 209 24 282 -6 b 608 87 478 -6 554 25 b 688 353 661 148 688 237 b 611 601 688 460 662 543 b 390 688 560 659 487 688 z m 389 660 b 590 581 477 660 544 633 b 660 350 637 528 660 451 b 587 106 660 244 635 162 b 378 21 538 49 469 21 b 178 103 291 21 224 48 b 110 340 133 157 110 237 b 181 578 110 444 134 523 b 389 660 229 632 298 660 z "},"Ư":{"ha":850,"x_min":0,"x_max":0,"o":"m 731 318 l 731 885 l 703 885 l 703 318 b 631 99 703 223 679 150 b 425 22 584 48 515 22 b 217 99 334 22 265 48 b 147 318 170 150 146 223 l 147 885 l 119 885 l 119 318 b 197 78 119 213 145 133 b 425 -6 249 22 325 -6 b 654 79 524 -6 600 23 b 731 318 708 136 733 215 z "},"ư":{"ha":751,"x_min":0,"x_max":0,"o":"m 628 244 l 628 682 l 600 682 l 600 246 b 542 80 600 174 581 118 b 375 22 504 41 448 22 b 208 80 302 22 246 41 b 151 246 169 118 150 174 l 154 682 l 125 682 l 125 344 l 124 244 b 186 60 122 164 143 102 b 375 -4 230 17 293 -4 b 564 61 456 -4 519 18 b 628 244 608 105 630 166 z "},"Ǎ":{"ha":0,"x_min":0,"x_max":0,"o":""},"ǎ":{"ha":686,"x_min":0,"x_max":0,"o":"m 596 0 l 628 0 l 364 682 l 335 682 l 47 0 l 79 0 l 96 49 l 169 224 l 514 224 l 582 49 z m 350 640 l 503 250 l 181 250 l 346 640 z "},"Ǐ":{"ha":0,"x_min":0,"x_max":0,"o":""},"ǐ":{"ha":329,"x_min":0,"x_max":0,"o":"m 150 0 l 178 0 l 178 682 l 150 682 z "},"Ǒ":{"ha":0,"x_min":0,"x_max":0,"o":""},"ǒ":{"ha":768,"x_min":0,"x_max":0,"o":"m 390 688 b 160 597 289 688 213 657 b 81 339 107 537 81 451 b 158 83 81 228 106 143 b 378 -6 209 24 282 -6 b 608 87 478 -6 554 25 b 688 353 661 148 688 237 b 611 601 688 460 662 543 b 390 688 560 659 487 688 z m 389 660 b 590 581 477 660 544 633 b 660 350 637 528 660 451 b 587 106 660 244 635 162 b 378 21 538 49 469 21 b 178 103 291 21 224 48 b 110 340 133 157 110 237 b 181 578 110 444 134 523 b 389 660 229 632 298 660 z "},"Ǔ":{"ha":0,"x_min":0,"x_max":0,"o":""},"ǔ":{"ha":751,"x_min":0,"x_max":0,"o":"m 628 244 l 628 682 l 600 682 l 600 246 b 542 80 600 174 581 118 b 375 22 504 41 448 22 b 208 80 302 22 246 41 b 151 246 169 118 150 174 l 154 682 l 125 682 l 125 344 l 124 244 b 186 60 122 164 143 102 b 375 -4 230 17 293 -4 b 564 61 456 -4 519 18 b 628 244 608 105 630 166 z "},"Ǖ":{"ha":0,"x_min":0,"x_max":0,"o":""},"ǖ":{"ha":0,"x_min":0,"x_max":0,"o":""},"Ǘ":{"ha":0,"x_min":0,"x_max":0,"o":""},"ǘ":{"ha":751,"x_min":0,"x_max":0,"o":"m 628 244 l 628 682 l 600 682 l 600 246 b 542 80 600 174 581 118 b 375 22 504 41 448 22 b 208 80 302 22 246 41 b 151 246 169 118 150 174 l 154 682 l 125 682 l 125 344 l 124 244 b 186 60 122 164 143 102 b 375 -4 230 17 293 -4 b 564 61 456 -4 519 18 b 628 244 608 105 630 166 z m 383 914 l 369 928 l 363 929 b 257 825 325 890 289 856 b 160 739 225 794 192 766 l 175 721 l 182 719 b 283 811 217 750 251 781 b 382 907 316 842 349 874 z "},"Ǚ":{"ha":0,"x_min":0,"x_max":0,"o":""},"ǚ":{"ha":751,"x_min":0,"x_max":0,"o":"m 628 244 l 628 682 l 600 682 l 600 246 b 542 80 600 174 581 118 b 375 22 504 41 448 22 b 208 80 302 22 246 41 b 151 246 169 118 150 174 l 154 682 l 125 682 l 125 344 l 124 244 b 186 60 122 164 143 102 b 375 -4 230 17 293 -4 b 564 61 456 -4 519 18 b 628 244 608 105 630 166 z "},"Ǜ":{"ha":0,"x_min":0,"x_max":0,"o":""},"ǜ":{"ha":0,"x_min":0,"x_max":0,"o":""},"Ǫ":{"ha":0,"x_min":0,"x_max":0,"o":""},"ǫ":{"ha":768,"x_min":0,"x_max":0,"o":"m 390 688 b 160 597 289 688 213 657 b 81 339 107 537 81 451 b 158 83 81 228 106 143 b 378 -6 209 24 282 -6 b 608 87 478 -6 554 25 b 688 353 661 148 688 237 b 611 601 688 460 662 543 b 390 688 560 659 487 688 z m 389 660 b 590 581 477 660 544 633 b 660 350 637 528 660 451 b 587 106 660 244 635 162 b 378 21 538 49 469 21 b 178 103 291 21 224 48 b 110 340 133 157 110 237 b 181 578 110 444 134 523 b 389 660 229 632 298 660 z "},"Ǻ":{"ha":769,"x_min":0,"x_max":0,"o":"m 699 0 l 731 0 l 407 885 l 379 885 l 26 0 l 60 0 l 79 60 l 174 296 l 593 296 l 681 60 z m 394 838 l 583 324 l 185 324 l 389 838 z m 383 1185 b 313 1157 354 1185 330 1175 b 286 1089 295 1138 286 1116 b 317 1017 286 1058 296 1034 b 383 992 337 1000 359 992 b 451 1017 407 992 430 1000 b 482 1088 472 1033 482 1057 b 457 1154 482 1112 474 1134 b 383 1185 440 1175 416 1185 z m 383 1157 b 437 1136 407 1157 425 1150 b 454 1088 448 1122 454 1106 b 433 1037 454 1065 447 1048 b 383 1019 418 1025 402 1019 b 335 1038 365 1019 349 1025 b 314 1089 321 1050 314 1067 b 333 1138 314 1109 320 1126 b 383 1157 345 1151 362 1157 z m 496 1171 l 482 1185 l 475 1186 b 369 1082 437 1147 402 1113 b 272 996 337 1051 305 1023 l 288 978 l 294 976 b 396 1068 330 1007 363 1038 b 494 1164 428 1099 461 1131 z "},"ǻ":{"ha":686,"x_min":0,"x_max":0,"o":"m 596 0 l 628 0 l 364 682 l 335 682 l 47 0 l 79 0 l 96 49 l 169 224 l 514 224 l 582 49 z m 350 640 l 503 250 l 181 250 l 346 640 z m 342 928 b 271 900 312 928 288 919 b 244 832 253 881 244 859 b 275 760 244 801 255 778 b 342 735 295 743 318 735 b 409 760 366 735 388 743 b 440 831 430 776 440 800 b 415 897 440 855 432 877 b 342 928 399 918 374 928 z m 342 900 b 395 879 366 900 384 893 b 413 831 407 865 413 849 b 391 780 413 808 405 791 b 342 763 377 768 360 763 b 293 781 323 763 307 769 b 272 832 279 793 272 810 b 291 881 272 852 278 869 b 342 900 303 894 320 900 z m 454 914 l 440 928 l 433 929 b 328 825 395 890 360 856 b 231 739 295 794 263 766 l 246 721 l 253 719 b 354 811 288 750 322 781 b 453 907 387 842 419 874 z "},"Ǽ":{"ha":1099,"x_min":0,"x_max":0,"o":"m 1058 0 l 1064 22 l 1061 28 l 663 28 l 599 408 l 922 461 l 926 485 l 922 489 l 594 435 l 524 857 l 906 857 l 913 879 l 908 885 l 490 885 l -21 0 l 17 0 l 46 60 l 208 343 l 571 403 l 629 60 l 636 0 z m 497 836 l 567 431 l 228 375 l 493 836 z m 661 1171 l 647 1185 l 640 1186 b 535 1082 602 1147 567 1113 b 438 996 502 1051 470 1023 l 453 978 l 460 976 b 561 1068 495 1007 529 1038 b 660 1164 594 1099 626 1131 z "},"ǽ":{"ha":956,"x_min":0,"x_max":0,"o":"m 897 0 l 901 22 l 899 26 l 572 26 l 522 313 l 786 353 l 789 376 l 785 379 l 518 338 l 463 656 l 774 654 l 779 676 l 775 682 l 426 682 l 10 0 l 46 0 l 69 49 l 197 258 l 494 307 l 540 49 l 547 0 z m 435 639 l 489 333 l 217 289 l 431 639 z m 589 914 l 575 928 l 568 929 b 463 825 530 890 495 856 b 365 739 430 794 398 766 l 381 721 l 388 719 b 489 811 423 750 456 781 b 588 907 521 842 554 874 z "},"Ǿ":{"ha":871,"x_min":0,"x_max":0,"o":"m 442 892 b 163 776 320 892 228 853 b 67 440 99 698 67 587 b 160 108 67 296 98 185 b 428 -7 222 31 311 -7 b 707 113 549 -7 642 33 b 804 457 772 192 804 307 b 711 780 804 598 773 705 b 442 892 649 854 559 892 z m 442 864 b 690 759 550 864 633 829 b 776 457 748 689 776 588 b 686 133 776 316 746 208 b 428 21 626 58 540 21 b 181 129 320 21 238 57 b 94 440 123 201 94 305 b 184 755 94 577 124 682 b 442 864 244 828 330 864 z m 336 -43 l 336 -43 l 560 835 l 554 840 l 532 840 l 310 -39 l 314 -43 z m 547 1171 l 533 1185 l 526 1186 b 421 1082 488 1147 453 1113 b 324 996 388 1051 356 1023 l 339 978 l 346 976 b 447 1068 381 1007 415 1038 b 546 1164 480 1099 513 1131 z "},"ǿ":{"ha":768,"x_min":0,"x_max":0,"o":"m 390 688 b 160 597 289 688 213 657 b 81 339 107 537 81 451 b 158 83 81 228 106 143 b 378 -6 209 24 282 -6 b 608 87 478 -6 554 25 b 688 353 661 148 688 237 b 611 601 688 460 662 543 b 390 688 560 659 487 688 z m 389 660 b 590 581 477 660 544 633 b 660 350 637 528 660 451 b 587 106 660 244 635 162 b 378 21 538 49 469 21 b 178 103 291 21 224 48 b 110 340 133 157 110 237 b 181 578 110 444 134 523 b 389 660 229 632 298 660 z m 285 -43 l 285 -43 l 508 835 l 503 840 l 481 840 l 258 -39 l 263 -43 z m 496 914 l 482 928 l 475 929 b 369 825 437 890 402 856 b 272 739 337 794 305 766 l 288 721 l 294 719 b 396 811 330 750 363 781 b 494 907 428 842 461 874 z "},"Ș":{"ha":618,"x_min":0,"x_max":0,"o":"m 342 889 b 240 872 305 889 271 883 b 161 824 210 860 183 844 b 110 755 139 804 122 781 b 92 671 98 728 92 700 b 123 567 92 629 102 594 b 201 494 144 539 170 515 b 303 440 233 474 267 456 b 404 387 339 423 373 406 b 483 320 436 368 462 346 b 514 225 503 295 514 263 b 498 151 514 200 509 175 b 451 86 487 127 472 106 b 378 40 431 67 407 51 b 282 22 350 28 318 22 b 179 38 250 22 215 28 b 81 89 143 49 110 66 l 74 86 l 72 60 b 174 11 102 38 136 22 b 283 -6 212 0 248 -6 b 388 13 321 -6 356 1 b 469 63 419 26 446 42 b 523 137 493 84 510 109 b 542 225 535 165 542 194 b 510 332 542 268 531 303 b 432 406 490 361 463 385 b 331 460 400 426 367 444 b 229 513 294 477 261 494 b 151 576 198 531 172 552 b 119 667 130 600 119 631 b 134 735 119 689 124 712 b 176 798 144 758 158 779 b 245 844 195 817 218 832 b 339 861 272 855 304 861 b 413 852 360 861 385 858 b 496 822 441 846 469 836 l 506 824 l 511 849 b 418 881 479 864 448 875 b 342 889 388 886 363 889 z "},"ș":{"ha":561,"x_min":0,"x_max":0,"o":"m 308 685 b 224 672 278 685 250 680 b 159 635 199 663 177 651 b 117 581 141 620 127 602 b 101 515 106 560 101 538 b 127 435 101 483 110 456 b 191 379 144 413 166 395 b 274 337 216 363 244 349 b 356 297 303 324 331 311 b 420 246 382 282 403 265 b 446 174 437 226 446 202 b 433 119 446 155 441 137 b 396 70 424 101 412 84 b 338 35 380 56 361 44 b 260 22 314 27 288 22 b 174 35 233 22 204 26 b 93 74 144 43 117 56 l 86 72 l 85 46 b 169 8 110 29 138 17 b 260 -4 201 0 231 -4 b 347 10 291 -4 320 1 b 414 49 373 20 395 33 b 458 106 432 66 447 84 b 474 175 468 128 474 151 b 448 258 474 208 465 236 b 384 315 431 279 409 298 b 301 358 359 331 331 345 b 219 397 272 370 244 383 b 155 445 193 411 172 427 b 129 513 138 463 129 486 b 141 564 129 529 133 546 b 175 611 149 581 160 597 b 230 645 190 625 208 636 b 306 658 252 654 277 658 b 367 651 324 658 345 656 b 436 628 390 647 413 639 l 444 629 l 450 654 b 373 678 423 666 397 674 b 308 685 348 683 327 685 z m 178 -97 b 160 -112 170 -101 164 -106 l 160 -118 b 201 -165 188 -131 201 -147 b 126 -274 201 -200 176 -237 l 125 -278 l 139 -293 b 231 -164 200 -246 231 -203 b 178 -97 231 -135 213 -113 z "},"ȷ":{"ha":363,"x_min":0,"x_max":0,"o":"m 213 124 l 213 682 l 43 682 l 39 660 l 43 656 l 185 656 l 185 122 b 158 8 185 78 176 40 b 67 -83 140 -23 109 -54 l 67 -90 l 83 -106 b 183 -5 131 -73 164 -40 b 213 124 203 30 213 73 z "},"ˆ":{"ha":542,"x_min":0,"x_max":0,"o":"m 118 739 l 131 722 l 138 722 b 206 802 162 749 184 776 b 271 885 228 828 250 856 b 335 802 292 856 314 828 b 404 722 357 776 380 749 l 411 722 l 424 739 b 356 820 400 765 378 792 b 283 914 333 848 309 880 l 258 914 b 186 820 232 880 208 848 b 118 739 164 792 141 765 z "},"ˇ":{"ha":1157,"x_min":0,"x_max":0,"o":""},"ˉ":{"ha":0,"x_min":0,"x_max":0,"o":""},"˘":{"ha":1157,"x_min":0,"x_max":0,"o":""},"˙":{"ha":322,"x_min":0,"x_max":0,"o":"m 160 876 b 132 849 141 876 132 867 b 160 821 132 830 141 821 b 188 849 178 821 188 830 b 160 876 188 867 178 876 z "},"˚":{"ha":542,"x_min":0,"x_max":0,"o":"m 268 928 b 197 900 238 928 215 919 b 171 832 180 881 171 859 b 201 760 171 801 181 778 b 268 735 222 743 244 735 b 335 760 292 735 315 743 b 367 831 356 776 367 800 b 342 897 367 855 358 877 b 268 928 325 918 300 928 z m 268 900 b 322 879 292 900 310 893 b 339 831 333 865 339 849 b 317 780 339 808 332 791 b 268 763 303 768 287 763 b 219 781 250 763 233 769 b 199 832 206 793 199 810 b 217 881 199 852 205 869 b 268 900 230 894 247 900 z "},"˛":{"ha":1157,"x_min":0,"x_max":0,"o":""},"˜":{"ha":0,"x_min":0,"x_max":0,"o":""},"˝":{"ha":1083,"x_min":0,"x_max":0,"o":"m 383 914 l 369 928 l 363 929 b 257 825 325 890 289 856 b 160 739 225 794 192 766 l 175 721 l 182 719 b 283 811 217 750 251 781 b 382 907 316 842 349 874 z m 925 914 l 911 928 l 904 929 b 799 825 866 890 831 856 b 701 739 766 794 734 766 l 717 721 l 724 719 b 825 811 759 750 793 781 b 924 907 857 842 890 874 z "},"̃":{"ha":0,"x_min":0,"x_max":0,"o":""},"̣":{"ha":0,"x_min":0,"x_max":0,"o":"m 160 -122 b 132 -150 141 -122 132 -131 b 160 -178 132 -169 141 -178 b 188 -150 178 -178 188 -169 b 160 -122 188 -131 178 -122 z "},"̦":{"ha":0,"x_min":0,"x_max":0,"o":"m 149 -97 b 131 -112 141 -101 135 -106 l 131 -118 b 172 -165 158 -131 172 -147 b 97 -274 172 -200 147 -237 l 96 -278 l 110 -293 b 201 -164 171 -246 201 -203 b 149 -97 201 -135 184 -113 z "},"Δ":{"ha":769,"x_min":0,"x_max":0,"o":"m 26 0 l 731 0 l 407 885 l 379 885 z m 65 28 l 389 838 l 396 838 l 692 28 z "},"Ω":{"ha":1018,"x_min":0,"x_max":0,"o":"m 513 892 b 236 785 392 892 300 856 b 140 479 172 715 140 613 b 197 219 140 383 159 296 b 358 32 234 143 288 80 l 358 28 l 190 28 l 76 29 l 71 4 l 75 -1 l 183 0 l 360 0 l 415 -1 l 418 1 l 418 24 b 232 212 337 71 275 134 b 168 479 189 290 168 379 b 257 765 168 603 198 698 b 513 864 316 831 401 864 b 763 766 622 864 705 831 b 850 482 821 701 850 606 b 786 214 850 382 829 293 b 600 24 744 135 681 72 l 600 1 l 603 -1 l 658 0 l 828 0 l 942 -1 l 947 24 l 943 29 l 835 28 l 660 28 l 660 32 b 822 222 730 81 784 144 b 878 482 859 299 878 386 b 784 786 878 614 847 716 b 513 892 722 856 631 892 z "},"μ":{"ha":693,"x_min":0,"x_max":0,"o":"m 660 15 l 665 40 l 657 44 b 628 28 649 37 639 32 b 599 24 618 25 608 24 b 549 110 565 24 549 52 l 549 629 l 521 624 l 521 150 b 294 22 446 65 370 22 b 189 64 248 22 213 36 b 153 185 165 92 153 132 l 153 629 l 125 624 l 125 -257 l 153 -257 l 153 69 b 290 -6 179 19 225 -6 b 406 24 330 -6 369 4 b 515 110 444 44 480 73 l 521 110 b 540 22 521 68 527 39 b 597 -4 553 4 572 -4 b 660 15 620 -4 641 2 z "},"π":{"ha":806,"x_min":0,"x_max":0,"o":"m 749 703 l 131 703 l 110 699 l 38 638 l 38 629 l 47 617 l 56 617 b 109 663 81 640 98 655 b 138 674 120 670 129 674 l 222 674 l 222 -140 l 250 -140 l 250 674 l 547 674 l 547 113 b 567 23 547 71 554 41 b 624 -4 580 5 599 -4 b 686 15 647 -4 668 2 l 692 42 l 683 46 b 655 30 675 38 666 33 b 625 25 644 27 634 25 b 587 46 607 25 595 32 b 575 113 579 60 575 82 l 575 674 l 747 674 l 753 697 z "},"Ẁ":{"ha":1228,"x_min":0,"x_max":0,"o":"m 836 0 l 864 0 l 1210 885 l 1178 885 l 1158 825 l 854 47 l 849 47 l 568 825 l 550 885 l 519 885 l 603 654 l 368 47 l 363 47 l 82 825 l 64 885 l 32 885 l 350 0 l 378 0 l 614 608 l 619 608 z m 522 1186 l 515 1185 l 501 1171 l 503 1164 b 601 1068 536 1131 569 1099 b 703 976 634 1038 668 1007 l 710 978 l 725 996 b 628 1082 693 1023 660 1051 b 522 1186 595 1113 560 1147 z "},"ẁ":{"ha":1060,"x_min":0,"x_max":0,"o":"m 710 0 l 739 0 l 1019 682 l 989 682 l 972 633 l 728 43 l 722 43 l 497 632 l 482 682 l 451 682 l 519 504 l 329 43 l 325 43 l 99 633 l 85 682 l 53 682 l 311 0 l 340 0 l 531 460 l 535 460 z m 439 929 l 432 928 l 418 914 l 419 907 b 518 811 453 874 486 842 b 619 719 550 781 584 750 l 626 721 l 642 739 b 544 825 609 766 577 794 b 439 929 512 856 477 890 z "},"Ẃ":{"ha":1228,"x_min":0,"x_max":0,"o":"m 836 0 l 864 0 l 1210 885 l 1178 885 l 1158 825 l 854 47 l 849 47 l 568 825 l 550 885 l 519 885 l 603 654 l 368 47 l 363 47 l 82 825 l 64 885 l 32 885 l 350 0 l 378 0 l 614 608 l 619 608 z m 725 1171 l 711 1185 l 704 1186 b 599 1082 666 1147 631 1113 b 501 996 566 1051 534 1023 l 517 978 l 524 976 b 625 1068 559 1007 593 1038 b 724 1164 657 1099 690 1131 z "},"ẃ":{"ha":1060,"x_min":0,"x_max":0,"o":"m 710 0 l 739 0 l 1019 682 l 989 682 l 972 633 l 728 43 l 722 43 l 497 632 l 482 682 l 451 682 l 519 504 l 329 43 l 325 43 l 99 633 l 85 682 l 53 682 l 311 0 l 340 0 l 531 460 l 535 460 z m 642 914 l 628 928 l 621 929 b 515 825 583 890 548 856 b 418 739 483 794 450 766 l 433 721 l 440 719 b 542 811 475 750 509 781 b 640 907 574 842 607 874 z "},"Ẅ":{"ha":1228,"x_min":0,"x_max":0,"o":"m 836 0 l 864 0 l 1210 885 l 1178 885 l 1158 825 l 854 47 l 849 47 l 568 825 l 550 885 l 519 885 l 603 654 l 368 47 l 363 47 l 82 825 l 64 885 l 32 885 l 350 0 l 378 0 l 614 608 l 619 608 z m 517 1111 b 489 1083 498 1111 489 1102 b 517 1056 489 1065 498 1056 b 544 1083 535 1056 544 1065 b 517 1111 544 1102 535 1111 z m 711 1111 b 683 1083 693 1111 683 1102 b 711 1056 683 1065 693 1056 b 739 1083 730 1056 739 1065 b 711 1111 739 1102 730 1111 z "},"ẅ":{"ha":1060,"x_min":0,"x_max":0,"o":"m 710 0 l 739 0 l 1019 682 l 989 682 l 972 633 l 728 43 l 722 43 l 497 632 l 482 682 l 451 682 l 519 504 l 329 43 l 325 43 l 99 633 l 85 682 l 53 682 l 311 0 l 340 0 l 531 460 l 535 460 z m 432 854 b 404 826 413 854 404 845 b 432 799 404 808 413 799 b 460 826 450 799 460 808 b 432 854 460 845 450 854 z m 626 854 b 599 826 608 854 599 845 b 626 799 599 808 608 799 b 654 826 645 799 654 808 b 626 854 654 845 645 854 z "},"Ạ":{"ha":0,"x_min":0,"x_max":0,"o":""},"ạ":{"ha":0,"x_min":0,"x_max":0,"o":""},"Ả":{"ha":0,"x_min":0,"x_max":0,"o":""},"ả":{"ha":0,"x_min":0,"x_max":0,"o":""},"Ấ":{"ha":0,"x_min":0,"x_max":0,"o":""},"ấ":{"ha":0,"x_min":0,"x_max":0,"o":""},"Ầ":{"ha":0,"x_min":0,"x_max":0,"o":""},"ầ":{"ha":0,"x_min":0,"x_max":0,"o":""},"Ẩ":{"ha":0,"x_min":0,"x_max":0,"o":""},"ẩ":{"ha":0,"x_min":0,"x_max":0,"o":""},"Ẫ":{"ha":0,"x_min":0,"x_max":0,"o":""},"ẫ":{"ha":0,"x_min":0,"x_max":0,"o":""},"Ậ":{"ha":0,"x_min":0,"x_max":0,"o":""},"ậ":{"ha":0,"x_min":0,"x_max":0,"o":""},"Ắ":{"ha":0,"x_min":0,"x_max":0,"o":""},"ắ":{"ha":0,"x_min":0,"x_max":0,"o":""},"Ằ":{"ha":0,"x_min":0,"x_max":0,"o":""},"ằ":{"ha":0,"x_min":0,"x_max":0,"o":""},"Ẳ":{"ha":0,"x_min":0,"x_max":0,"o":""},"ẳ":{"ha":0,"x_min":0,"x_max":0,"o":""},"Ẵ":{"ha":0,"x_min":0,"x_max":0,"o":""},"ẵ":{"ha":0,"x_min":0,"x_max":0,"o":""},"Ặ":{"ha":0,"x_min":0,"x_max":0,"o":""},"ặ":{"ha":0,"x_min":0,"x_max":0,"o":""},"Ẹ":{"ha":0,"x_min":0,"x_max":0,"o":""},"ẹ":{"ha":0,"x_min":0,"x_max":0,"o":""},"Ẻ":{"ha":0,"x_min":0,"x_max":0,"o":""},"ẻ":{"ha":0,"x_min":0,"x_max":0,"o":""},"Ẽ":{"ha":0,"x_min":0,"x_max":0,"o":""},"ẽ":{"ha":0,"x_min":0,"x_max":0,"o":""},"Ế":{"ha":0,"x_min":0,"x_max":0,"o":""},"ế":{"ha":0,"x_min":0,"x_max":0,"o":""},"Ề":{"ha":0,"x_min":0,"x_max":0,"o":""},"ề":{"ha":0,"x_min":0,"x_max":0,"o":""},"Ể":{"ha":0,"x_min":0,"x_max":0,"o":""},"ể":{"ha":0,"x_min":0,"x_max":0,"o":""},"Ễ":{"ha":0,"x_min":0,"x_max":0,"o":""},"ễ":{"ha":0,"x_min":0,"x_max":0,"o":""},"Ệ":{"ha":0,"x_min":0,"x_max":0,"o":""},"ệ":{"ha":0,"x_min":0,"x_max":0,"o":""},"Ỉ":{"ha":0,"x_min":0,"x_max":0,"o":""},"ỉ":{"ha":0,"x_min":0,"x_max":0,"o":""},"Ị":{"ha":0,"x_min":0,"x_max":0,"o":""},"ị":{"ha":0,"x_min":0,"x_max":0,"o":""},"Ọ":{"ha":0,"x_min":0,"x_max":0,"o":""},"ọ":{"ha":0,"x_min":0,"x_max":0,"o":""},"Ỏ":{"ha":0,"x_min":0,"x_max":0,"o":""},"ỏ":{"ha":0,"x_min":0,"x_max":0,"o":""},"Ố":{"ha":0,"x_min":0,"x_max":0,"o":""},"ố":{"ha":0,"x_min":0,"x_max":0,"o":""},"Ồ":{"ha":0,"x_min":0,"x_max":0,"o":""},"ồ":{"ha":0,"x_min":0,"x_max":0,"o":""},"Ổ":{"ha":0,"x_min":0,"x_max":0,"o":""},"ổ":{"ha":0,"x_min":0,"x_max":0,"o":""},"Ỗ":{"ha":0,"x_min":0,"x_max":0,"o":""},"ỗ":{"ha":0,"x_min":0,"x_max":0,"o":""},"Ộ":{"ha":0,"x_min":0,"x_max":0,"o":""},"Ớ":{"ha":0,"x_min":0,"x_max":0,"o":""},"ớ":{"ha":0,"x_min":0,"x_max":0,"o":""},"Ờ":{"ha":0,"x_min":0,"x_max":0,"o":""},"ờ":{"ha":0,"x_min":0,"x_max":0,"o":""},"Ở":{"ha":0,"x_min":0,"x_max":0,"o":""},"ở":{"ha":0,"x_min":0,"x_max":0,"o":""},"Ỡ":{"ha":0,"x_min":0,"x_max":0,"o":""},"ỡ":{"ha":0,"x_min":0,"x_max":0,"o":""},"Ợ":{"ha":0,"x_min":0,"x_max":0,"o":""},"ợ":{"ha":0,"x_min":0,"x_max":0,"o":""},"Ụ":{"ha":0,"x_min":0,"x_max":0,"o":""},"ụ":{"ha":0,"x_min":0,"x_max":0,"o":""},"Ủ":{"ha":0,"x_min":0,"x_max":0,"o":""},"ủ":{"ha":0,"x_min":0,"x_max":0,"o":""},"Ứ":{"ha":0,"x_min":0,"x_max":0,"o":""},"ứ":{"ha":0,"x_min":0,"x_max":0,"o":""},"Ừ":{"ha":0,"x_min":0,"x_max":0,"o":""},"ừ":{"ha":0,"x_min":0,"x_max":0,"o":""},"Ử":{"ha":0,"x_min":0,"x_max":0,"o":""},"ử":{"ha":0,"x_min":0,"x_max":0,"o":""},"Ữ":{"ha":0,"x_min":0,"x_max":0,"o":""},"ữ":{"ha":0,"x_min":0,"x_max":0,"o":""},"Ự":{"ha":0,"x_min":0,"x_max":0,"o":""},"ự":{"ha":0,"x_min":0,"x_max":0,"o":""},"Ỳ":{"ha":688,"x_min":0,"x_max":0,"o":"m 344 0 l 344 340 l 647 885 l 611 885 l 596 849 l 335 385 l 328 385 l 88 849 l 72 885 l 36 885 l 317 342 l 317 0 z m 253 1186 l 246 1185 l 232 1171 l 233 1164 b 332 1068 267 1131 300 1099 b 433 976 364 1038 398 1007 l 440 978 l 456 996 b 358 1082 423 1023 391 1051 b 253 1186 326 1113 291 1147 z "},"ỳ":{"ha":621,"x_min":0,"x_max":0,"o":"m 314 0 l 314 258 l 563 682 l 528 682 l 514 653 l 303 301 l 297 301 l 103 653 l 90 682 l 56 682 l 286 260 l 286 0 z m 219 929 l 213 928 l 199 914 l 200 907 b 299 811 233 874 266 842 b 400 719 331 781 365 750 l 407 721 l 422 739 b 325 825 390 766 357 794 b 219 929 293 856 257 890 z "},"Ỵ":{"ha":0,"x_min":0,"x_max":0,"o":""},"ỵ":{"ha":0,"x_min":0,"x_max":0,"o":""},"Ỷ":{"ha":0,"x_min":0,"x_max":0,"o":""},"ỷ":{"ha":0,"x_min":0,"x_max":0,"o":""},"Ỹ":{"ha":0,"x_min":0,"x_max":0,"o":""},"ỹ":{"ha":0,"x_min":0,"x_max":0,"o":""},"–":{"ha":683,"x_min":0,"x_max":0,"o":"m 701 339 l 704 363 l 700 367 l -18 367 l -21 343 l -17 339 z "},"—":{"ha":1350,"x_min":0,"x_max":0,"o":"m 1368 339 l 1371 363 l 1367 367 l -18 367 l -21 343 l -17 339 z "},"‘":{"ha":172,"x_min":0,"x_max":0,"o":"m 114 665 b 123 678 118 670 121 674 b 128 688 125 681 127 685 l 128 693 b 75 747 93 701 75 719 b 136 863 75 781 95 819 l 136 868 l 118 883 b 44 742 69 831 44 784 b 114 665 44 702 68 676 z "},"’":{"ha":172,"x_min":0,"x_max":0,"o":"m 64 881 b 55 868 60 876 57 872 b 50 858 53 864 51 861 l 50 853 b 103 799 85 844 103 826 b 42 683 103 765 82 727 l 42 678 l 60 663 b 133 804 109 714 133 762 b 64 881 133 844 110 869 z "},"‚":{"ha":319,"x_min":0,"x_max":0,"o":"m 149 57 b 131 42 141 53 135 48 l 131 36 b 172 -11 158 23 172 7 b 97 -119 172 -46 147 -82 l 96 -124 l 110 -139 b 201 -10 171 -92 201 -49 b 149 57 201 19 184 41 z "},"“":{"ha":286,"x_min":0,"x_max":0,"o":"m 101 665 b 110 678 105 670 108 674 b 115 688 113 681 114 685 l 115 693 b 63 747 80 701 63 719 b 124 863 63 781 83 819 l 124 868 l 106 883 b 32 742 56 831 32 784 b 101 665 32 702 55 676 z m 233 665 b 242 678 237 670 240 674 b 247 688 245 681 246 685 l 247 693 b 194 747 212 701 194 719 b 256 863 194 781 215 819 l 256 868 l 238 883 b 164 742 188 831 164 784 b 233 665 164 702 187 676 z "},"”":{"ha":304,"x_min":0,"x_max":0,"o":"m 58 881 b 49 868 55 876 52 872 b 44 858 47 864 45 861 l 44 853 b 97 799 80 844 97 826 b 36 683 97 765 77 727 l 36 678 l 54 663 b 128 804 103 714 128 762 b 58 881 128 844 105 869 z m 190 881 b 181 868 187 876 184 872 b 176 858 179 864 177 861 l 176 853 b 229 799 212 844 229 826 b 168 683 229 765 209 727 l 168 678 l 186 663 b 260 804 235 714 260 762 b 190 881 260 844 237 869 z "},"„":{"ha":451,"x_min":0,"x_max":0,"o":"m 149 57 b 131 42 141 53 135 48 l 131 36 b 172 -11 158 23 172 7 b 97 -119 172 -46 147 -82 l 96 -124 l 110 -139 b 201 -10 171 -92 201 -49 b 149 57 201 19 184 41 z m 281 57 b 263 42 273 53 267 48 l 263 36 b 304 -11 290 23 304 7 b 229 -119 304 -46 279 -82 l 228 -124 l 242 -139 b 333 -10 303 -92 333 -49 b 281 57 333 19 316 41 z "},"†":{"ha":640,"x_min":0,"x_max":0,"o":"m 335 519 l 576 519 l 579 543 l 575 547 l 335 547 l 335 814 l 332 817 l 307 814 l 307 547 l 65 547 l 63 524 l 67 519 l 307 519 l 307 -125 l 311 -131 l 335 -131 z "},"‡":{"ha":640,"x_min":0,"x_max":0,"o":"m 579 163 l 575 167 l 335 167 l 335 519 l 576 519 l 579 543 l 575 547 l 335 547 l 335 814 l 332 817 l 307 814 l 307 547 l 65 547 l 63 524 l 67 519 l 307 519 l 307 167 l 65 167 l 63 143 l 67 139 l 307 139 l 307 -125 l 311 -131 l 335 -131 l 335 139 l 576 139 z "},"•":{"ha":321,"x_min":0,"x_max":0,"o":"m 160 358 b 132 331 141 358 132 349 b 160 303 132 312 141 303 b 188 331 178 303 188 312 b 160 358 188 349 178 358 z "},"․":{"ha":319,"x_min":0,"x_max":0,"o":"m 160 53 b 132 25 141 53 132 44 b 160 -3 132 6 141 -3 b 188 25 178 -3 188 6 b 160 53 188 44 178 53 z "},"‥":{"ha":528,"x_min":0,"x_max":0,"o":"m 154 53 b 126 25 136 53 126 44 b 154 -3 126 6 136 -3 b 182 25 173 -3 182 6 b 154 53 182 44 173 53 z m 363 53 b 335 25 344 53 335 44 b 363 -3 335 6 344 -3 b 390 25 381 -3 390 6 b 363 53 390 44 381 53 z "},"…":{"ha":736,"x_min":0,"x_max":0,"o":"m 154 53 b 126 25 136 53 126 44 b 154 -3 126 6 136 -3 b 182 25 173 -3 182 6 b 154 53 182 44 173 53 z m 363 53 b 335 25 344 53 335 44 b 363 -3 335 6 344 -3 b 390 25 381 -3 390 6 b 363 53 390 44 381 53 z m 571 53 b 543 25 552 53 543 44 b 571 -3 543 6 552 -3 b 599 25 589 -3 599 6 b 571 53 599 44 589 53 z "},"‰":{"ha":1394,"x_min":0,"x_max":0,"o":"m 747 743 l 747 746 l 743 757 l 728 765 l 206 -61 l 204 -62 l 210 -76 l 224 -83 z m 243 339 b 361 390 294 339 333 356 b 390 449 375 407 385 426 b 399 531 396 471 399 498 b 390 616 399 563 396 591 b 361 678 385 641 375 661 b 244 728 334 711 295 728 b 125 676 193 728 153 711 b 96 615 111 660 101 639 b 88 529 90 590 88 562 b 126 384 88 463 100 414 b 243 339 152 354 191 339 z m 243 700 b 340 657 286 700 318 686 b 372 529 362 630 372 588 b 340 406 372 473 361 431 b 244 367 318 380 286 367 b 147 406 201 367 168 380 b 114 531 125 431 114 473 b 243 700 114 644 157 700 z m 722 356 b 603 304 670 356 631 338 b 574 242 589 288 579 267 b 565 157 568 218 565 189 b 604 12 565 90 578 42 b 719 -33 630 -18 669 -33 b 839 18 771 -33 811 -16 b 868 76 853 35 863 54 b 876 158 874 99 876 126 b 868 244 876 191 874 219 b 839 306 863 268 853 289 b 722 356 812 339 773 356 z m 722 -6 b 624 33 679 -6 646 7 b 592 158 603 59 592 101 b 719 328 592 271 634 328 b 818 285 763 328 796 313 b 850 157 839 258 850 215 b 817 33 850 100 839 59 b 722 -6 796 7 764 -6 z m 1139 356 b 1019 304 1087 356 1047 338 b 990 242 1006 288 996 267 b 982 157 985 218 982 189 b 1021 12 982 90 995 42 b 1136 -33 1047 -18 1085 -33 b 1256 18 1188 -33 1228 -16 b 1285 76 1269 35 1279 54 b 1293 158 1290 99 1293 126 b 1285 244 1293 191 1290 219 b 1256 306 1279 268 1269 289 b 1139 356 1229 339 1190 356 z m 1139 -6 b 1041 33 1095 -6 1063 7 b 1008 158 1019 59 1008 101 b 1136 328 1008 271 1051 328 b 1235 285 1180 328 1213 313 b 1267 157 1256 258 1267 215 b 1234 33 1267 100 1256 59 b 1139 -6 1212 7 1181 -6 z "},"′":{"ha":174,"x_min":0,"x_max":0,"o":"m 93 676 l 110 876 l 106 882 l 82 879 l 65 679 l 69 674 z "},"″":{"ha":296,"x_min":0,"x_max":0,"o":"m 93 676 l 110 876 l 106 882 l 82 879 l 65 679 l 69 674 z m 215 676 l 232 876 l 228 882 l 204 879 l 188 679 l 192 674 z "},"‹":{"ha":297,"x_min":0,"x_max":0,"o":"m 42 317 l 42 301 l 257 69 l 274 82 l 274 90 l 72 310 l 274 529 l 274 538 l 257 550 z "},"›":{"ha":290,"x_min":0,"x_max":0,"o":"m 261 303 l 261 318 l 46 550 l 29 538 l 29 529 l 231 310 l 29 90 l 29 82 l 46 69 z "},"⁄":{"ha":64,"x_min":0,"x_max":0,"o":"m 351 911 l 347 922 l 333 929 l -340 -107 l -335 -119 l -322 -125 z "},"⁰":{"ha":518,"x_min":0,"x_max":0,"o":"m 261 974 b 119 907 199 974 152 951 b 69 714 86 863 69 798 b 118 522 69 630 86 566 b 258 456 150 478 197 456 b 400 523 320 456 368 478 b 449 717 432 568 449 632 b 401 908 449 800 433 864 b 261 974 369 952 322 974 z m 258 946 b 381 886 312 946 353 926 b 424 714 409 846 424 789 b 382 542 424 639 410 582 b 261 483 354 503 314 483 b 138 543 207 483 166 503 b 94 717 109 583 94 641 b 137 887 94 791 109 847 b 258 946 165 926 206 946 z "},"⁴":{"ha":465,"x_min":0,"x_max":0,"o":"m 406 624 l 410 646 l 406 650 l 310 650 l 310 972 l 283 972 l 42 649 l 42 628 l 46 624 l 89 625 l 283 625 l 283 460 l 286 457 l 308 460 l 311 463 l 310 625 l 336 625 z m 283 928 l 283 650 l 72 650 l 279 928 z "},"⁵":{"ha":400,"x_min":0,"x_max":0,"o":"m 338 947 l 340 971 l 338 974 l 274 972 l 146 972 l 100 974 l 92 965 l 86 758 l 90 753 l 161 738 b 274 694 212 726 250 712 b 310 622 298 676 310 652 b 260 519 310 579 293 544 b 126 481 226 493 182 481 b 92 483 116 481 105 481 b 53 488 80 484 67 486 l 50 485 l 54 463 b 92 458 67 461 80 459 b 125 456 104 456 115 456 b 279 501 189 456 240 471 b 338 622 318 532 338 572 b 172 763 338 693 282 739 l 111 776 l 117 947 l 292 947 l 333 944 z "},"⁶":{"ha":449,"x_min":0,"x_max":0,"o":"m 242 756 b 166 742 215 756 190 751 b 99 706 142 734 120 721 l 97 707 b 360 960 121 824 209 908 l 360 964 l 344 978 l 340 978 b 135 845 251 947 183 903 b 63 640 87 787 63 719 b 103 502 63 580 76 534 b 221 454 131 470 170 454 b 345 496 275 454 317 468 b 388 614 373 524 388 563 b 349 719 388 659 375 694 b 242 756 324 743 288 756 z m 222 478 b 124 520 179 478 146 492 b 90 642 101 548 90 589 l 90 659 b 92 676 90 665 91 671 b 160 716 113 693 136 706 b 238 731 185 726 211 731 b 328 701 276 731 306 721 b 360 613 349 681 360 651 b 324 513 360 569 348 536 b 222 478 301 489 267 478 z "},"⁷":{"ha":400,"x_min":0,"x_max":0,"o":"m 322 972 l 106 972 l 42 974 l 39 950 l 43 944 l 99 946 l 326 946 l 97 464 l 99 458 l 124 451 l 158 532 l 357 950 l 356 974 z "},"⁸":{"ha":444,"x_min":0,"x_max":0,"o":"m 228 975 b 124 942 185 975 150 964 b 83 850 97 921 83 890 b 115 772 83 816 94 790 b 186 728 135 753 159 739 l 186 725 b 140 705 170 719 155 713 b 99 676 125 697 112 688 b 69 638 87 665 77 652 b 58 586 62 623 58 606 b 100 492 58 547 72 516 b 214 456 128 468 166 456 b 333 493 264 456 304 468 b 378 593 363 518 378 551 b 367 644 378 613 374 631 b 337 681 359 658 349 670 b 295 706 324 691 310 699 b 247 726 280 713 264 720 l 247 729 b 325 775 277 740 303 756 b 358 858 347 794 358 822 b 324 944 358 895 347 924 b 228 975 300 965 269 975 z m 226 951 b 304 926 259 951 285 943 b 333 857 324 910 333 887 b 324 812 333 839 330 824 b 297 779 317 799 308 788 b 260 756 286 770 274 762 b 218 739 246 749 232 744 b 177 757 204 744 191 750 b 142 779 164 763 152 771 b 119 809 133 788 125 797 b 110 850 113 821 110 834 b 142 924 110 881 120 906 b 226 951 163 942 191 951 z m 214 714 b 264 694 231 707 247 701 b 308 670 281 687 295 679 b 340 638 321 661 332 650 b 351 590 347 625 351 609 b 315 511 351 558 339 531 b 214 481 290 491 256 481 b 119 509 174 481 143 490 b 85 586 96 528 85 554 b 97 635 85 606 89 622 b 127 671 104 649 115 661 b 169 696 140 681 153 689 b 214 714 184 702 199 708 z "},"⁹":{"ha":449,"x_min":0,"x_max":0,"o":"m 232 979 b 109 938 178 979 137 965 b 67 821 81 910 67 871 b 105 715 67 775 79 740 b 211 678 130 690 166 678 b 288 691 238 678 263 682 b 354 728 312 700 334 712 l 357 725 b 272 576 344 668 316 618 b 94 475 229 534 169 500 l 94 469 l 108 456 l 113 456 b 319 588 202 486 271 530 b 390 793 366 646 390 714 b 349 931 390 853 377 899 b 232 979 322 963 283 979 z m 215 703 b 125 733 176 703 146 713 b 93 822 104 754 93 783 b 129 922 93 866 105 899 b 232 956 153 944 188 956 b 331 914 275 956 308 942 b 364 793 353 886 364 846 l 364 776 b 363 760 364 771 363 765 b 293 718 341 742 318 728 b 215 703 268 708 242 703 z "},"€":{"ha":699,"x_min":0,"x_max":0,"o":"m 54 261 l 51 238 l 56 233 l 147 233 b 238 54 162 155 192 95 b 419 -7 284 13 344 -7 b 526 11 455 -7 490 -1 b 625 64 561 23 594 41 l 628 90 l 619 93 b 524 40 591 70 559 52 b 419 21 490 27 455 21 b 260 75 354 21 300 39 b 179 233 219 111 192 164 l 478 233 l 481 257 l 476 261 l 174 261 b 169 301 172 274 170 287 b 168 343 169 314 168 328 b 169 376 168 354 168 365 b 171 408 169 388 170 398 l 478 408 l 481 433 l 476 438 l 175 438 b 260 616 188 516 216 576 b 436 676 303 656 362 676 b 531 661 469 676 500 671 b 614 617 562 651 590 636 l 622 617 l 631 642 b 540 689 604 662 573 678 b 438 706 506 700 472 706 b 238 637 354 706 288 683 b 144 438 189 591 157 525 l 54 438 l 51 413 l 56 408 l 142 408 b 140 376 141 398 140 388 b 139 343 139 365 139 354 b 143 261 139 314 140 287 z "},"™":{"ha":797,"x_min":0,"x_max":0,"o":"m 282 882 l 279 885 l 46 885 l 43 864 l 46 861 l 106 863 l 150 863 l 150 563 l 176 563 l 175 663 l 176 863 l 221 863 l 279 861 z m 688 563 l 711 563 l 676 885 l 644 885 l 626 839 l 533 639 l 532 639 l 446 836 l 426 885 l 393 885 l 356 563 l 381 563 l 390 664 l 413 838 l 415 838 l 519 601 l 544 601 l 651 838 l 656 838 l 676 661 z "},"Ω":{"ha":1018,"x_min":0,"x_max":0,"o":"m 513 892 b 236 785 392 892 300 856 b 140 479 172 715 140 613 b 197 219 140 383 159 296 b 358 32 234 143 288 80 l 358 28 l 190 28 l 76 29 l 71 4 l 75 -1 l 183 0 l 360 0 l 415 -1 l 418 1 l 418 24 b 232 212 337 71 275 134 b 168 479 189 290 168 379 b 257 765 168 603 198 698 b 513 864 316 831 401 864 b 763 766 622 864 705 831 b 850 482 821 701 850 606 b 786 214 850 382 829 293 b 600 24 744 135 681 72 l 600 1 l 603 -1 l 658 0 l 828 0 l 942 -1 l 947 24 l 943 29 l 835 28 l 660 28 l 660 32 b 822 222 730 81 784 144 b 878 482 859 299 878 386 b 784 786 878 614 847 716 b 513 892 722 856 631 892 z "},"℮":{"ha":0,"x_min":0,"x_max":0,"o":""},"⅛":{"ha":890,"x_min":0,"x_max":0,"o":"m 733 911 l 729 922 l 715 929 l 42 -107 l 47 -119 l 60 -125 z m 192 372 l 192 886 l 188 892 l 22 843 l 22 821 l 28 818 l 164 856 l 164 372 z m 674 515 b 569 483 631 515 596 504 b 529 390 543 461 529 430 b 560 312 529 356 540 330 b 632 268 581 294 605 279 l 632 265 b 586 245 616 260 601 253 b 545 217 571 237 558 228 b 515 178 533 206 523 193 b 504 126 508 163 504 146 b 546 32 504 88 518 56 b 660 -4 574 8 612 -4 b 779 33 710 -4 750 8 b 824 133 809 58 824 92 b 813 185 824 154 820 171 b 783 221 805 199 795 211 b 741 247 770 231 756 240 b 693 267 726 253 710 260 l 693 269 b 771 315 723 281 749 296 b 804 399 793 335 804 363 b 769 485 804 436 793 464 b 674 515 746 505 714 515 z m 672 492 b 750 467 705 492 731 483 b 779 397 769 450 779 427 b 769 352 779 380 776 365 b 743 319 763 340 754 329 b 706 296 732 310 719 302 b 664 279 692 289 678 284 b 623 297 650 285 636 291 b 588 319 609 304 598 311 b 565 349 578 328 571 338 b 556 390 559 361 556 375 b 588 465 556 422 566 447 b 672 492 609 483 637 492 z m 660 254 b 710 234 676 248 693 241 b 754 210 726 227 741 219 b 785 178 767 202 778 191 b 797 131 793 165 797 149 b 760 51 797 98 785 72 b 660 21 736 31 702 21 b 565 49 620 21 588 30 b 531 126 542 68 531 94 b 542 176 531 146 534 162 b 573 211 550 189 560 201 b 615 236 585 221 599 230 b 660 254 630 243 645 249 z "},"⅜":{"ha":936,"x_min":0,"x_max":0,"o":"m 779 911 l 775 922 l 761 929 l 88 -107 l 93 -119 l 106 -125 z m 181 889 b 49 832 134 889 90 870 l 54 808 l 58 808 b 178 863 98 844 138 863 b 249 840 207 863 231 855 b 276 779 267 824 276 804 b 264 731 276 762 272 745 b 232 692 256 716 245 703 b 190 667 219 682 205 673 b 146 658 174 661 160 658 l 106 658 l 104 638 l 107 635 l 153 635 b 265 603 202 633 239 622 b 304 521 291 583 304 556 b 258 429 304 482 289 451 b 138 396 228 407 188 396 b 97 398 125 396 112 397 b 54 403 81 399 67 401 l 51 400 l 54 378 b 97 372 67 375 81 373 b 138 369 112 370 125 369 b 278 412 196 369 243 384 b 332 521 314 440 332 476 b 300 604 332 554 321 582 b 208 650 279 626 248 642 l 208 653 b 279 708 238 666 262 684 b 306 783 297 732 306 757 b 271 860 306 816 294 841 b 181 889 248 879 218 889 z m 719 515 b 615 483 677 515 642 504 b 575 390 588 461 575 430 b 606 312 575 356 585 330 b 678 268 627 294 651 279 l 678 265 b 632 245 662 260 647 253 b 591 217 617 237 603 228 b 561 178 578 206 569 193 b 550 126 554 163 550 146 b 592 32 550 88 564 56 b 706 -4 619 8 657 -4 b 825 33 756 -4 795 8 b 869 133 855 58 869 92 b 858 185 869 154 866 171 b 828 221 851 199 841 211 b 787 247 816 231 802 240 b 739 267 772 253 756 260 l 739 269 b 817 315 769 281 794 296 b 850 399 839 335 850 363 b 815 485 850 436 838 464 b 719 515 792 505 760 515 z m 718 492 b 796 467 750 492 776 483 b 825 397 815 450 825 427 b 815 352 825 380 822 365 b 789 319 809 340 800 329 b 751 296 778 310 765 302 b 710 279 738 289 724 284 b 669 297 696 285 682 291 b 634 319 655 304 644 311 b 610 349 624 328 616 338 b 601 390 604 361 601 375 b 633 465 601 422 612 447 b 718 492 655 483 683 492 z m 706 254 b 756 234 722 248 739 241 b 800 210 772 227 787 219 b 831 178 813 202 823 191 b 843 131 839 165 843 149 b 806 51 843 98 831 72 b 706 21 782 31 748 21 b 611 49 666 21 634 30 b 576 126 588 68 576 94 b 588 176 576 146 580 162 b 619 211 596 189 606 201 b 660 236 631 221 645 230 b 706 254 676 243 691 249 z "},"⅝":{"ha":915,"x_min":0,"x_max":0,"o":"m 758 911 l 754 922 l 740 929 l 67 -107 l 72 -119 l 85 -125 z m 338 860 l 340 883 l 338 886 l 274 885 l 146 885 l 100 886 l 92 878 l 86 671 l 90 665 l 161 650 b 274 606 212 639 250 624 b 310 535 298 588 310 564 b 260 431 310 491 293 457 b 126 393 226 406 182 393 b 92 395 116 393 105 394 b 53 400 80 397 67 398 l 50 397 l 54 375 b 92 370 67 373 80 372 b 125 368 104 369 115 368 b 279 414 189 368 240 383 b 338 535 318 444 338 485 b 172 675 338 605 282 652 l 111 689 l 117 860 l 292 860 l 333 857 z m 699 515 b 594 483 656 515 621 504 b 554 390 568 461 554 430 b 585 312 554 356 565 330 b 657 268 606 294 630 279 l 657 265 b 611 245 641 260 626 253 b 570 217 596 237 583 228 b 540 178 558 206 548 193 b 529 126 533 163 529 146 b 571 32 529 88 543 56 b 685 -4 599 8 637 -4 b 804 33 735 -4 775 8 b 849 133 834 58 849 92 b 838 185 849 154 845 171 b 808 221 830 199 820 211 b 766 247 795 231 781 240 b 718 267 751 253 735 260 l 718 269 b 796 315 748 281 774 296 b 829 399 818 335 829 363 b 794 485 829 436 818 464 b 699 515 771 505 739 515 z m 697 492 b 775 467 730 492 756 483 b 804 397 794 450 804 427 b 794 352 804 380 801 365 b 768 319 788 340 779 329 b 731 296 757 310 744 302 b 689 279 717 289 703 284 b 648 297 675 285 661 291 b 613 319 634 304 623 311 b 590 349 603 328 596 338 b 581 390 584 361 581 375 b 613 465 581 422 591 447 b 697 492 634 483 662 492 z m 685 254 b 735 234 701 248 718 241 b 779 210 751 227 766 219 b 810 178 792 202 803 191 b 822 131 818 165 822 149 b 785 51 822 98 810 72 b 685 21 761 31 727 21 b 590 49 645 21 613 30 b 556 126 567 68 556 94 b 567 176 556 146 559 162 b 598 211 575 189 585 201 b 640 236 610 221 624 230 b 685 254 655 243 670 249 z "},"⅞":{"ha":888,"x_min":0,"x_max":0,"o":"m 731 911 l 726 922 l 713 929 l 39 -107 l 44 -119 l 57 -125 z m 322 885 l 106 885 l 42 886 l 39 863 l 43 857 l 99 858 l 326 858 l 97 376 l 99 371 l 124 364 l 158 444 l 357 863 l 356 886 z m 671 515 b 567 483 628 515 594 504 b 526 390 540 461 526 430 b 558 312 526 356 537 330 b 629 268 578 294 602 279 l 629 265 b 583 245 613 260 598 253 b 542 217 569 237 555 228 b 513 178 530 206 520 193 b 501 126 505 163 501 146 b 543 32 501 88 515 56 b 657 -4 571 8 609 -4 b 776 33 707 -4 747 8 b 821 133 806 58 821 92 b 810 185 821 154 817 171 b 780 221 802 199 792 211 b 738 247 767 231 753 240 b 690 267 723 253 707 260 l 690 269 b 768 315 720 281 746 296 b 801 399 790 335 801 363 b 767 485 801 436 790 464 b 671 515 744 505 712 515 z m 669 492 b 747 467 702 492 728 483 b 776 397 767 450 776 427 b 767 352 776 380 773 365 b 740 319 760 340 751 329 b 703 296 729 310 717 302 b 661 279 689 289 675 284 b 620 297 647 285 634 291 b 585 319 607 304 595 311 b 562 349 576 328 568 338 b 553 390 556 361 553 375 b 585 465 553 422 563 447 b 669 492 606 483 634 492 z m 657 254 b 707 234 674 248 690 241 b 751 210 724 227 738 219 b 783 178 764 202 775 191 b 794 131 791 165 794 149 b 758 51 794 98 782 72 b 657 21 733 31 700 21 b 563 49 617 21 586 30 b 528 126 539 68 528 94 b 540 176 528 146 532 162 b 570 211 547 189 558 201 b 612 236 583 221 597 230 b 657 254 627 243 642 249 z "},"←":{"ha":694,"x_min":0,"x_max":0,"o":"m 81 301 l 657 301 l 660 326 l 657 329 l 81 329 l 313 565 l 313 574 l 293 585 l 29 318 l 29 313 l 293 46 l 313 57 l 313 65 z "},"↑":{"ha":694,"x_min":0,"x_max":0,"o":"m 603 349 l 614 368 l 347 632 l 342 632 l 75 368 l 86 349 l 94 349 l 331 581 l 331 4 l 356 1 l 358 4 l 358 581 l 594 349 z "},"→":{"ha":694,"x_min":0,"x_max":0,"o":"m 661 314 l 661 319 l 397 586 l 378 575 l 378 567 l 610 331 l 33 331 l 31 306 l 33 303 l 610 303 l 378 67 l 378 58 l 397 47 z "},"↓":{"ha":694,"x_min":0,"x_max":0,"o":"m 349 0 l 615 264 l 604 283 l 596 283 l 360 51 l 360 628 l 335 631 l 332 628 l 332 51 l 96 283 l 88 283 l 76 264 l 343 0 z "},"↖":{"ha":694,"x_min":0,"x_max":0,"o":"m 604 101 l 604 104 l 196 513 l 526 515 l 533 521 l 526 543 l 151 540 l 149 538 l 146 161 l 168 156 l 174 161 l 176 493 l 583 85 z "},"↗":{"ha":694,"x_min":0,"x_max":0,"o":"m 525 156 l 547 163 l 544 538 l 542 540 l 165 543 l 160 521 l 165 515 l 497 513 l 89 106 l 106 85 l 108 85 l 517 493 l 519 163 z "},"↘":{"ha":694,"x_min":0,"x_max":0,"o":"m 542 93 l 544 469 l 522 475 l 517 469 l 514 138 l 107 546 l 86 529 l 86 526 l 494 118 l 164 115 l 157 110 l 164 88 l 539 90 z "},"↙":{"ha":694,"x_min":0,"x_max":0,"o":"m 532 111 l 526 117 l 194 119 l 603 526 l 586 547 l 583 547 l 175 139 l 172 469 l 167 476 l 144 469 l 147 94 l 150 92 l 526 89 z "},"∆":{"ha":769,"x_min":0,"x_max":0,"o":"m 26 0 l 731 0 l 407 885 l 379 885 z m 65 28 l 389 838 l 396 838 l 692 28 z "},"∏":{"ha":879,"x_min":0,"x_max":0,"o":"m 724 857 l 783 857 l 789 879 l 785 885 l 96 885 l 90 863 l 94 857 l 163 857 l 163 0 l 190 0 l 190 857 l 696 857 l 696 0 l 724 0 z "},"∑":{"ha":636,"x_min":0,"x_max":0,"o":"m 617 856 l 621 879 l 615 886 l 531 885 l 56 885 l 56 860 l 353 450 l 49 25 l 49 0 l 606 0 l 610 22 l 604 29 l 508 28 l 85 28 l 385 444 l 385 454 l 92 857 l 531 857 z "},"−":{"ha":667,"x_min":0,"x_max":0,"o":"m 610 361 l 613 385 l 608 389 l 57 389 l 54 365 l 58 361 z "},"∕":{"ha":404,"x_min":0,"x_max":0,"o":"m 92 -153 l 375 931 l 371 938 l 349 938 l 65 -147 l 69 -153 z "},"∙":{"ha":321,"x_min":0,"x_max":0,"o":"m 160 358 b 132 331 141 358 132 349 b 160 303 132 312 141 303 b 188 331 178 303 188 312 b 160 358 188 349 178 358 z "},"√":{"ha":721,"x_min":0,"x_max":0,"o":"m 306 0 l 336 0 l 729 986 l 704 986 l 699 982 l 325 43 l 319 43 l 124 622 l 117 628 l -24 628 l -26 604 l -22 600 l 100 600 z "},"∞":{"ha":667,"x_min":0,"x_max":0,"o":"m 510 544 b 444 531 485 544 463 540 b 394 499 425 522 408 512 b 359 456 381 486 369 471 b 335 410 349 440 341 425 b 307 459 326 426 317 443 b 270 502 297 475 284 490 b 221 533 256 515 239 525 b 157 544 202 541 181 544 b 40 499 107 544 68 529 b -1 374 13 468 -1 426 b 41 247 -1 321 13 278 b 157 199 69 215 108 199 b 265 241 202 199 238 213 b 333 346 292 269 315 304 b 364 290 343 326 353 308 b 401 242 375 272 388 256 b 449 210 415 229 431 218 b 513 199 467 203 488 199 b 626 244 560 199 597 214 b 668 368 654 274 668 315 b 626 494 668 419 654 461 b 510 544 599 528 560 544 z m 158 518 b 218 506 181 518 201 514 b 262 474 235 498 249 488 b 294 428 274 461 285 446 b 319 375 304 411 312 394 b 292 320 311 356 302 338 b 258 272 283 302 271 286 b 214 238 245 258 231 247 b 156 225 197 229 178 225 b 60 266 116 225 84 239 b 25 374 37 293 25 329 b 60 479 25 418 37 453 b 158 518 84 505 117 518 z m 508 518 b 608 476 552 518 585 504 b 642 368 630 447 642 412 b 607 262 642 322 630 286 b 514 225 584 237 553 225 b 455 238 492 225 472 229 b 410 271 438 246 423 257 b 376 319 397 285 385 301 b 347 375 366 337 356 356 b 372 426 355 392 363 409 b 403 472 380 443 391 458 b 448 506 416 486 431 497 b 508 518 465 514 485 518 z "},"≈":{"ha":667,"x_min":0,"x_max":0,"o":"m 225 493 b 276 484 236 493 253 490 b 351 464 300 478 324 471 b 428 442 377 456 403 449 b 490 431 454 435 475 431 l 499 433 l 589 508 l 589 514 l 579 528 l 571 528 b 517 481 548 507 530 492 b 483 464 504 469 493 464 b 432 472 472 464 455 467 b 357 492 409 478 384 484 b 278 513 330 499 304 506 b 217 526 253 520 232 525 l 208 522 l 119 449 l 119 442 l 129 429 l 138 429 b 192 476 161 449 179 464 b 225 493 205 487 216 493 z m 225 293 b 276 284 236 293 253 290 b 351 264 300 278 324 271 b 428 242 377 256 403 249 b 490 231 454 235 475 231 l 499 233 l 589 308 l 589 314 l 579 328 l 571 328 b 517 281 548 307 530 292 b 483 264 504 269 493 264 b 432 272 472 264 455 267 b 357 292 409 278 384 284 b 278 313 330 299 304 306 b 217 326 253 320 232 325 l 208 322 l 119 249 l 119 242 l 129 229 l 138 229 b 192 276 161 249 179 264 b 225 293 205 287 216 293 z "},"≠":{"ha":667,"x_min":0,"x_max":0,"o":"m 613 285 l 608 289 l 311 289 l 353 461 l 610 461 l 613 485 l 608 489 l 360 489 l 407 683 l 403 689 l 379 689 l 331 489 l 57 489 l 54 465 l 58 461 l 324 461 l 283 289 l 57 289 l 54 265 l 58 261 l 276 261 l 225 50 l 229 46 l 253 46 l 304 261 l 610 261 z "},"≤":{"ha":667,"x_min":0,"x_max":0,"o":"m 606 606 l 610 613 l 600 632 l 60 394 l 56 389 l 56 358 l 597 136 l 603 139 l 611 160 l 92 372 l 92 378 z m 610 -90 l 613 -67 l 608 -62 l 57 -62 l 54 -86 l 58 -90 z "},"≥":{"ha":667,"x_min":0,"x_max":0,"o":"m 611 389 l 607 394 l 67 632 l 57 613 l 61 606 l 575 378 l 575 372 l 56 160 l 64 139 l 69 136 l 611 358 z m 610 -90 l 613 -67 l 608 -62 l 57 -62 l 54 -86 l 58 -90 z "},"◊":{"ha":667,"x_min":0,"x_max":0,"o":"m 561 401 l 335 886 l 332 889 l 311 889 l 88 401 l 88 382 l 314 -103 l 317 -106 l 338 -106 l 561 382 z m 114 392 l 319 842 l 325 842 l 535 392 l 329 -60 l 324 -60 z "},"Ꞌ":{"ha":146,"x_min":0,"x_max":0,"o":"m 76 524 l 93 833 l 89 842 l 65 838 l 49 528 l 53 519 z "},"ꞌ":{"ha":146,"x_min":0,"x_max":0,"o":"m 76 410 l 93 735 l 89 744 l 65 740 l 49 415 l 53 406 z "},"":{"ha":0,"x_min":0,"x_max":0,"o":""},"":{"ha":0,"x_min":0,"x_max":0,"o":""}}}
